<?xml version="1.0" encoding="UTF-8"?>
<svg xmlns="http://www.w3.org/2000/svg" xmlns:xlink="http://www.w3.org/1999/xlink" viewBox="0 0 962.7 621.57">
  <defs>
    <style>
      .cls-1 {
        fill: #6a6a6a;
      }

      .cls-2 {
        fill: #b7b7b7;
      }

      .cls-3 {
        fill: #979797;
      }

      .cls-4 {
        fill: #9d9d9d;
      }

      .cls-5 {
        fill: #797979;
      }

      .cls-6 {
        fill: #939393;
      }

      .cls-7 {
        fill: #343434;
      }

      .cls-8 {
        fill: #262626;
      }

      .cls-9 {
        opacity: .7;
      }

      .cls-10 {
        fill: #6c6c6c;
      }

      .cls-11 {
        fill: #555;
      }

      .cls-12 {
        fill: #0f0f0f;
      }

      .cls-13, .cls-14 {
        fill: #fff;
      }

      .cls-15 {
        fill: #585858;
      }

      .cls-16 {
        fill: #090909;
      }

      .cls-17 {
        fill: #b3c1c4;
      }

      .cls-18 {
        fill: #3d3d3d;
      }

      .cls-19 {
        fill: #727272;
      }

      .cls-20 {
        fill: #575757;
      }

      .cls-21 {
        fill: #4c4c4c;
      }

      .cls-22 {
        fill: #41352b;
      }

      .cls-23 {
        fill: #848484;
      }

      .cls-24 {
        fill: #3f3f3f;
      }

      .cls-25 {
        fill: #a5a5a5;
      }

      .cls-26 {
        fill: #cacaca;
      }

      .cls-27 {
        fill: #565656;
      }

      .cls-28 {
        fill: #363636;
      }

      .cls-29 {
        fill: #0c0c0c;
      }

      .cls-30 {
        fill: silver;
      }

      .cls-14 {
        opacity: .4;
      }

      .cls-31 {
        fill: #5c5c5c;
      }

      .cls-32 {
        fill: #4b4b4b;
      }

      .cls-33 {
        fill: #222;
      }

      .cls-34 {
        fill: #040404;
      }

      .cls-35 {
        fill: #5f5f5f;
      }

      .cls-36 {
        fill: #a9a9a9;
      }

      .cls-37 {
        fill: #9f9f9f;
      }

      .cls-38 {
        fill: #4a4a4a;
      }

      .cls-39 {
        fill: #a6a6a6;
      }

      .cls-40 {
        fill: #8c8c8c;
      }

      .cls-41 {
        fill: #bababa;
      }

      .cls-42 {
        isolation: isolate;
      }

      .cls-43 {
        fill: #3e3e3e;
      }

      .cls-44 {
        fill: #4d4d4d;
      }

      .cls-45 {
        fill: #323232;
      }

      .cls-46 {
        fill: #959595;
      }

      .cls-47 {
        fill: #020202;
      }

      .cls-48 {
        fill: #151515;
      }

      .cls-49 {
        fill: #f6f7f7;
      }

      .cls-50 {
        fill: #131313;
      }

      .cls-51 {
        fill: #868686;
      }

      .cls-52 {
        fill: #b4b4b4;
      }

      .cls-53 {
        fill: #145566;
      }

      .cls-54 {
        fill: #0a0a0a;
      }

      .cls-55 {
        fill: #303030;
      }

      .cls-56 {
        fill: #909090;
      }

      .cls-57 {
        fill: #c9c9c9;
      }

      .cls-58 {
        fill: #393939;
      }

      .cls-59 {
        fill: #4e4e4e;
      }

      .cls-60 {
        opacity: .05;
      }

      .cls-61 {
        fill: #7c7c7c;
      }

      .cls-62 {
        fill: #232323;
      }

      .cls-63 {
        fill: #1c1c1c;
      }

      .cls-64 {
        fill: #2f2f2f;
      }

      .cls-65 {
        fill: #8d8d8d;
      }

      .cls-66 {
        fill: #656565;
      }

      .cls-67 {
        fill: #c7c7c7;
      }

      .cls-68 {
        fill: #a4a4a4;
      }

      .cls-69 {
        fill: #d7e8f4;
      }

      .cls-70 {
        fill: #696969;
      }

      .cls-71 {
        mix-blend-mode: multiply;
      }

      .cls-71, .cls-72 {
        opacity: .15;
      }

      .cls-73 {
        fill: #c3c3c3;
      }

      .cls-74 {
        fill: #cfcfcf;
      }

      .cls-75 {
        fill: #bdbdbd;
      }

      .cls-76 {
        fill: #313131;
      }

      .cls-77 {
        fill: #1b1b1b;
      }

      .cls-78 {
        fill: #707070;
      }

      .cls-79 {
        fill: #111;
      }

      .cls-80 {
        fill: #b5b3b0;
      }

      .cls-81 {
        fill: #646464;
      }

      .cls-82 {
        fill: #818181;
      }

      .cls-83 {
        fill: #929292;
      }

      .cls-84 {
        fill: #bab9b9;
      }

      .cls-85 {
        fill: #969696;
      }

      .cls-86 {
        fill: #2a2a2a;
      }

      .cls-87 {
        fill: #282828;
      }

      .cls-88 {
        fill: #030303;
      }

      .cls-89 {
        fill: #101010;
      }

      .cls-90 {
        fill: #626262;
      }

      .cls-91 {
        fill: #b0b0b0;
      }

      .cls-92 {
        fill: gray;
      }

      .cls-93 {
        fill: #444;
      }

      .cls-94 {
        fill: #5a5a5a;
      }

      .cls-95 {
        fill: #0d0d0d;
      }

      .cls-96 {
        fill: #242424;
      }

      .cls-97 {
        fill: #505050;
      }

      .cls-98 {
        fill: #080808;
      }

      .cls-99 {
        fill: #587bc9;
      }

      .cls-100 {
        fill: #787878;
      }

      .cls-101 {
        fill: #767676;
      }

      .cls-102 {
        fill: #9ea6ad;
      }

      .cls-103 {
        opacity: .3;
      }

      .cls-104 {
        fill: #272727;
      }

      .cls-105 {
        fill: #8e8e8e;
      }

      .cls-106 {
        fill: #6f6f6f;
      }

      .cls-107 {
        fill: #898989;
      }

      .cls-108 {
        fill: #73726f;
      }

      .cls-109 {
        fill: #a1a1a1;
      }

      .cls-110 {
        fill: #747474;
      }

      .cls-111 {
        fill: #181818;
      }

      .cls-112 {
        fill: #424242;
      }

      .cls-113 {
        fill: #414141;
      }

      .cls-114 {
        fill: #2b2b2b;
      }

      .cls-115 {
        fill: #676767;
      }

      .cls-116 {
        fill: #3a3a3a;
      }

      .cls-117 {
        fill: #f1f2f2;
      }

      .cls-118 {
        fill: #737373;
      }

      .cls-119 {
        fill: #3b3b3b;
      }

      .cls-120 {
        fill: #171717;
      }

      .cls-121 {
        fill: #7db5db;
      }

      .cls-122 {
        fill: #464646;
      }

      .cls-123 {
        fill: #212121;
      }

      .cls-124 {
        fill: #305399;
      }

      .cls-125 {
        fill: #b6b6b6;
      }

      .cls-126 {
        fill: #aaa;
      }

      .cls-127 {
        fill: #5d5d5d;
      }

      .cls-128 {
        opacity: .1;
      }

      .cls-129 {
        fill: #0e0e0e;
      }

      .cls-130 {
        fill: #616161;
      }

      .cls-131 {
        clip-path: url(#clippath);
      }

      .cls-132 {
        fill: #afafaf;
      }

      .cls-133 {
        fill: #494949;
      }

      .cls-134 {
        fill: #858585;
      }

      .cls-135 {
        fill: #2c2c2c;
      }

      .cls-136 {
        fill: #bebebe;
      }

      .cls-137 {
        fill: #1d1d1d;
      }

      .cls-138 {
        fill: #adadad;
      }

      .cls-139 {
        fill: #fee4d6;
      }

      .cls-140 {
        fill: #121212;
      }

      .cls-141 {
        fill: #202020;
      }

      .cls-142 {
        fill: none;
      }

      .cls-143 {
        fill: #4f4f4f;
      }

      .cls-144 {
        fill: #2e2e2e;
      }

      .cls-145 {
        fill: #373737;
      }

      .cls-146 {
        fill: #3b455a;
      }

      .cls-147 {
        opacity: .14;
      }

      .cls-148 {
        fill: #050505;
      }

      .cls-149 {
        fill: #353535;
      }

      .cls-150 {
        fill: #c1c1c1;
      }

      .cls-151 {
        fill: #161616;
      }

      .cls-152 {
        fill: #474747;
      }

      .cls-153 {
        fill: #141414;
      }

      .cls-154 {
        fill: #999;
      }

      .cls-155 {
        fill: #535353;
      }

      .cls-156 {
        fill: #515151;
      }

      .cls-157 {
        fill: #9b9b9b;
      }

      .cls-158 {
        fill: #8c8a89;
      }

      .cls-159 {
        fill: #b1b1b1;
      }

      .cls-160 {
        fill: #2d2d2d;
      }

      .cls-161 {
        fill: #383838;
      }

      .cls-162 {
        fill: #ccc;
      }

      .cls-163 {
        fill: #757575;
      }

      .cls-164 {
        fill: #292929;
      }

      .cls-165 {
        fill: #0b0b0b;
      }

      .cls-166 {
        fill: #252525;
      }

      .cls-167 {
        fill: #e5d1bd;
      }

      .cls-168 {
        fill: #bbb;
      }

      .cls-169 {
        fill: #b3b3b3;
      }

      .cls-170 {
        fill: #434343;
      }

      .cls-171 {
        fill: #7e7e7e;
      }

      .cls-172 {
        fill: #9a9a9a;
      }

      .cls-173 {
        fill: #191919;
      }

      .cls-174 {
        fill: #eacdb0;
      }

      .cls-175 {
        fill: #cdd1d1;
      }

      .cls-176 {
        fill: #545454;
      }

      .cls-177 {
        fill: #606060;
      }

      .cls-178 {
        fill: #7b7b7b;
      }

      .cls-179 {
        fill: #1f1f1f;
      }

      .cls-180 {
        fill: #1a1a1a;
      }

      .cls-181 {
        fill: #525252;
      }

      .cls-182 {
        fill: #7a7a7a;
      }

      .cls-183 {
        fill: #454545;
      }

      .cls-184 {
        fill: #a8a8a8;
      }

      .cls-185 {
        fill: #c4c6c6;
      }

      .cls-186 {
        fill: #070707;
      }

      .cls-187 {
        fill: #acacac;
      }

      .cls-188 {
        fill: #484848;
      }

      .cls-189 {
        fill: #7f7f7f;
      }

      .cls-190 {
        fill: #8a8a8a;
      }

      .cls-191 {
        fill: #6d6d6d;
      }

      .cls-192 {
        fill: #6e6e6e;
      }

      .cls-193 {
        fill: #edeced;
      }

      .cls-194 {
        fill: #1a3151;
      }

      .cls-195 {
        fill: #cdcdcd;
      }

      .cls-196 {
        fill: #5b5b5b;
      }

      .cls-197 {
        fill: #404040;
      }

      .cls-198 {
        fill: #9e9e9e;
      }

      .cls-199 {
        fill: #c6c6c6;
      }

      .cls-200 {
        fill: #838383;
      }

      .cls-201 {
        fill: #686868;
      }

      .cls-202 {
        fill: #919191;
      }

      .cls-203 {
        fill: #1e1e1e;
      }

      .cls-204 {
        fill: #d0d0d0;
      }

      .cls-205 {
        fill: #666;
      }

      .cls-206 {
        fill: #f2f2f2;
      }

      .cls-207 {
        fill: #c4c4c4;
      }

      .cls-208 {
        fill: #010101;
      }

      .cls-209 {
        fill: #d6d5d4;
      }

      .cls-210 {
        fill: #3c3c3c;
      }

      .cls-211 {
        fill: #888;
      }

      .cls-212 {
        fill: #5e5e5e;
      }

      .cls-213 {
        fill: #a2a2a2;
      }

      .cls-214 {
        fill: #b9b9b9;
      }

      .cls-215 {
        fill: #060606;
      }
    </style>
    <clipPath id="clippath">
      <rect class="cls-142" x="154.81" y="195.22" width="397.42" height="125.71"/>
    </clipPath>
  </defs>
  <g class="cls-42">
    <g id="Shadow">
      <path class="cls-117" d="M441.66,515.78c-28.19,.08-56.39,.76-84.53,3.89-10.61,1.18-21,3.78-31.64,4.82-21.24,2.09-42.11,5.99-63.43,7.79-17.17,1.45-34.41,2.3-51.53,4.14-16.05,1.72-33.82,1.33-49.74-1.52-11.79-2.11-23.63-3.3-35.23-6.68-12.97-3.79-27.05-6.5-40.57-6.4-19.27,.14-38.03,.16-56.47,6.85-6.47,2.35-14.4,6.21-19.31,11.14-11.25,11.28-12.77,39.43-1.54,51.13,18.92,19.69,59.3,27.42,85.83,27.79,29.06,.4,57.3-1.76,86.4-3.03,27.05-1.18,54.02-2.86,81.11-2.8,55.33,.12,110.66,0,165.89-3.7,51.89-3.47,103.91-2.28,155.91-2.28s106.29,.42,159.23,7.51c23.07,3.09,46.57,4.17,69.75,6.33,20.76,1.94,40.71-.04,61.39-1.83,17.36-1.5,34.62-5.96,50.39-13.5,12.49-5.97,34.75-24.51,38.58-38.75,10.74-39.93-151.3-38.97-176.18-38.88-27.83,.1-55.88,1.02-83.69-.05-11.7-.45-23.22-2.73-34.64-5.24-11.37-2.5-22.83-1.86-34.36-2.91-48.09-4.37-96.29-3.73-144.54-3.73-15.7,0-31.41-.14-47.12-.09Z"/>
    </g>
    <g id="Object">
      <g>
        <circle class="cls-121" cx="256.72" cy="67.3" r="67.3" transform="translate(27.6 201.24) rotate(-45)"/>
        <path class="cls-13" d="M289.93,81.51c-5.25,0-9.79,3.07-11.9,7.51l-28.43-3.84c-.22-5.14-2.52-9.75-6.08-13.02l16.08-23.13c1.88,.8,3.95,1.24,6.12,1.24,8.65,0,15.7-7.01,15.7-15.62s-7.04-15.62-15.7-15.62-15.7,7.01-15.7,15.62c0,3.69,1.29,7.08,3.44,9.75l-16.55,23.8c-1.96-.68-4.06-1.05-6.24-1.05-10.45,0-18.94,8.46-18.94,18.86s8.5,18.86,18.94,18.86c7.97,0,14.81-4.93,17.6-11.88l28.69,3.87c1.07,6.16,6.48,10.86,12.97,10.86,7.26,0,13.16-5.88,13.16-13.1s-5.9-13.1-13.16-13.1Z"/>
      </g>
      <g>
        <path class="cls-174" d="M278.68,128.29c-.25-.29-.51-.59-.61-.96-.3-1.08,.76-2.03,1.25-3.05,.31-.65,.39-1.39,.46-2.1,.12-1.23,.25-2.47,.37-3.7,.02-.21,.04-.42-.04-.62-.07-.17-.21-.31-.36-.43-1.48-1.29-3.39-2.23-5.36-2.04-1.91,.18-3.6,1.4-4.89,2.84-.83,.92-1.54,1.95-2.1,3.06-.18,.34-.34,.71-.35,1.09,0,.31,.1,.62,.21,.91,.71,1.84,1.82,3.51,3.23,4.88,.8,.77,1.71,1.47,2.26,2.44,.38,.68,.56,1.46,.77,2.21,.41,1.52,.95,3,1.61,4.42,.13,.28,4.91-4.02,5.29-4.46,1.72-2.02-.32-2.86-1.75-4.49Z"/>
        <path class="cls-146" d="M307.62,197.36c1.14,1.08,2.29,2.12,3.47,3.11,1.29,1.08,2.62,2.16,4.21,2.73,1.5,.54,3.14,.58,4.74,.48,6.96-.43,16.9-4.09,15.62-12.5-.38-2.52-1.86-4.71-3.36-6.75-4.16-5.63-8.85-10.83-13.54-16.02-12.53-13.88-25.06-27.76-37.59-41.64-3.3,2.38-6.6,4.76-9.89,7.13-2.69,1.94,10.47,27.51,12.05,30.36,6.32,11.39,14.66,23.91,24.31,33.11Z"/>
      </g>
      <path class="cls-146" d="M314.49,151.41c1.82-1.24,4.02-2.37,6.2-3.37,17.51-8.05,37.04-11.74,56.28-10.43,13.14,.9,26.02,4.04,38.65,7.78,4.88,1.45,9.83,3.03,13.95,6.02,4.13,2.98,7.36,7.63,7.41,12.72-33.82,3.56-66.68,6.5-100.85,4.95-6.56-.3-14.97-2.71-20.61-5.97-7.82-4.52-5.72-8.49-1.03-11.69Z"/>
      <g>
        <path class="cls-174" d="M369.29,147.26c.62-.29,1.17-.68,1.59-1.24,.1-.13,.2-.28,.23-.45,.04-.19-.02-.39-.07-.59-.2-.73-2.25-6.38-1.8-6.67,3.52-1.98,6.52-5.32,8.26-8.77,3.24-6.44,3.41-13.79,2.78-20.71-.91-9.95-4.31-20.85-13.4-24.49-6.97-2.8-15.72,.25-21.33,5.54-7.22,6.81-6.12,18.02-4.59,26.67,1.09,6.18,3.71,12.31,7.99,16.91,2.15,2.31,4.75,4.2,7.67,5.37,1.42,.57,2.74,.45,3.17,1.88,.52,1.77,.27,4.41,.43,6.3,.03,.31,.07,.66,.32,.85,.18,.14,.41,.15,.64,.16,1.52,.06,3.05,.05,4.57-.04,1.19-.07,2.46-.23,3.53-.72Z"/>
        <path class="cls-146" d="M371.17,97.98c3.55,2.11,7.02,5.7,6.37,9.82,1.86-.94,4.17,.9,4.44,2.99s-.88,4.1-2.21,5.72c2.08,.36,4.12-1.16,5.06-3.07s1.04-4.12,1.08-6.26c.11-6.34-.16-12.84-2.57-18.69-2.4-5.85-7.33-10.98-13.5-11.98-1.9-.31-3.84-.23-5.76-.02-1.55,.17-3.14,.44-4.49,1.23-11.03,6.47,6.99,17.53,11.58,20.26Z"/>
        <path class="cls-146" d="M345.68,110.46c-1.83,4.93,2.55,10.35,1.42,15.5-.7,3.2-3.47,5.81-3.46,9.08,.01,4.23,4.63,7.34,4.68,11.56-2.65-3.37-7.71-4.19-10.01-7.81-.95-1.49-1.3-3.29-1.96-4.93-2.72-6.77-10.05-10.05-16.25-13.79-.72-.43-1.46-.91-1.88-1.65-.94-1.62,.03-3.64,.83-5.33,2.42-5.14,3.28-11.03,2.43-16.66-.81-5.36-3.13-10.7-2.07-16.02,.94-4.74,4.73-8.76,9.35-9.93,4.16-1.05,8.63,.09,12.8-.93,2.77-.68,5.22-2.25,7.8-3.47,5.96-2.82,13.83-3.4,18.46,1.34,4.1,4.19,4.13,11.25,1.44,16.48-1.66,3.23-4.03,6.02-5.71,9.25-1.29,2.48-2.21,5.2-4.33,7.12-4.08,3.7-11.41,4.43-13.54,10.19Z"/>
      </g>
      <g>
        <polygon class="cls-174" points="657.71 208.88 649.45 210.42 643.48 206.09 641.92 206.91 642.81 208.89 636.83 206.74 631.94 208.54 630.03 215.26 632.67 221.9 639.44 223.03 647.14 220.11 658.53 218.5 657.71 208.88"/>
        <path class="cls-124" d="M652.5,206.01c8.56-3.46,17.13-6.93,25.69-10.39,5.53-2.24,11.11-4.37,16.6-6.71,6.89-2.95,4.97-7.77,9.04-13.88,9.16-13.75,19.49-28.41,35.22-33.45,1.57-.5,3.25-.9,4.86-.52,3.04,.72,4.82,4.11,4.76,7.24-.06,3.12-1.52,6.03-2.97,8.79-7.87,14.99-15.95,33.1-27.06,45.97-4.99,5.79-16.76,6.61-24.17,8.53-14.99,3.87-29.99,7.74-44.98,11.61l3.02-17.18Z"/>
      </g>
      <g>
        <polygon class="cls-22" points="736.33 536.97 736.33 543.94 718.47 552.87 709.54 543.94 718.47 535.01 719.62 535.01 719.91 536.97 736.33 536.97"/>
        <polygon class="cls-22" points="780.33 535.01 781.57 535.01 790.5 543.94 781.57 552.87 763.7 543.94 763.7 536.97 780.13 536.97 780.33 535.01"/>
        <g>
          <path class="cls-124" d="M679.52,329.23c1.12-11.73,2.28-23.46,3.7-35.16,2.83-23.33,6.68-46.61,13.2-69.2,2.49-8.63,5.36-17.14,8.24-25.64,3.5-10.36,6.99-20.71,10.49-31.07,4.35-12.87,11.68-21.94,24.53-26.44,2.29-.8,4.71-1.42,7.2-1.88,.06,.27,.12,.54,.15,.82,.15,1.24,.5,2.61,1.27,3.5l-8.43,.08s-23.79,84.54-24.66,99.11c-.33,5.54-1.44,17.63-2.67,30.37l-12.92,1.93-.55,48.72c-.72,.21-1.44,.42-2.16,.61-4.1,1.11-7.43,4.14-10.84,6.53-5.03,3.52-7.23,4.91-6.55-2.28Z"/>
          <path class="cls-124" d="M712.53,273.72c-1.95,20.16-4.2,41.93-4.2,41.93,0,0,10.44,.25,25.55,1.4-1.12-.03-2.24-.06-3.35-.07-10.51-.09-21.41,4.45-31.47,7.39l.55-48.72,12.92-1.93Z"/>
          <path class="cls-53" d="M783.04,323.18c7.2,.38,8.1-.98,8.1-.98,0,0-6.5-26.54-11.06-49.63l20.57,3.08,.27,55.13c-1.75-1.12-3.55-2.17-5.51-3.12-3.91-1.89-8.09-3.34-12.37-4.48Z"/>
          <path class="cls-194" d="M699.06,324.38c10.06-2.94,20.96-7.48,31.47-7.39,1.12,0,2.23,.04,3.35,.07,.93,.07,1.89,.15,2.86,.22,7.04,.57,14.95,1.32,23.21,2.33,.41,.05,.81,.1,1.22,.15,10.56,2.3,17.42,3.2,21.88,3.43,4.28,1.14,8.46,2.59,12.37,4.48,1.95,.95,3.76,2,5.51,3.12l.06,11.48-20.14,194.98h-16.51v1.99h-.09l-18.16-130.78-.08-.74-9.95,131.52h-.09v-1.99h-16.59l-21.05-146.45,.76-66.41Z"/>
          <path class="cls-124" d="M771.09,271.67c-2.35-11.9-4.19-22.88-4.36-28.84-.51-17.91-2.76-77.08-2.76-77.08l-10.93-22.63-2.02,.02c.15-.02,.29-.03,.44-.05-.48,.06,.23-4.37,.4-4.76,9.51-.32,21.76,5.04,27.75,12.51,4.44,5.53,7.07,12.29,9.64,18.93,7.24,18.69,10.52,36.02,14.13,55.67,2.3,12.53,4.43,25.01,6.1,37.45,1.85,13.78,3.16,27.52,3.54,41.18,.04,1.51,.34,5.73,.51,10.78,.35,10.57,.13,24.7-4.25,25.23-.82,.1-1.61-.27-2.33-.63-5.63-2.78-10.06-6.41-15.03-9.58l-13.22-38.21-7.61-20Z"/>
          <path class="cls-13" d="M708.33,315.66s10.11,.25,24.74,1.4c.91,.07,1.83,.15,2.77,.22,6.82,.57,14.48,1.32,22.47,2.33,.39,.05,.78,.1,1.18,.15,7.11,1.6,13.83,3.29,21.13,3.72,2.75,.16,5.7,2.44,7.86,.42,1.82-1.7,1-9.03,1-11.23,0-8.67-1.27-17.28-3.01-25.75-3.62-17.62-9.45-34.78-11.63-52.68-.79-6.5-1.09-13.05-1.92-19.55-1.93-15.22-6.22-29.43-7.71-44.69-.3-3.13-1.42-26.61-6.87-25.94-2.69,.33-5.38,.67-8.07,1-.7,.09-1.42,.17-2.09-.06-.34-.12-.63-.3-.88-.53-.1-.09-.19-.2-.28-.31l-8.16,.08s-23.03,84.54-23.87,99.11c-.32,5.54-1.39,17.63-2.58,30.37-1.88,20.16-4.07,41.93-4.07,41.93Z"/>
        </g>
      </g>
      <g>
        <path class="cls-146" d="M732.2,87.48c-2.3,4.65-3.26,9.91-3.22,15.11,.01,1.38,0,2.98-1.06,3.86-1.13,.93,0,2.79-.95,1.67-.95-1.12-4.19-5.02-4.4-6.48-.49-3.43-.67-6.92-.51-10.38,.13-3.02,.58-6.18,2.39-8.57,1.08-1.42,2.56-2.45,4.01-3.45,2.11-1.45,4.29-2.92,6.77-3.53,4.28-1.04,7.01,.39,3.35,3.65-2.62,2.34-4.8,4.94-6.38,8.12Z"/>
        <path class="cls-174" d="M762.02,145c-5.91,.88-11.83,1.75-17.74,2.63-1.17-5.17-1.97-10.45-2.39-15.75-5.22-.63-11.39-2.01-13.44-7.43-.65-1.71-.76-3.59-.87-5.44-.44-7.63-.88-15.27-1.33-22.9-.15-2.64-.3-5.36,.47-7.86,1.34-4.38,5.18-7.15,8.99-8.97,9.72-4.64,21.29-5.08,30.75,.3,2.52,1.43,4.92,3.31,6.46,5.96,2.38,4.08,2.37,9.28,2.28,14.13-.08,4.48-.17,8.97-.25,13.45-.1,5.16-.56,11.11-4.34,14.03-2.01,1.55-4.69,1.96-6.39,3.91-3,3.45-1.26,9.23-2.19,13.94Z"/>
        <path class="cls-146" d="M726.47,123.52c1.17,4.71,3.66,9.13,7.6,11.6,4.47,2.8,9.89,2.73,15.01,2.59,2.8-.08,5.61-.16,8.41-.24,7.09-.2,14.09-1.5,17.36-9.28,1.5-3.59,1.83-7.68,1.38-11.61-.12-1.08-.32-2.19-.87-3.1-.55-.91-1.54-1.57-2.52-1.38-1.25,.24-1.93,1.66-2.69,2.77-1.65,2.42-4.7,3.89-7.28,2.77-.76-.33-1.44-.85-2.11-1.38-.27-.22-.55-.43-.83-.64-2.77-2.04-6.09-2.87-9.37-3.13-2.85-.23-7.06-1.07-9.04,1.49-1.15,1.49-2.3,2.98-3.45,4.47-.47,.61-.96,1.24-1.59,1.65-.65,.42-1.41,.59-2.17,.64-1.9,.13-4.08-.65-4.83-2.58-.32-.84-.33-1.78-.41-2.68-.08-.91-.26-1.86-.85-2.52-2.23-2.5-2.62,1.68-2.64,3.1-.02,2.51,.25,5.04,.85,7.47Zm19.37,.3c2.32,1.42,4.67,1.31,7.13,.42,1.26-.46,1.91,1.69,.65,2.15-2.96,1.08-5.93,1.13-8.72-.57-1.16-.71-.22-2.72,.94-2Z"/>
        <path class="cls-146" d="M722.45,74.73c-.59-1.82-1.05-3.69-1.38-5.58,1.76,.53,3.66,.59,5.45,.19-.05-1.1-.1-2.2-.15-3.3-.04-.91,12.08-2.19,13.06-2.32,9.2-1.26,17.62-2.43,26.23,2.18,7.36,3.93,12.26,10.13,13.78,18.45,1.45,7.95-.59,18.53-4.81,25.41-.08-2.13,.87-7.22,.27-9.22-.41-2.01-1.19-3.93-2.24-5.69-2.08-3.51-5.18-6.39-8.68-8.38-5.59-3.17-11.98-4.66-18.32-5.23-5.8-.51-12.87-.9-18.48,.95-2.7,.89-3.12,1.61-4.92-1.11-.32-.48-2.93-6.14-2.7-6.16,.96-.06,1.92-.13,2.88-.2Z"/>
      </g>
      <g>
        <g>
          <polygon class="cls-185" points="398.94 528.38 316.31 527.46 324.48 464.31 392.17 465.06 398.94 528.38"/>
          <g class="cls-147">
            <polygon points="322.13 481.79 393.63 478.74 395.62 497.34 322.13 481.79"/>
          </g>
          <path class="cls-175" d="M140.37,170.88V472.82c0,4.95,4.01,8.97,8.96,8.97h417.29c4.95,0,8.96-4.01,8.96-8.97V170.88c0-3.26-2.64-5.9-5.9-5.9H146.27c-3.26,0-5.9,2.64-5.9,5.9Z"/>
          <path class="cls-146" d="M140.37,170.84V442.6h435.22V170.84c0-3.5-2.84-6.34-6.34-6.34H146.7c-3.5,0-6.34,2.84-6.34,6.34Z"/>
          <rect class="cls-206" x="151.84" y="177.21" width="412.27" height="250.59"/>
          <path class="cls-175" d="M300.92,519.68h114.12c4.55,0,8.24,3.69,8.24,8.24v14.54h-130.59v-14.54c0-4.55,3.69-8.24,8.24-8.24Z"/>
        </g>
        <rect class="cls-206" x="151.84" y="196.21" width="412.27" height="124.17"/>
        <g>
          <g class="cls-9">
            <rect class="cls-102" x="183.25" y="338.59" width="112.42" height="65.59"/>
            <rect class="cls-102" x="301.41" y="338.59" width="112.42" height="65.59"/>
            <rect class="cls-102" x="419.58" y="338.59" width="112.42" height="65.59"/>
          </g>
          <rect class="cls-17" x="182.44" y="410.6" width="61.95" height="7.06"/>
          <rect class="cls-17" x="301.41" y="410.6" width="61.95" height="7.06"/>
          <rect class="cls-17" x="419.58" y="410.6" width="61.95" height="7.06"/>
        </g>
        <g class="cls-72">
          <polygon class="cls-13" points="358.87 176.68 186.63 427.81 151.84 427.81 151.84 177.21 358.87 176.68"/>
        </g>
      </g>
      <g>
        <path class="cls-146" d="M110.21,555.5l-.57,6.65-4.39,5.41s-1.26,8.11,1.14,9.54,39.86,5.87,39.86,5.87l3.86-5.76-3.1-6.36-19.8-9.06-6.8-7.55-10.2,1.25Z"/>
        <path class="cls-146" d="M149.37,541.13l-.57,6.65-4.33,5.41s-1.25,8.12,1.11,9.54,39.21,5.82,39.21,5.82l3.81-5.76-3.04-6.35-19.47-9.03-6.68-7.54-10.04,1.27Z"/>
        <g>
          <path class="cls-124" d="M104.3,425.07c3.22,6.77,6.11,12.9,6.64,21.62,.52,8.57-1.09,17.11-2.3,25.61-4.2,29.42-3.79,59.28-3.37,88.99,10.25,.45,20.51,.66,30.77,.64,1.74,0,3.71-.11,4.87-1.41,1.16-1.31,1.04-3.27,.85-5.01-2.35-21.11-2.19-42.47-1.87-63.68,.16-10.45,.52-19.38,2.66-29.46,2.13-10.02,1.75-20.39,1.06-30.54-1.68-24.86-6.72-49.26-8.11-74.11-.25-4.51-.68-9.35-3.6-12.8-3.51-4.14-9.52-4.99-14.94-4.98-14.92,0-31.75,2.36-32.51,20.45-.25,6.03,1.34,11.97,3.03,17.77,3.87,13.28,8.07,26.69,13.43,39.45,1.11,2.66,2.28,5.1,3.4,7.46Z"/>
          <path class="cls-124" d="M145.89,413.64c3.07,6.92,5.83,13.19,5.93,21.92,.11,8.59-2.04,17.03-3.77,25.46-5.98,29.17-7.08,59.02-8.17,88.72,10.86,.95,21.75,1.67,32.64,2.16,1.85,.08,3.95,.08,5.25-1.17,1.3-1.25,1.27-3.22,1.16-4.97-1.76-26.38-3.73-52.85-1.88-79.22,.71-10.09,1.98-20.15,2.55-30.25,1.11-19.67-.47-39.37-2.87-58.91-1.48-12.04,.62-37.8-11.56-45.09-5.51-3.3-12.48-3.79-18.93-2.8-3.29,.5-6.57,1.39-9.35,3.11-5.35,3.32-8.18,9.43-8.76,15.44-.58,6.01,.8,12.03,2.3,17.9,3.42,13.45,7.19,27.05,12.22,40.07,1.05,2.71,2.16,5.2,3.23,7.62Z"/>
          <path class="cls-121" d="M92.47,187.19c-7.85,4.65-13.78,11.76-15.84,22.31-9.29,47.62-3.55,96.74,2.21,144.91,.39,3.29,1,6.96,3.67,8.91,3.02,2.21,7.23,1.21,10.82,.15,28.28-8.32,57.25-14.28,86.52-17.78-1.77-35.42-5.2-70.77-10.29-105.87-1.37-9.49-2.89-19.05-6.44-27.96-7.91-19.89-21.35-34.06-43.87-32.22-9.55,.78-19.1,2.99-26.8,7.55Z"/>
          <g>
            <path class="cls-139" d="M141.78,140.48c.38,6.06,.68,12.53-2.36,17.8-2.58,4.49-7.18,7.38-10.71,11.16-2.15,2.31-3.94,5.31-4.34,8.48-.4,3.13,1.29,5.81,1.27,8.94,0,.29-.01,.6-.15,.86-.15,.28-.42,.46-.7,.61-1.42,.77-3.1,.8-4.72,.81-1.9,.01-3.98,.27-5.87,.03-2.47-.3-1.97-.8-2.2-3.31-.35-3.75-.85-7.51-2.06-11.1-2.5-7.39-7.81-13.7-9.32-21.45-1.67-8.57,.82-16.97,3.54-25.12,1.22-3.65,2.55-7.36,5.05-10.28,5.49-6.41,18.37-8.46,24.52-1.91,7.31,7.79,7.4,14.17,8.05,24.47Z"/>
            <path class="cls-146" d="M139.83,136.33c3.99,5.46,4.64,13.18,1.62,19.23,4.63-3.23,6.81-8.99,7.75-14.56,.51-3.06,.73-6.2,.38-9.28-1.11-9.75-8.84-18.76-18.57-20.05-6.43-.86-6.41,7.35-3.9,11.34,3.3,5.25,9.1,8.36,12.72,13.33Z"/>
            <path class="cls-146" d="M122.79,106.56c-3.6-1.72-7.77-1.82-11.75-1.48-5.45,.47-16.43,2.08-22.91,6.14-3.65-7.82-14.2-13.72-21.9-9.67-4.51,2.37-6.46,7.53-4.38,11.58,.52,1.01,1.26,1.95,2.23,2.71,.81,.64,1.77,1.15,2.47,1.87,2.62,2.74,.2,6.64-1.73,9.74-2.18,3.5-3.67,7.29-4.41,11.18-.41,2.19-.57,4.5,.43,6.56,1,2.06,3.44,3.79,6.15,3.67,4.9-.21,5.88-4.38,6.14-8.17,.29-4.37,1.03-8.2,3.01-12.26,.73-1.49,1.72-3.06,3.32-3.49,.31-.08,.61-.11,.92-.11-1.08,3.65-1.66,7.34-1.09,11.4,1.13,8.09,4.12,15.98,9.07,22.47,4.95,6.49,11.91,11.53,19.78,13.72,.56-4.98-4.69-8.75-5.65-13.66-.52-2.66,.3-5.44,1.69-7.77,1.39-2.33,3.33-4.27,5.24-6.19,3.3-3.31,6.6-6.62,9.89-9.94,2.69-2.7,5.41-5.44,7.42-8.68,4.09-6.59,3.9-15.88-3.93-19.63Z"/>
          </g>
        </g>
      </g>
      <g>
        <g class="cls-71">
          <g class="cls-131">
            <rect class="cls-204" x="551.68" y="195.22" width=".55" height="125.71"/>
            <rect class="cls-74" x="551.04" y="195.22" width=".64" height="125.71"/>
            <rect class="cls-195" x="550.4" y="195.22" width=".64" height="125.71"/>
            <rect class="cls-162" x="549.76" y="195.22" width=".64" height="125.71"/>
            <rect class="cls-26" x="549.12" y="195.22" width=".64" height="125.71"/>
            <rect class="cls-57" x="548.48" y="195.22" width=".64" height="125.71"/>
            <rect class="cls-67" x="547.84" y="195.22" width=".64" height="125.71"/>
            <rect class="cls-199" x="547.2" y="195.22" width=".64" height="125.71"/>
            <rect class="cls-207" x="546.56" y="195.22" width=".64" height="125.71"/>
            <rect class="cls-73" x="545.92" y="195.22" width=".64" height="125.71"/>
            <rect class="cls-150" x="545.28" y="195.22" width=".64" height="125.71"/>
            <rect class="cls-30" x="544.64" y="195.22" width=".64" height="125.71"/>
            <rect class="cls-136" x="544" y="195.22" width=".64" height="125.71"/>
            <rect class="cls-75" x="543.36" y="195.22" width=".64" height="125.71"/>
            <rect class="cls-168" x="542.72" y="195.22" width=".64" height="125.71"/>
            <rect class="cls-41" x="542.09" y="195.22" width=".64" height="125.71"/>
            <rect class="cls-214" x="541.45" y="195.22" width=".64" height="125.71"/>
            <rect class="cls-2" x="540.81" y="195.22" width=".64" height="125.71"/>
            <rect class="cls-125" x="540.17" y="195.22" width=".64" height="125.71"/>
            <rect class="cls-52" x="539.53" y="195.22" width=".64" height="125.71"/>
            <rect class="cls-169" x="538.89" y="195.22" width=".64" height="125.71"/>
            <rect class="cls-159" x="538.25" y="195.22" width=".64" height="125.71"/>
            <rect class="cls-91" x="537.61" y="195.22" width=".64" height="125.71"/>
            <rect class="cls-132" x="536.97" y="195.22" width=".64" height="125.71"/>
            <rect class="cls-138" x="536.33" y="195.22" width=".64" height="125.71"/>
            <rect class="cls-187" x="535.69" y="195.22" width=".64" height="125.71"/>
            <rect class="cls-126" x="535.05" y="195.22" width=".64" height="125.71"/>
            <rect class="cls-36" x="534.41" y="195.22" width=".64" height="125.71"/>
            <rect class="cls-184" x="533.77" y="195.22" width=".64" height="125.71"/>
            <rect class="cls-39" x="533.13" y="195.22" width=".64" height="125.71"/>
            <rect class="cls-25" x="532.49" y="195.22" width=".64" height="125.71"/>
            <rect class="cls-68" x="531.85" y="195.22" width=".64" height="125.71"/>
            <rect class="cls-213" x="531.21" y="195.22" width=".64" height="125.71"/>
            <rect class="cls-109" x="530.57" y="195.22" width=".64" height="125.71"/>
            <rect class="cls-37" x="529.93" y="195.22" width=".64" height="125.71"/>
            <rect class="cls-198" x="529.29" y="195.22" width=".64" height="125.71"/>
            <rect class="cls-4" x="528.65" y="195.22" width=".64" height="125.71"/>
            <rect class="cls-157" x="528.01" y="195.22" width=".64" height="125.71"/>
            <rect class="cls-172" x="527.37" y="195.22" width=".64" height="125.71"/>
            <rect class="cls-154" x="526.73" y="195.22" width=".64" height="125.71"/>
            <rect class="cls-3" x="526.09" y="195.22" width=".64" height="125.71"/>
            <rect class="cls-85" x="525.45" y="195.22" width=".64" height="125.71"/>
            <rect class="cls-46" x="524.81" y="195.22" width=".64" height="125.71"/>
            <rect class="cls-6" x="524.17" y="195.22" width=".64" height="125.71"/>
            <rect class="cls-83" x="523.53" y="195.22" width=".64" height="125.71"/>
            <rect class="cls-202" x="522.9" y="195.22" width=".64" height="125.71"/>
            <rect class="cls-56" x="522.26" y="195.22" width=".64" height="125.71"/>
            <rect class="cls-105" x="521.62" y="195.22" width=".64" height="125.71"/>
            <rect class="cls-65" x="520.98" y="195.22" width=".64" height="125.71"/>
            <rect class="cls-40" x="520.34" y="195.22" width=".64" height="125.71"/>
            <rect class="cls-190" x="519.7" y="195.22" width=".64" height="125.71"/>
            <rect class="cls-107" x="519.06" y="195.22" width=".64" height="125.71"/>
            <rect class="cls-211" x="518.42" y="195.22" width=".64" height="125.71"/>
            <rect class="cls-51" x="517.78" y="195.22" width=".64" height="125.71"/>
            <rect class="cls-134" x="517.14" y="195.22" width=".64" height="125.71"/>
            <rect class="cls-23" x="516.5" y="195.22" width=".64" height="125.71"/>
            <rect class="cls-200" x="515.86" y="195.22" width=".64" height="125.71"/>
            <rect class="cls-82" x="515.22" y="195.22" width=".64" height="125.71"/>
            <rect class="cls-92" x="514.58" y="195.22" width=".64" height="125.71"/>
            <rect class="cls-189" x="513.94" y="195.22" width=".64" height="125.71"/>
            <rect class="cls-171" x="513.3" y="195.22" width=".64" height="125.71"/>
            <rect class="cls-61" x="512.66" y="195.22" width=".64" height="125.71"/>
            <rect class="cls-178" x="512.02" y="195.22" width=".64" height="125.71"/>
            <rect class="cls-182" x="511.38" y="195.22" width=".64" height="125.71"/>
            <rect class="cls-5" x="510.74" y="195.22" width=".64" height="125.71"/>
            <rect class="cls-100" x="510.1" y="195.22" width=".64" height="125.71"/>
            <rect class="cls-101" x="509.46" y="195.22" width=".64" height="125.71"/>
            <rect class="cls-163" x="508.82" y="195.22" width=".64" height="125.71"/>
            <rect class="cls-110" x="508.18" y="195.22" width=".64" height="125.71"/>
            <rect class="cls-118" x="507.54" y="195.22" width=".64" height="125.71"/>
            <rect class="cls-19" x="506.9" y="195.22" width=".64" height="125.71"/>
            <rect class="cls-78" x="506.26" y="195.22" width=".64" height="125.71"/>
            <rect class="cls-106" x="505.62" y="195.22" width=".64" height="125.71"/>
            <rect class="cls-192" x="504.98" y="195.22" width=".64" height="125.71"/>
            <rect class="cls-191" x="504.34" y="195.22" width=".64" height="125.71"/>
            <rect class="cls-10" x="503.71" y="195.22" width=".64" height="125.71"/>
            <rect class="cls-1" x="503.07" y="195.22" width=".64" height="125.71"/>
            <rect class="cls-70" x="502.43" y="195.22" width=".64" height="125.71"/>
            <rect class="cls-201" x="501.79" y="195.22" width=".64" height="125.71"/>
            <rect class="cls-115" x="501.15" y="195.22" width=".64" height="125.71"/>
            <rect class="cls-205" x="500.51" y="195.22" width=".64" height="125.71"/>
            <rect class="cls-66" x="499.87" y="195.22" width=".64" height="125.71"/>
            <rect class="cls-81" x="499.23" y="195.22" width=".64" height="125.71"/>
            <rect class="cls-90" x="498.59" y="195.22" width=".64" height="125.71"/>
            <rect class="cls-130" x="497.95" y="195.22" width=".64" height="125.71"/>
            <rect class="cls-177" x="497.31" y="195.22" width=".64" height="125.71"/>
            <rect class="cls-35" x="496.67" y="195.22" width=".64" height="125.71"/>
            <rect class="cls-212" x="496.03" y="195.22" width=".64" height="125.71"/>
            <rect class="cls-127" x="495.39" y="195.22" width=".64" height="125.71"/>
            <rect class="cls-31" x="494.75" y="195.22" width=".64" height="125.71"/>
            <rect class="cls-196" x="494.11" y="195.22" width=".64" height="125.71"/>
            <rect class="cls-94" x="493.47" y="195.22" width=".64" height="125.71"/>
            <rect class="cls-15" x="492.83" y="195.22" width=".64" height="125.71"/>
            <rect class="cls-20" x="492.19" y="195.22" width=".64" height="125.71"/>
            <rect class="cls-27" x="491.55" y="195.22" width=".64" height="125.71"/>
            <rect class="cls-11" x="490.91" y="195.22" width=".64" height="125.71"/>
            <rect class="cls-176" x="490.27" y="195.22" width=".64" height="125.71"/>
            <rect class="cls-155" x="489.63" y="195.22" width=".64" height="125.71"/>
            <rect class="cls-181" x="488.99" y="195.22" width=".64" height="125.71"/>
            <rect class="cls-156" x="488.35" y="195.22" width=".64" height="125.71"/>
            <rect class="cls-97" x="487.71" y="195.22" width=".64" height="125.71"/>
            <rect class="cls-143" x="487.07" y="195.22" width=".64" height="125.71"/>
            <rect class="cls-59" x="486.43" y="195.22" width=".64" height="125.71"/>
            <rect class="cls-44" x="485.79" y="195.22" width=".64" height="125.71"/>
            <rect class="cls-21" x="485.15" y="195.22" width=".64" height="125.71"/>
            <rect class="cls-32" x="484.52" y="195.22" width=".64" height="125.71"/>
            <rect class="cls-38" x="483.88" y="195.22" width=".64" height="125.71"/>
            <rect class="cls-133" x="483.24" y="195.22" width=".64" height="125.71"/>
            <rect class="cls-188" x="482.6" y="195.22" width=".64" height="125.71"/>
            <rect class="cls-152" x="481.96" y="195.22" width=".64" height="125.71"/>
            <rect class="cls-122" x="481.32" y="195.22" width=".64" height="125.71"/>
            <rect class="cls-183" x="480.68" y="195.22" width=".64" height="125.71"/>
            <rect class="cls-93" x="480.04" y="195.22" width=".64" height="125.71"/>
            <rect class="cls-170" x="479.4" y="195.22" width=".64" height="125.71"/>
            <rect class="cls-112" x="478.76" y="195.22" width=".64" height="125.71"/>
            <rect class="cls-113" x="478.12" y="195.22" width=".64" height="125.71"/>
            <rect class="cls-197" x="477.48" y="195.22" width=".64" height="125.71"/>
            <rect class="cls-24" x="476.84" y="195.22" width=".64" height="125.71"/>
            <rect class="cls-43" x="476.2" y="195.22" width=".64" height="125.71"/>
            <rect class="cls-18" x="475.56" y="195.22" width=".64" height="125.71"/>
            <rect class="cls-210" x="474.92" y="195.22" width=".64" height="125.71"/>
            <rect class="cls-119" x="474.28" y="195.22" width=".64" height="125.71"/>
            <rect class="cls-116" x="473.64" y="195.22" width=".64" height="125.71"/>
            <rect class="cls-58" x="473" y="195.22" width=".64" height="125.71"/>
            <rect class="cls-161" x="472.36" y="195.22" width=".64" height="125.71"/>
            <rect class="cls-161" x="471.72" y="195.22" width=".64" height="125.71"/>
            <rect class="cls-145" x="471.08" y="195.22" width=".64" height="125.71"/>
            <rect class="cls-28" x="470.44" y="195.22" width=".64" height="125.71"/>
            <rect class="cls-149" x="469.8" y="195.22" width=".64" height="125.71"/>
            <rect class="cls-7" x="469.16" y="195.22" width=".64" height="125.71"/>
            <rect class="cls-146" x="468.52" y="195.22" width=".64" height="125.71"/>
            <rect class="cls-45" x="467.88" y="195.22" width=".64" height="125.71"/>
            <rect class="cls-76" x="467.24" y="195.22" width=".64" height="125.71"/>
            <rect class="cls-76" x="466.6" y="195.22" width=".64" height="125.71"/>
            <rect class="cls-55" x="465.96" y="195.22" width=".64" height="125.71"/>
            <rect class="cls-64" x="465.33" y="195.22" width=".64" height="125.71"/>
            <rect class="cls-144" x="464.69" y="195.22" width=".64" height="125.71"/>
            <rect class="cls-160" x="464.05" y="195.22" width=".64" height="125.71"/>
            <rect class="cls-135" x="463.41" y="195.22" width=".64" height="125.71"/>
            <rect class="cls-114" x="462.77" y="195.22" width=".64" height="125.71"/>
            <rect class="cls-114" x="462.13" y="195.22" width=".64" height="125.71"/>
            <rect class="cls-86" x="461.49" y="195.22" width=".64" height="125.71"/>
            <rect class="cls-164" x="460.85" y="195.22" width=".64" height="125.71"/>
            <rect class="cls-87" x="460.21" y="195.22" width=".64" height="125.71"/>
            <rect class="cls-104" x="459.57" y="195.22" width=".64" height="125.71"/>
            <rect class="cls-104" x="458.93" y="195.22" width=".64" height="125.71"/>
            <rect class="cls-8" x="458.29" y="195.22" width=".64" height="125.71"/>
            <rect class="cls-166" x="457.65" y="195.22" width=".64" height="125.71"/>
            <rect class="cls-96" x="457.01" y="195.22" width=".64" height="125.71"/>
            <rect class="cls-62" x="456.37" y="195.22" width=".64" height="125.71"/>
            <rect class="cls-62" x="455.73" y="195.22" width=".64" height="125.71"/>
            <rect class="cls-33" x="455.09" y="195.22" width=".64" height="125.71"/>
            <rect class="cls-123" x="454.45" y="195.22" width=".64" height="125.71"/>
            <rect class="cls-141" x="453.81" y="195.22" width=".64" height="125.71"/>
            <rect class="cls-141" x="453.17" y="195.22" width=".64" height="125.71"/>
            <rect class="cls-179" x="452.53" y="195.22" width=".64" height="125.71"/>
            <rect class="cls-203" x="451.89" y="195.22" width=".64" height="125.71"/>
            <rect class="cls-203" x="451.25" y="195.22" width=".64" height="125.71"/>
            <rect class="cls-137" x="450.61" y="195.22" width=".64" height="125.71"/>
            <rect class="cls-63" x="449.97" y="195.22" width=".64" height="125.71"/>
            <rect class="cls-77" x="449.33" y="195.22" width=".64" height="125.71"/>
            <rect class="cls-77" x="448.69" y="195.22" width=".64" height="125.71"/>
            <rect class="cls-180" x="448.05" y="195.22" width=".64" height="125.71"/>
            <rect class="cls-173" x="447.41" y="195.22" width=".64" height="125.71"/>
            <rect class="cls-173" x="446.77" y="195.22" width=".64" height="125.71"/>
            <rect class="cls-111" x="446.14" y="195.22" width=".64" height="125.71"/>
            <rect class="cls-120" x="445.5" y="195.22" width=".64" height="125.71"/>
            <rect class="cls-120" x="444.86" y="195.22" width=".64" height="125.71"/>
            <rect class="cls-151" x="444.22" y="195.22" width=".64" height="125.71"/>
            <rect class="cls-48" x="443.58" y="195.22" width=".64" height="125.71"/>
            <rect class="cls-48" x="442.94" y="195.22" width=".64" height="125.71"/>
            <rect class="cls-153" x="442.3" y="195.22" width=".64" height="125.71"/>
            <rect class="cls-153" x="441.66" y="195.22" width=".64" height="125.71"/>
            <rect class="cls-50" x="441.02" y="195.22" width=".64" height="125.71"/>
            <rect class="cls-140" x="440.38" y="195.22" width=".64" height="125.71"/>
            <rect class="cls-140" x="439.74" y="195.22" width=".64" height="125.71"/>
            <rect class="cls-79" x="439.1" y="195.22" width=".64" height="125.71"/>
            <rect class="cls-79" x="438.46" y="195.22" width=".64" height="125.71"/>
            <rect class="cls-89" x="437.82" y="195.22" width=".64" height="125.71"/>
            <rect class="cls-89" x="437.18" y="195.22" width=".64" height="125.71"/>
            <rect class="cls-12" x="436.54" y="195.22" width=".64" height="125.71"/>
            <rect class="cls-129" x="435.9" y="195.22" width=".64" height="125.71"/>
            <rect class="cls-129" x="435.26" y="195.22" width=".64" height="125.71"/>
            <rect class="cls-95" x="434.62" y="195.22" width=".64" height="125.71"/>
            <rect class="cls-95" x="433.98" y="195.22" width=".64" height="125.71"/>
            <rect class="cls-29" x="433.34" y="195.22" width=".64" height="125.71"/>
            <rect class="cls-29" x="432.7" y="195.22" width=".64" height="125.71"/>
            <rect class="cls-165" x="432.06" y="195.22" width=".64" height="125.71"/>
            <rect class="cls-165" x="431.42" y="195.22" width=".64" height="125.71"/>
            <rect class="cls-54" x="430.78" y="195.22" width=".64" height="125.71"/>
            <rect class="cls-54" x="430.14" y="195.22" width=".64" height="125.71"/>
            <rect class="cls-16" x="429.5" y="195.22" width=".64" height="125.71"/>
            <rect class="cls-16" x="428.86" y="195.22" width=".64" height="125.71"/>
            <rect class="cls-16" x="428.22" y="195.22" width=".64" height="125.71"/>
            <rect class="cls-98" x="427.59" y="195.22" width=".64" height="125.71"/>
            <rect class="cls-98" x="426.95" y="195.22" width=".64" height="125.71"/>
            <rect class="cls-186" x="426.31" y="195.22" width=".64" height="125.71"/>
            <rect class="cls-186" x="425.67" y="195.22" width=".64" height="125.71"/>
            <rect class="cls-215" x="425.03" y="195.22" width=".64" height="125.71"/>
            <rect class="cls-215" x="424.39" y="195.22" width=".64" height="125.71"/>
            <rect class="cls-215" x="423.75" y="195.22" width=".64" height="125.71"/>
            <rect class="cls-148" x="423.11" y="195.22" width=".64" height="125.71"/>
            <rect class="cls-148" x="422.47" y="195.22" width=".64" height="125.71"/>
            <rect class="cls-148" x="421.83" y="195.22" width=".64" height="125.71"/>
            <rect class="cls-34" x="421.19" y="195.22" width=".64" height="125.71"/>
            <rect class="cls-34" x="420.55" y="195.22" width=".64" height="125.71"/>
            <rect class="cls-34" x="419.91" y="195.22" width=".64" height="125.71"/>
            <rect class="cls-88" x="419.27" y="195.22" width=".64" height="125.71"/>
            <rect class="cls-88" x="418.63" y="195.22" width=".64" height="125.71"/>
            <rect class="cls-88" x="417.99" y="195.22" width=".64" height="125.71"/>
            <rect class="cls-47" x="417.35" y="195.22" width=".64" height="125.71"/>
            <rect class="cls-47" x="416.71" y="195.22" width=".64" height="125.71"/>
            <rect class="cls-47" x="416.07" y="195.22" width=".64" height="125.71"/>
            <rect class="cls-47" x="415.43" y="195.22" width=".64" height="125.71"/>
            <rect class="cls-208" x="414.79" y="195.22" width=".64" height="125.71"/>
            <rect class="cls-208" x="414.15" y="195.22" width=".64" height="125.71"/>
            <rect class="cls-208" x="413.51" y="195.22" width=".64" height="125.71"/>
            <rect class="cls-208" x="412.87" y="195.22" width=".64" height="125.71"/>
            <rect class="cls-208" x="412.23" y="195.22" width=".64" height="125.71"/>
            <rect x="411.59" y="195.22" width=".64" height="125.71"/>
            <rect x="410.95" y="195.22" width=".64" height="125.71"/>
            <rect x="410.31" y="195.22" width=".64" height="125.71"/>
            <rect x="409.67" y="195.22" width=".64" height="125.71"/>
            <rect x="409.03" y="195.22" width=".64" height="125.71"/>
            <rect x="408.4" y="195.22" width=".64" height="125.71"/>
            <rect x="154.81" y="195.22" width="253.58" height="125.71"/>
          </g>
        </g>
        <rect class="cls-124" x="141.95" y="184.64" width="397.42" height="125.71"/>
      </g>
      <g>
        <path class="cls-167" d="M167.99,180.23c-.3,.03-.6,.08-.89,.17-2.72,.77-3.28,3.54-5.42,4.86-.95,.59-4.27,.11-3.92,1.94,.13,.67,.38,2.98,.78,5.27-.38,1.9-.67,3.82-1.23,5.67-1.41,4.69-9.91,12.95-5.02,17.57,.95,.89,1.92,1.81,3.12,2.31,.98,.42,2.06,.54,3.12,.61,.83,.05,2.13,.34,2.74-.2,.64-.56,1.01-2.66,1.32-3.48,.88-2.33,1.76-4.66,2.64-6.98,.86-2.28,2.1-4.89,4.49-5.36,.52-.1,1.07-.09,1.58-.26,.57-.19,1.04-.61,1.47-1.02,1.6-1.52,3.11-3.22,4.31-5.08,2.15-3.33-.3-9.03-1.44-12.32-.28-.82-.61-1.66-1.22-2.27-.99-1-2.52-1.2-3.92-1.34-.83-.08-1.68-.16-2.5-.08Z"/>
        <path class="cls-121" d="M140.08,268.22c3.69-5.17,6.81-10.97,9.82-15.36,8.31-12.13,14.85-25.45,19.29-39.47-5.95-4.2-12.73-7.2-19.84-8.78-6.5,10.92-13.87,21.33-22.02,31.08-2.4,2.87-7.13,9.3-11.46,5.94-1.95-1.51-2.73-4.04-3.41-6.41-1.28-4.46-2.56-8.91-3.84-13.37-1.97-6.85-3.39-15.24-10.85-17.74-7.92-2.65-15.56,2.26-18.89,9.46-2.65,5.72-2.83,12.26-2.46,18.55,1.06,18.19,18.05,31.66,30.55,42.68,2.1,1.85,4.38,3.56,6.98,4.57,11.93,4.65,19.87-2.37,26.14-11.16Z"/>
      </g>
      <g>
        <path class="cls-69" d="M809.53,407.87c-1.95,0-3.88,.07-5.8,.2-6.48-37.12-39.26-65.36-78.74-65.36-18.05,0-34.71,5.91-48.09,15.87-14.46-25.16-41.85-42.14-73.27-42.14-46.48,0-84.17,37.17-84.17,83.03,0,2.91,.15,5.78,.45,8.61-1.91-.13-3.83-.2-5.77-.2-46.48,0-84.17,37.17-84.17,83.03s37.68,83.03,84.17,83.03h295.38c46.48,0,84.17-37.17,84.17-83.03s-37.68-83.03-84.17-83.03Z"/>
        <g class="cls-103">
          <path class="cls-13" d="M637.8,334.84c-7.8-2.46-16.1-3.79-24.73-3.79-44.86,0-81.22,35.87-81.22,80.12,0,2.8,.15,5.57,.43,8.3-1.84-.12-3.7-.19-5.57-.19-44.86,0-81.22,35.87-81.22,80.12,0,14.53,3.93,28.16,10.79,39.91-3.1-36.15,2.45-105.17,90.28-103.48-.9-23.6,3.34-97.59,91.23-101Z"/>
        </g>
        <g class="cls-60">
          <path class="cls-146" d="M554.85,573.92h254.69c46.48,0,84.17-37.17,84.17-83.03,0-9.79-1.73-19.18-4.89-27.91-55.34,107.52-242.52,98.01-333.97,110.94Z"/>
        </g>
      </g>
      <g>
        <path class="cls-25" d="M604.19,244.93v12.17c0,3.95,3.12,7.16,6.98,7.16h31.17c3.85,0,6.98-3.2,6.98-7.16v-12.17h-45.13Z"/>
        <path class="cls-99" d="M702.35,81.57c0-42.8-33.84-77.5-75.59-77.5s-75.59,34.7-75.59,77.5c0,15.21,4.28,29.39,11.66,41.36h0c21.03,36.13,25.9,66.4,25.9,66.4h76.08s4.86-30.26,25.9-66.4h0c7.38-11.97,11.66-26.15,11.66-41.36Z"/>
        <path class="cls-209" d="M587.84,189.33v51.68c0,2.16,1.67,3.91,3.72,3.91h70.38c2.06,0,3.72-1.75,3.72-3.91v-51.68h-77.83Z"/>
        <g class="cls-128">
          <path class="cls-146" d="M701,67.06c-19.2,38.48-56.49,97.93-112.32,122.06,.02,.12,.04,.21,.04,.21h76.08s4.86-30.26,25.9-66.4h0c7.38-11.97,11.66-26.15,11.66-41.36,0-4.96-.47-9.81-1.34-14.51Z"/>
        </g>
        <path class="cls-14" d="M563.52,87.95c0-37.37,29.55-67.66,65.99-67.66,21.3,0,40.25,10.35,52.31,26.41-11.4-20.28-32.75-33.94-57.22-33.94-36.45,0-65.99,30.29-65.99,67.66,0,15.53,5.1,29.83,13.68,41.24-5.58-9.93-8.77-21.44-8.77-33.72Z"/>
        <polygon class="cls-49" points="612.06 189.33 602.9 90.13 615.66 101.01 626.79 82.93 638.07 100.44 650.62 90.04 641.45 189.33 645.36 189.33 655.36 80.99 638.96 94.58 626.72 75.59 614.74 95.05 598.14 80.9 608.15 189.33 612.06 189.33"/>
        <g>
          <path class="cls-193" d="M607.24,179.44l.91,9.89h3.9l-1.13-12.22c-1.22,.79-2.45,1.57-3.69,2.33Z"/>
          <path class="cls-193" d="M645.23,148.45l-3.77,40.88h3.9l4.2-45.49c-1.42,1.55-2.86,3.09-4.33,4.61Z"/>
        </g>
        <g>
          <rect class="cls-84" x="587.84" y="202.17" width="77.83" height="9.54"/>
          <rect class="cls-84" x="587.84" y="222.55" width="77.83" height="9.54"/>
        </g>
        <g>
          <path class="cls-80" d="M630.51,222.55h35.16v-10.84h-21.69c-4.54,4.11-9.05,7.7-13.47,10.84Z"/>
          <path class="cls-80" d="M665.67,202.17v-12.83h-1.22c-3.58,4.66-7.19,8.93-10.82,12.83h12.05Z"/>
          <path class="cls-80" d="M591.56,244.93h70.38c2.06,0,3.72-1.75,3.72-3.91v-8.92h-50.82c-10.3,5.31-19.58,8.26-26.88,9.9,.41,1.68,1.86,2.93,3.59,2.93Z"/>
          <path class="cls-108" d="M643.98,211.71h21.69v-9.54h-12.05c-3.21,3.46-6.43,6.63-9.64,9.54Z"/>
          <path class="cls-108" d="M614.85,232.09h50.82v-9.54h-35.16c-5.39,3.82-10.64,6.96-15.66,9.54Z"/>
        </g>
        <path class="cls-158" d="M649.32,252.31c-8.78,8.67-25.59,11.29-31.15,11.93h24.17c3.85,0,6.98-3.2,6.98-7.16v-4.78Z"/>
      </g>
      <g>
        <polygon class="cls-174" points="685.8 219.85 677.44 220.7 671.85 215.9 670.22 216.59 670.95 218.64 665.16 216.01 660.15 217.41 657.69 223.94 659.78 230.78 666.44 232.46 674.35 230.17 685.83 229.5 685.8 219.85"/>
        <path class="cls-124" d="M680.84,216.56c8.82-2.75,17.63-5.51,26.45-8.26,5.69-1.78,11.43-3.44,17.09-5.34,7.11-2.38,5.58-7.34,10.14-13.1,10.25-12.96,21.74-26.72,37.83-30.47,1.61-.37,3.32-.63,4.89-.12,2.97,.97,4.47,4.49,4.16,7.6-.32,3.11-2.01,5.88-3.68,8.52-9.07,14.3-18.6,31.69-30.72,43.62-5.45,5.36-17.25,5.23-24.79,6.53-15.26,2.63-30.52,5.27-45.77,7.9l4.41-16.88Z"/>
      </g>
    </g>
  </g>
</svg>