<?xml version="1.0" encoding="UTF-8"?>
<svg xmlns="http://www.w3.org/2000/svg" viewBox="0 0 799.92 799.92">
  <defs>
    <style>
      .cls-1 {
        fill: #badaf5;
      }

      .cls-2, .cls-3 {
        fill: #5085a1;
      }

      .cls-4, .cls-5 {
        fill: #b3d6f5;
      }

      .cls-6, .cls-7, .cls-8 {
        fill: #fff;
      }

      .cls-9, .cls-10 {
        fill: #013c5c;
      }

      .cls-11, .cls-12 {
        fill: #ffae00;
      }

      .cls-13, .cls-14 {
        fill: #5896cc;
      }

      .cls-15 {
        fill: #fff0cf;
      }

      .cls-7, .cls-16, .cls-17, .cls-18, .cls-19, .cls-20, .cls-21, .cls-22, .cls-23, .cls-24, .cls-25, .cls-26, .cls-27, .cls-5, .cls-28, .cls-29, .cls-14, .cls-12, .cls-10, .cls-30, .cls-31, .cls-8, .cls-3, .cls-32 {
        fill-rule: evenodd;
      }

      .cls-16, .cls-33 {
        fill: #f06358;
      }

      .cls-17 {
        fill: #808281;
      }

      .cls-18, .cls-34 {
        fill: #004e78;
      }

      .cls-35, .cls-28 {
        fill: #6a7573;
      }

      .cls-19 {
        fill: #7fb4e3;
      }

      .cls-20 {
        fill: #e3e2e0;
      }

      .cls-36, .cls-21 {
        fill: #91bde3;
      }

      .cls-37, .cls-23 {
        fill: #4d86b8;
      }

      .cls-38, .cls-24 {
        fill: #e6e6e6;
      }

      .cls-22 {
        fill: #95ba50;
      }

      .cls-39 {
        fill: #cae4fc;
      }

      .cls-40, .cls-31 {
        fill: #6a8733;
      }

      .cls-41 {
        fill: #13618a;
      }

      .cls-25 {
        fill: #736b2e;
      }

      .cls-26 {
        fill: #3f73a1;
      }

      .cls-42 {
        fill: #b6a94a;
      }

      .cls-27 {
        fill: #a2edf4;
      }

      .cls-29, .cls-43 {
        fill: #fffdfa;
      }

      .cls-44 {
        fill: #d9cb62;
      }

      .cls-45 {
        fill: #427bad;
      }

      .cls-30 {
        fill: #ee4e42;
      }

      .cls-46 {
        fill: #b5d973;
      }

      .cls-8 {
        stroke: #000;
        stroke-miterlimit: 22.93;
        stroke-width: .57px;
      }

      .cls-47 {
        fill: #ffdddb;
      }

      .cls-32 {
        fill: #c0f7fc;
      }
    </style>
  </defs>
  <g id="Background">
    <g>
      <polygon class="cls-14" points="0 799.92 520.36 799.92 399.96 399.96 0 450.64 0 799.92"/>
      <polygon class="cls-31" points="799.92 799.92 520.36 799.92 399.96 399.96 799.92 349.28 799.92 799.92"/>
      <polygon class="cls-12" points="0 0 279.56 0 399.96 399.96 0 450.64 0 0"/>
      <polygon class="cls-16" points="799.92 0 279.56 0 399.96 399.96 799.92 349.28 799.92 0"/>
    </g>
  </g>
  <g id="Objects">
    <g>
      <path class="cls-47" d="M291.71,146.81h0s.09,.13,.09,.13l.37,.63,.2,.36-.66-1.13h0Zm0-1.53v-1.51c.54-.21,1.21-.08,1.6,.54h0s.38,.65,.38,.65l.38,.65,.38,.65,.2,.36-1.35-2.31-1.6,.97h0Zm.86,122.52c-.15,.25-.19,.53-.16,.82,.18,1.26,1.82,1.58,2.46,.47l.32-.57,.36-.66,.36-.66,.24-.45c.51-.99-.31-2.12-1.42-1.92-.39,.09-.72,.31-.91,.67l-.24,.44-.35,.64-.36,.64-.32,.57h0Zm6.82-14.1c-.53,1.36,1.21,2.48,2.23,1.35,.09-.11,.17-.23,.22-.37l.17-.43,.28-.7,.28-.71,.25-.64c.49-1.24-1.03-2.38-2.12-1.45-.16,.15-.27,.31-.35,.51l-.24,.63-.27,.69-.27,.69-.17,.43h0Zm4.93-14.86c-.36,1.5,1.67,2.33,2.45,.94,.05-.09,.08-.18,.11-.28l.11-.44,.19-.74,.18-.75,.16-.65c.33-1.38-1.49-2.25-2.35-1.08-.1,.15-.17,.29-.21,.47l-.15,.64-.18,.73-.19,.73-.11,.44h0Zm2.97-15.37c-.18,1.31,1.56,2.05,2.38,.93,.13-.19,.21-.38,.24-.61l.09-.72,.09-.78,.09-.78,.04-.37c.14-1.43-1.81-2.05-2.5-.72-.07,.15-.11,.28-.13,.45l-.04,.35-.08,.76-.09,.76-.09,.72h0Zm.97-15.63c0,.38,.17,.73,.45,.98,.87,.74,2.19,.14,2.19-1v-.58s0-.8,0-.8v-.8s-.02-.48-.02-.48c-.02-.64-.47-1.16-1.1-1.27-.81-.14-1.56,.51-1.54,1.34v.46s.02,.78,.02,.78v.78s0,.58,0,.58h0Zm-1.02-15.63c.19,1.44,2.28,1.58,2.61,.06,.02-.14,.03-.27,0-.41l-.05-.4-.11-.77-.11-.77-.1-.69c-.19-1.16-1.64-1.52-2.36-.59-.22,.29-.3,.64-.25,.99l.1,.67,.11,.76,.1,.76,.05,.4h0Zm-3.02-15.36c.39,1.42,2.48,1.23,2.59-.27,0-.15,0-.28-.04-.42l-.17-.62-.2-.74-.21-.74-.14-.47c-.35-1.26-2.21-1.29-2.56,.09-.04,.24-.04,.41,.02,.65l.13,.45,.2,.72,.2,.72,.17,.62h0Zm-4.98-14.84c.55,1.29,2.44,.96,2.54-.43,0-.22-.02-.38-.1-.59l-.23-.57-.29-.7-.3-.7-.21-.49c-.56-1.3-2.58-.91-2.53,.61,.01,.16,.04,.3,.11,.45l.21,.48,.29,.68,.29,.68,.23,.57h0Zm-6.86-14.07c.73,1.27,2.71,.58,2.44-.91-.03-.14-.08-.27-.15-.4l-2.29,1.32Zm-105.59-64.01c-1.45,0-1.85,2.04-.44,2.57,.15,.05,.28,.07,.44,.07h.79s.78,0,.78,0h.78s.26,.02,.26,.02c1.61,0,1.85-2.29,.27-2.62-.07-.01-.14-.02-.22-.02h-.26s-.8-.02-.8-.02h-.8s-.8-.01-.8-.01h0Zm104.93,59.85v1.51l-.66,.4h0c-.07-.13-.12-.25-.16-.39-.16-.75,.26-1.31,.82-1.52h0Zm0,3.02l-.29-.49-.37-.63,.66,1.13h0Zm-113.58-59.94c1.35-.09,1.72-1.98,.38-2.55-.2-.07-.37-.1-.58-.09l-.7,.05-.79,.06-.79,.07-.39,.04c-1.54,.15-1.63,2.4-.02,2.63,.09,0,.18,.01,.27,0l.37-.03,.77-.07,.77-.06,.7-.05h0Zm-15.52,2.1c1.41-.29,1.41-2.33-.06-2.6-.16-.02-.31-.02-.47,.01l-.31,.06-.76,.16-.75,.16-.75,.17h-.04c-1.52,.37-1.28,2.61,.33,2.61,.09,0,.18-.01,.27-.03h.02s.74-.17,.74-.17l.74-.16,.74-.15,.31-.06h0Zm-15.11,4.09c1.47-.53,.99-2.73-.6-2.56-.09,.01-.18,.03-.26,.06l-.38,.13-.72,.25-.72,.25-.69,.25c-1.29,.46-1.1,2.41,.34,2.56,.2,.01,.37,0,.57-.08l.68-.25,.7-.25,.7-.25,.38-.13h0Zm-14.46,6.01c1.18-.57,.87-2.4-.52-2.5-.24,0-.44,.03-.65,.14l-.25,.12-.67,.34-.67,.34-.67,.34-.12,.07c-1.24,.64-.75,2.59,.75,2.48,.18-.02,.33-.06,.49-.15l.11-.06,.65-.34,.66-.33,.66-.33,.25-.12h0Zm-13.56,7.83c1.23-.83,.38-2.75-1.09-2.37-.13,.04-.26,.1-.37,.17h0s-.62,.42-.62,.42l-.62,.42-.62,.42-.35,.24c-.3,.2-.51,.56-.55,.92-.12,1.14,1.12,1.88,2.07,1.24l.33-.23,.6-.41,.6-.41,.61-.41h0Zm-12.44,9.5c.23-.2,.39-.49,.43-.79,.18-1.22-1.25-2-2.17-1.2l-.3,.26-.56,.49-.56,.5-.55,.5-.03,.02c-1.02,.93-.08,2.64,1.29,2.23,.2-.07,.35-.15,.5-.29h.01s.54-.5,.54-.5l.54-.49,.55-.48,.3-.26h0Zm-11.13,11.02c.33-.37,.42-.86,.25-1.33-.35-.94-1.55-1.17-2.23-.43l-.02,.02-.49,.56-.49,.56-.49,.56-.26,.31c-.9,1.09,.27,2.64,1.59,2.04,.17-.09,.29-.18,.43-.33l.25-.3,.48-.55,.48-.55,.48-.55,.02-.02h0Zm-9.62,12.35c.24-.35,.29-.81,.14-1.2-.39-1-1.73-1.16-2.33-.27l-.24,.35-.42,.62-.41,.62-.41,.62c-.33,.52-.27,1.19,.16,1.64,.58,.61,1.6,.51,2.06-.2l.4-.61,.4-.61,.41-.61,.24-.35h0Zm-7.96,13.49c.65-1.35-1.03-2.56-2.1-1.54-.11,.11-.18,.21-.25,.35l-.07,.14-.34,.67-.33,.67-.33,.68-.11,.24c-.6,1.26,.95,2.51,2.08,1.55,.14-.13,.23-.25,.31-.41l.11-.22,.32-.66,.33-.66,.33-.66,.07-.14h0Zm-6.15,14.4c.48-1.35-1.28-2.42-2.26-1.28-.1,.12-.17,.25-.23,.4h0s-.25,.73-.25,.73l-.25,.72-.24,.72-.12,.35c-.15,.49-.02,1.03,.36,1.38,.69,.65,1.87,.34,2.15-.56l.11-.34,.24-.71,.24-.7,.25-.7v-.02h0Zm-4.23,15.07c.08-.39,0-.77-.25-1.08-.68-.88-2.11-.56-2.33,.54l-.02,.09-.16,.76-.15,.76-.15,.76-.05,.26c-.03,.17-.03,.31,0,.48,.31,1.46,2.31,1.42,2.6,0l.05-.24,.14-.74,.15-.74,.15-.74,.02-.09h0Zm-2.25,15.49c.03-.5-.19-.94-.6-1.21-.83-.54-1.97,.02-2.03,1.01l-.04,.47-.06,.79-.05,.79-.04,.61c-.04,.61,.36,1.15,.93,1.34,.83,.25,1.65-.33,1.7-1.19l.04-.59,.05-.77,.06-.77,.04-.47h0Zm-.25,15.66c-.11-1.58-2.35-1.7-2.62-.13-.01,.09-.02,.17-.01,.27l.02,.41,.04,.79,.05,.79,.04,.66c.1,1.42,2.11,1.7,2.57,.31,.05-.17,.07-.32,.06-.5l-.04-.65-.05-.77-.04-.78-.02-.41h0Zm1.74,15.56c-.09-.57-.58-1.02-1.15-1.08-.89-.09-1.59,.67-1.45,1.54l.02,.1,.14,.76,.14,.76,.15,.76,.05,.24c.29,1.38,2.27,1.42,2.59,0,.03-.19,.04-.34,0-.53l-.05-.22-.14-.74-.14-.75-.14-.75-.02-.1h0Zm3.73,15.2c-.41-1.33-2.41-1.19-2.57,.29-.01,.18,0,.34,.06,.51l.07,.23,.23,.73,.24,.72,.24,.72,.05,.14c.52,1.47,2.72,1,2.56-.6-.01-.09-.03-.18-.06-.26l-.04-.12-.24-.71-.23-.71-.23-.71-.07-.23h0Zm5.67,14.59c-.27-.57-.87-.86-1.49-.73-.81,.17-1.27,1.1-.91,1.85l.06,.13,.32,.68,.32,.68,.33,.68,.12,.24c.12,.26,.33,.46,.59,.59,1.16,.56,2.33-.62,1.78-1.77l-.11-.23-.32-.66-.32-.66-.31-.67-.06-.13h0Zm7.51,13.73c-.79-1.24-2.76-.44-2.38,1.06,.04,.13,.09,.25,.16,.36l.34,.54,.41,.63,.41,.63,.29,.44c.83,1.23,2.75,.38,2.37-1.09-.04-.13-.1-.26-.17-.37l-.28-.43-.4-.61-.4-.61-.34-.54h0Zm9.22,12.66c-.89-1.08-2.69-.17-2.27,1.25,.06,.17,.13,.31,.24,.45l.19,.23,.48,.57,.48,.57,.49,.56,.09,.1c.2,.23,.49,.39,.79,.43,1.22,.18,2-1.25,1.2-2.17l-.08-.09-.48-.55-.47-.56-.47-.56-.19-.23h0Zm10.76,11.37c-.61-.56-1.59-.43-2.02,.28-.32,.54-.23,1.23,.23,1.66l.49,.46,.55,.5,.55,.5,.37,.33c1.18,1.02,2.86-.46,1.93-1.78-.06-.07-.11-.13-.18-.2l-.36-.32-.54-.49-.54-.49-.49-.46h0Zm12.13,9.91c-1.32-.9-2.79,.81-1.73,1.98,.07,.07,.13,.12,.2,.18l.26,.19,.61,.43,.61,.43,.62,.42,.09,.06c.35,.24,.81,.29,1.2,.14,1-.39,1.16-1.73,.28-2.33l-.08-.05-.6-.41-.6-.42-.6-.42-.26-.19h0Zm13.3,8.27c-.99-.52-2.12,.31-1.92,1.41,.09,.39,.31,.72,.67,.91h.03s.66,.37,.66,.37l.67,.35,.67,.34,.35,.18c1.35,.65,2.56-1.03,1.54-2.1-.11-.11-.21-.18-.35-.25l-.33-.17-.65-.34-.65-.34-.65-.34h-.03Zm14.25,6.47c-.52-.18-1.07-.06-1.44,.35-.62,.71-.36,1.77,.52,2.12l.57,.22,.71,.26,.71,.26,.5,.18c1.35,.48,2.42-1.27,1.28-2.26-.12-.1-.25-.17-.4-.23l-.49-.17-.7-.25-.7-.26-.57-.22h0Zm14.97,4.59c-1.29-.31-2.22,1.33-1.15,2.29,.17,.14,.34,.23,.56,.28l.63,.15,.75,.17,.75,.17,.46,.1c.39,.08,.77,0,1.08-.25,.88-.68,.56-2.11-.54-2.33l-.45-.1-.74-.16-.73-.17-.63-.15h0Zm15.44,2.61c-1.43-.14-2.05,1.81-.72,2.5,.15,.07,.28,.11,.45,.13l.2,.02,.78,.08,.78,.07,.79,.07h.11c.5,.04,.94-.18,1.21-.59,.54-.83-.02-1.97-1.01-2.03h-.09s-.77-.07-.77-.07l-.77-.07-.77-.08-.2-.02h0Zm15.65,.61c-.64,.02-1.16,.47-1.27,1.1-.14,.81,.51,1.56,1.34,1.54h.11s.8-.03,.8-.03l.8-.03,.8-.03h.17c1.58-.11,1.7-2.36,.13-2.63-.09-.01-.17-.02-.27-.01h-.15s-.78,.04-.78,.04l-.78,.03-.78,.02h-.11Zm15.59-1.38c-1.44,.24-1.49,2.29-.05,2.6,.16,.03,.31,.04,.47,0l.64-.1,.77-.12,.77-.13,.46-.08c.57-.09,1.02-.58,1.08-1.15,.09-.89-.67-1.59-1.54-1.45l-.44,.08-.75,.13-.75,.12-.64,.1h0Zm15.29-3.38c-1.26,.35-1.29,2.21,.09,2.56,.24,.04,.42,.04,.65-.02l.06-.02,.73-.22,.73-.22,.73-.23,.3-.09c1.33-.41,1.19-2.41-.29-2.57-.18-.01-.34,0-.51,.06l-.28,.09-.71,.22-.72,.22-.72,.21-.06,.02h0Zm14.72-5.33c-1.3,.56-.91,2.58,.61,2.53,.16-.01,.3-.04,.45-.11h0s.69-.31,.69-.31l.69-.31,.69-.31,.36-.17c1.33-.64,.79-2.62-.66-2.51-.16,.02-.31,.05-.45,.12l-.35,.16-.67,.31-.67,.3-.68,.3h0Zm13.9-7.18c-1.26,.78-.49,2.73,.98,2.41,.14-.04,.27-.08,.39-.16l.45-.27,.64-.39,.64-.39,.54-.34c1.19-.76,.52-2.62-.91-2.42-.18,.03-.34,.09-.5,.19l-.53,.33-.62,.39-.62,.38-.45,.27h0Zm12.87-8.92c-1.14,.9-.17,2.76,1.26,2.28,.14-.05,.26-.12,.38-.21l.16-.13,.58-.47,.58-.47,.58-.47,.18-.15c1.08-.89,.17-2.69-1.25-2.27-.17,.06-.31,.13-.45,.25l-.17,.14-.56,.46-.57,.46-.57,.46-.16,.13h0Zm11.62-10.49c-.42,.44-.5,1.13-.15,1.64,.47,.7,1.47,.8,2.05,.19l.4-.41,.52-.54,.51-.54,.41-.44c.87-.96,.01-2.46-1.26-2.19-.28,.07-.48,.18-.68,.39l-.4,.43-.5,.53-.5,.53-.4,.41h0Zm10.19-11.9c-.86,1.15,.5,2.69,1.78,1.9,.13-.09,.24-.19,.34-.32l.13-.17,.45-.6,.44-.6,.44-.6,.13-.18c.9-1.32-.81-2.79-1.98-1.73-.07,.07-.12,.12-.18,.2l-.12,.16-.43,.59-.43,.59-.44,.59-.13,.17h0Zm-.25-146.04c.14,.18,.32,.33,.53,.41,1.25,.53,2.39-.93,1.58-2.01l-.06-.08-.45-.59-.46-.59-.46-.59-.21-.26c-.9-1.14-2.76-.17-2.28,1.26,.05,.14,.12,.26,.21,.38l.2,.25,.45,.58,.45,.58,.44,.58,.06,.08h0Zm-10.22-11.86c.22,.22,.49,.35,.8,.39,1.22,.13,1.94-1.37,1.07-2.24l-.33-.34-.52-.53-.53-.52-.5-.49c-1.05-1-2.74,.15-2.1,1.54,.07,.13,.15,.24,.25,.35l.49,.48,.52,.51,.51,.52,.33,.34h0Zm-11.66-10.46c1.1,.87,2.65-.37,1.98-1.67-.09-.16-.2-.29-.34-.41l-.09-.07-.59-.46-.59-.46-.59-.45-.26-.19c-1.16-.87-2.73,.53-1.87,1.82,.09,.12,.17,.21,.29,.3l.24,.18,.58,.44,.58,.45,.58,.45,.09,.07h0Zm-12.9-8.87c1.3,.75,2.64-.88,1.66-2.01-.09-.1-.2-.19-.32-.26l-.46-.27-.65-.38-.65-.38-.55-.31c-1.21-.7-2.57,.77-1.7,1.95,.11,.14,.24,.25,.4,.34l.53,.3,.63,.37,.63,.37,.46,.27h0Zm-13.94-7.14c1.34,.57,2.5-1.15,1.42-2.18-.11-.1-.23-.18-.37-.24l-.29-.13-.7-.3-.7-.29-.7-.29-.08-.03c-1.38-.54-2.48,1.25-1.34,2.24,.11,.09,.22,.16,.35,.21l.06,.03,.68,.28,.68,.29,.68,.29,.29,.13h0Zm-14.74-5.28c1.49,.41,2.39-1.65,.97-2.44-.08-.04-.16-.07-.25-.1l-.26-.07-.74-.21-.74-.2-.74-.2-.1-.03c-1.5-.36-2.33,1.67-.94,2.45,.09,.05,.18,.08,.28,.11l.08,.02,.73,.19,.72,.2,.72,.2,.26,.07h0Zm-15.3-3.33c1.33,.18,2.07-1.47,.99-2.36-.19-.13-.37-.22-.61-.25l-.47-.07-.77-.11-.77-.11-.62-.08c-1.4-.19-2.09,1.72-.82,2.46,.15,.08,.31,.14,.48,.16l.6,.08,.76,.1,.76,.11,.47,.07Z"/>
      <path class="cls-12" d="M290.87,250.57c8.95,0,16.2,7.25,16.2,16.2s-7.25,16.2-16.2,16.2v2.71c10.44,0,18.91-8.47,18.91-18.91s-8.47-18.91-18.91-18.91v2.71Zm0,32.4c-8.95,0-16.2-7.25-16.2-16.2s7.25-16.2,16.2-16.2v-2.71c-10.44,0-18.91,8.47-18.91,18.91s8.47,18.91,18.91,18.91v-2.71Z"/>
      <circle class="cls-11" cx="290.87" cy="266.77" r="9.67" transform="translate(-103.44 283.81) rotate(-45)"/>
      <g>
        <path class="cls-34" d="M155.83,157.53h61.9c12.03,0,21.79,9.77,21.79,21.79v164.33c0,12.03-9.77,21.79-21.79,21.79h-61.9c-12.03,0-21.79-9.77-21.79-21.79V179.33c0-12.03,9.77-21.79,21.79-21.79Z"/>
        <rect class="cls-45" x="143.32" y="174.97" width="86.93" height="171.3" rx=".31" ry=".31"/>
        <rect class="cls-2" x="169.21" y="162.68" width="35.13" height="3.15" rx="1.58" ry="1.58"/>
        <path class="cls-3" d="M186.78,360.89c2.93,0,5.33-2.39,5.33-5.33s-2.39-5.33-5.33-5.33-5.33,2.39-5.33,5.33,2.39,5.33,5.33,5.33Z"/>
      </g>
      <g>
        <path class="cls-12" d="M273.33,158.81c15.99,0,29.03-13.04,29.03-29.03s-13.04-29.03-29.03-29.03-29.03,13.04-29.03,29.03,13.04,29.03,29.03,29.03Z"/>
        <g>
          <path class="cls-6" d="M280.83,145.94c-.66,.66-1.74,.66-2.4,0l-.61-.61c-.66-.66-1.96-1.2-2.9-1.2h-13.21c-.93,0-1.96-.72-2.27-1.6l-5.59-15.52c-.74-2.04,.44-3.72,2.61-3.72h10.99c.48-1.59,.21-2.87-.25-3.56-.68-1.02-2.53-2.91-2.19-5.73,.11-.93,.67-2.38,1.24-3.12,1.63-2.14,4.01-1.64,4.01,.28,0,2.28-1.21,4.56,3.08,7.37,4.29,2.82,7.22,8.33,7.22,8.34s.54,.57,1.2,1.23l7.25,7.25c.66,.66,.66,1.74,0,2.4l-8.19,8.19Z"/>
          <rect class="cls-6" x="280.19" y="142.54" width="13.73" height="3.14" transform="translate(-17.83 245.19) rotate(-45)"/>
        </g>
      </g>
      <g>
        <path class="cls-6" d="M74.79,130.4c.42,0,.84,.02,1.27,.07l.57-1.89,3.99,1.21-.57,1.89c1.45,.75,2.68,1.78,3.66,3.01l1.74-.93,1.96,3.68-1.74,.93c.47,1.49,.64,3.1,.46,4.71l1.89,.57-1.21,3.99-1.89-.57c-.75,1.45-1.78,2.68-3.01,3.66l.93,1.74-3.67,1.96-.93-1.74c-1.1,.35-2.26,.53-3.44,.53v-2.98c3.61,0,6.95-2.34,8.06-5.98,1.35-4.45-1.16-9.16-5.61-10.51-.82-.25-1.64-.37-2.45-.37v-2.98Zm-7.12,2.49l-.93-1.74,3.67-1.96,.93,1.74c1.1-.35,2.26-.53,3.44-.53v2.98c-3.61,0-6.96,2.34-8.06,5.98-1.35,4.45,1.16,9.16,5.61,10.51h0c.82,.25,1.64,.37,2.45,.37v2.98c-.42,0-.85-.02-1.27-.07l-.57,1.89-3.99-1.21,.57-1.89c-1.45-.75-2.68-1.78-3.66-3.01l-1.74,.93-1.96-3.67,1.74-.93c-.48-1.49-.64-3.1-.46-4.71l-1.89-.57,1.21-3.99,1.89,.57c.75-1.45,1.78-2.68,3.01-3.66Z"/>
        <path class="cls-6" d="M92.29,165.58l1.03,.87-2.15,2.56-1.03-.87c-.73,.56-1.54,.99-2.42,1.26l.12,1.34-2.44,.21v-3.77c1.52,0,2.99-.66,4-1.87,1.85-2.2,1.56-5.5-.64-7.35h0c-.54-.46-1.16-.79-1.83-1-.5-.15-1.01-.23-1.52-.23v-3.77l.88-.08,.12,1.34c.91,.12,1.79,.4,2.61,.82l.87-1.03,2.56,2.15-.87,1.03c.56,.73,.99,1.54,1.26,2.42l1.35-.12,.29,3.33-1.35,.12c-.12,.92-.39,1.79-.82,2.61Zm-6.9,5.38l-.89,.08-.12-1.34c-.91-.12-1.79-.4-2.61-.82l-.87,1.03-2.56-2.15,.87-1.03c-.56-.73-.99-1.54-1.26-2.42l-1.34,.12-.29-3.33,1.34-.12c.12-.91,.4-1.79,.82-2.61l-1.03-.87,2.15-2.56,1.03,.87c.73-.56,1.54-.99,2.42-1.26l-.12-1.35,2.44-.21v3.77c-1.52,0-2.99,.66-4,1.87-1.85,2.2-1.56,5.5,.64,7.35,.54,.46,1.16,.79,1.83,1,.5,.15,1.01,.23,1.52,.23v3.77Z"/>
      </g>
      <g>
        <path class="cls-12" d="M125.61,128.64c16.14,0,29.31-13.17,29.31-29.31s-13.17-29.31-29.31-29.31-29.31,13.17-29.31,29.31,13.17,29.31,29.31,29.31Z"/>
        <g>
          <polygon class="cls-26" points="144.97 91.47 125.61 105.45 106.24 91.47 125.61 77.49 144.97 91.47"/>
          <rect class="cls-43" x="111.53" y="79.95" width="28.15" height="34.38"/>
          <g>
            <rect class="cls-1" x="115.92" y="84.65" width="8.04" height="1.62"/>
            <rect class="cls-1" x="115.85" y="87.8" width="19.52" height="1.62"/>
            <rect class="cls-1" x="115.85" y="90.82" width="19.52" height="1.62"/>
            <rect class="cls-1" x="115.85" y="93.84" width="19.52" height="1.62"/>
            <rect class="cls-1" x="115.85" y="96.86" width="19.52" height="1.62"/>
            <rect class="cls-1" x="115.85" y="99.88" width="19.52" height="1.62"/>
            <rect class="cls-1" x="115.85" y="102.9" width="19.52" height="1.62"/>
          </g>
          <polygon class="cls-23" points="106.24 114.33 144.97 114.33 144.97 91.47 125.61 105.45 106.24 91.47 106.24 114.33"/>
          <polygon class="cls-14" points="106.24 114.33 144.97 114.33 129.14 102.9 122.07 102.9 122.07 102.9 106.24 114.33"/>
        </g>
      </g>
      <g>
        <circle class="cls-13" cx="206.16" cy="86.54" r="23.43" transform="translate(7.25 188.64) rotate(-49.94)"/>
        <path class="cls-11" d="M196.62,96.81c2.33,0,4.23-1.89,4.23-4.23h0v-13.71h13.57v9.79c-.49-.19-1.02-.3-1.57-.3-2.33,0-4.23,1.89-4.23,4.22s1.89,4.23,4.23,4.23,4.23-1.89,4.23-4.23c0,0,0,0,0,0h0v-19.02h-18.88v15.1c-.49-.19-1.02-.3-1.57-.3-2.33,0-4.23,1.89-4.23,4.22s1.89,4.23,4.23,4.23Z"/>
      </g>
      <g>
        <path class="cls-16" d="M59.98,216.69c11.92,0,21.63-9.72,21.63-21.63s-9.72-21.63-21.63-21.63-21.63,9.72-21.63,21.63,9.72,21.63,21.63,21.63Z"/>
        <g>
          <path class="cls-6" d="M59.97,182.77c-7.52,.04-13.64,6.18-13.64,13.7,0,2.28,.57,4.53,1.66,6.53v-3.62c0-.67,.24-1.29,.65-1.82-.03-.36-.05-.73-.05-1.09,0-6.28,5.11-11.41,11.38-11.44,6.28,.03,11.39,5.16,11.39,11.44,0,.4-.02,.81-.07,1.21,.36,.5,.57,1.08,.57,1.7v3.81c1.15-2.04,1.76-4.36,1.76-6.71,0-7.52-6.12-13.67-13.65-13.7Z"/>
          <path class="cls-6" d="M48.83,198.79c-.06,.19-.09,.38-.09,.59v5.12c0,1.58,1.88,2.86,4.2,2.86h1.77v-10.83h-1.77c-2.03,0-3.72,.98-4.11,2.27Z"/>
          <path class="cls-6" d="M71.11,204.49v-5.12c0-.12-.01-.24-.04-.36-.26-1.41-2.03-2.5-4.16-2.5h-1.77v10.83h1.77c2.32,0,4.2-1.28,4.2-2.86Z"/>
        </g>
      </g>
      <g>
        <circle class="cls-40" cx="309.35" cy="202.08" r="21.97" transform="translate(-56.81 251.64) rotate(-40.86)"/>
        <g>
          <rect class="cls-6" x="314.98" y="190.99" width="3" height="6.67"/>
          <rect class="cls-6" x="314.98" y="201.28" width="3" height="11.88"/>
          <rect class="cls-6" x="307.85" y="190.99" width="3" height="12.35"/>
          <rect class="cls-6" x="307.85" y="206.97" width="3" height="6.19"/>
          <rect class="cls-6" x="300.73" y="190.99" width="3" height="2.04"/>
          <rect class="cls-6" x="300.73" y="196.66" width="3" height="16.5"/>
          <polygon class="cls-6" points="299.48 193.66 299.48 196.03 300.73 196.03 303.73 196.03 304.98 196.03 304.98 193.66 303.73 193.66 300.73 193.66 299.48 193.66"/>
          <polygon class="cls-6" points="306.6 203.97 306.6 206.35 307.85 206.35 310.85 206.35 312.1 206.35 312.1 203.97 310.85 203.97 307.85 203.97 306.6 203.97"/>
          <polygon class="cls-6" points="314.98 198.28 313.73 198.28 313.73 200.66 314.98 200.66 317.98 200.66 319.23 200.66 319.23 198.28 317.98 198.28 314.98 198.28"/>
        </g>
      </g>
      <g>
        <path class="cls-7" d="M106.92,251.04h1.54c4.43,0,4.62-5.01,0-5.02h-1.54s0,.4,0,.4c1.16,0,2.1,.94,2.1,2.1s-.94,2.1-2.1,2.1v.41Zm-36.46,0h36.46v-.41c-1.16,0-2.1-.94-2.1-2.1s.94-2.1,2.1-2.1v-.4c-12.15-.02-24.31-.02-36.46,0v.4c1.16,0,2.1,.94,2.1,2.1s-.94,2.1-2.1,2.1v.41Zm-1.54,0h1.54v-.41c-1.16,0-2.1-.94-2.1-2.1s.94-2.1,2.1-2.1v-.4h-1.54c-4.62,0-4.43,5.02,0,5.02Z"/>
        <path class="cls-7" d="M91.48,228.89c-1.16,0-2.1,.94-2.1,2.1s.94,2.1,2.1,2.1,2.1-.94,2.1-2.1-.94-2.1-2.1-2.1Z"/>
        <path class="cls-7" d="M107.74,247.96l-14.36-16.06c-.33-.37-.91-.4-1.28-.07h0c-.37,.33-.4,.91-.07,1.28l14.36,16.06c.33,.37,.91,.4,1.28,.07h0c.37-.33,.4-.91,.07-1.28Z"/>
        <path class="cls-7" d="M85.9,228.89c1.16,0,2.1,.94,2.1,2.1s-.94,2.1-2.1,2.1-2.1-.94-2.1-2.1,.94-2.1,2.1-2.1Z"/>
        <path class="cls-7" d="M69.64,247.96l15.66-17.51c.33-.37,.91-.4,1.28-.07h0c.37,.33,.4,.91,.07,1.28l-15.66,17.51c-.33,.37-.91,.4-1.28,.07h0c-.37-.33-.4-.91-.07-1.28Z"/>
        <path class="cls-7" d="M100.85,252.53h7.35l-1.92,11.09c-.41,2.39-1.58,4.18-5.25,4.18h-.18v-3.34c.52-.26,.93-.78,1.01-1.37,.17-1.26,.35-2.53,.52-3.79,.17-1.26,.35-2.53,.52-3.8,.12-.85-.54-1.54-1.47-1.54h0c-.2,0-.4,.03-.59,.09v-1.51Zm-6.05,0h6.05v1.51c-.67,.22-1.19,.79-1.26,1.45-.13,1.27-.27,2.53-.4,3.8-.13,1.26-.27,2.53-.4,3.79-.09,.85,.52,1.54,1.35,1.54h0c.25,0,.49-.06,.71-.17v3.34h-6.05v-3.22c.66-.17,1.18-.78,1.24-1.49,.1-1.26,.2-2.53,.29-3.79,.09-1.26,.2-2.53,.29-3.8,.06-.85-.63-1.54-1.56-1.54h0c-.09,0-.18,0-.27,.02v-1.44Zm-6.11,0h6.11v1.44c-.8,.12-1.45,.76-1.48,1.53-.06,1.27-.12,2.53-.17,3.8-.06,1.26-.12,2.53-.17,3.79-.04,.85,.61,1.54,1.44,1.54h0c.13,0,.26-.02,.38-.05v3.22h-6.11v-3.17c.83,0,1.52-.69,1.53-1.54,.02-1.26,.04-2.53,.06-3.79,.02-1.26,.04-2.53,.06-3.8,.01-.85-.73-1.54-1.65-1.54h0v-1.42Zm-6.11,0h6.11v1.42c-.92,0-1.67,.7-1.65,1.54,.02,1.27,.04,2.53,.06,3.8,.02,1.26,.04,2.53,.06,3.79,.01,.85,.71,1.54,1.53,1.54h0v3.17h-6.11v-3.22c.12,.03,.25,.05,.39,.05h0c.83,0,1.47-.69,1.44-1.54-.06-1.26-.11-2.53-.17-3.79-.06-1.26-.12-2.53-.17-3.8-.03-.77-.68-1.41-1.49-1.53v-1.44Zm-6.05,0h6.05v1.44c-.09-.01-.17-.02-.26-.02h0c-.92,0-1.63,.7-1.56,1.54,.1,1.27,.19,2.53,.29,3.8,.1,1.26,.19,2.53,.29,3.79,.05,.72,.58,1.32,1.24,1.49v3.22h-6.05v-3.34c.22,.11,.46,.17,.71,.17h0c.83,0,1.43-.69,1.34-1.54-.13-1.26-.26-2.53-.4-3.79-.13-1.26-.27-2.53-.4-3.8-.07-.66-.59-1.23-1.25-1.45v-1.51Zm-.17,15.27c-3.66,0-4.83-1.8-5.25-4.18l-1.93-11.09h7.35v1.51c-.19-.06-.38-.09-.58-.09h0c-.92,0-1.58,.7-1.47,1.54,.17,1.27,.35,2.53,.52,3.8,.17,1.26,.35,2.53,.52,3.79,.08,.6,.49,1.12,1.01,1.37v3.34h-.17Z"/>
      </g>
      <g>
        <path class="cls-20" d="M282.51,288.86l2.52,13.24c.34,1.81,3.71,10.18,5.54,10,1.83-.19,1.64-7.64,1.26-9.44l-2.43-9.83c-1.4-5.64-7.17-5.42-6.89-3.96Z"/>
        <path class="cls-29" d="M294.44,267.97l-.29,16.55c1.63-2.27,5.61-.91,5.9,2.08,1.35-2.56,5.2-1.58,6,1.07,1.63-2.15,5.55-.63,5.51,2.43l-.2,14.05c-.29,20.71-23.58,14.86-23.58,2.78l.06-39.15c0-4.95,6.72-3.89,6.6,.18Z"/>
        <path class="cls-20" d="M306.18,292.6s.09-2.79,.17-5.26c-.11,.1-.21,.21-.31,.34-.07-.23-.16-.45-.28-.66,.17,2.52,.42,5.58,.42,5.58h0Zm-11.99-8.14c.15-.2,.32-.37,.5-.51-.09,2.77-.35,7.51-.35,7.51,0,0-.2-4.87-.2-6.94,0,.03,.02,0,.05-.06h0Zm5.51,.95c.18,.36,.3,.76,.34,1.19,.09-.17,.19-.32,.3-.46-.06,2.74-.14,6.13-.14,6.13,0,0-.35-4.23-.5-6.86Z"/>
      </g>
      <g>
        <rect class="cls-6" x="47.36" y="292.73" width="77.48" height="13.09"/>
        <rect class="cls-40" x="109.52" y="292.73" width="15.32" height="13.09"/>
        <path class="cls-6" d="M118.78,300.17c.81-1.3,.65-3.02-.48-4.15-.67-.67-1.56-1-2.44-.98v1.16c1.22,0,2.21,.99,2.21,2.21s-.99,2.21-2.21,2.21v1.14c.64,.01,1.28-.16,1.84-.5l2.39,2.39,1.09-1.09-2.39-2.39Zm-2.92-5.14c-.84,.02-1.67,.34-2.32,.98-1.31,1.31-1.31,3.44,0,4.76,.64,.64,1.48,.97,2.32,.98v-1.14h0c-1.22,0-2.21-.99-2.21-2.21s.99-2.21,2.21-2.21h0v-1.16Z"/>
      </g>
      <polygon class="cls-14" points="230.25 175.27 143.62 346.27 143.32 175.27 230.25 175.27"/>
    </g>
    <g>
      <path class="cls-45" d="M99.08,539.01c1.17,0,2.35,.07,3.54,.2l1.6-5.27,11.1,3.38-1.6,5.27c4.03,2.08,7.47,4.96,10.2,8.38l4.85-2.59,5.46,10.24-4.85,2.59c1.32,4.16,1.79,8.63,1.28,13.14l5.26,1.6-3.38,11.1-5.26-1.6c-2.09,4.03-4.96,7.47-8.38,10.2l2.59,4.85-10.24,5.46-2.59-4.85c-3.07,.97-6.3,1.49-9.6,1.49v-8.31c10.07,0,19.38-6.52,22.46-16.65,3.77-12.4-3.23-25.51-15.63-29.28-2.27-.69-4.57-1.02-6.83-1.02v-8.31Zm-19.84,6.95l-2.59-4.85,10.24-5.46,2.59,4.85c3.07-.97,6.3-1.49,9.6-1.49v8.31c-10.07,0-19.38,6.52-22.46,16.65-3.77,12.4,3.23,25.51,15.63,29.28h0c2.27,.69,4.57,1.02,6.83,1.02v8.31c-1.17,0-2.36-.07-3.54-.2l-1.6,5.26-11.1-3.38,1.6-5.26c-4.03-2.08-7.47-4.96-10.2-8.38l-4.86,2.59-5.46-10.24,4.85-2.59c-1.32-4.16-1.79-8.63-1.28-13.13l-5.26-1.6,3.38-11.11,5.26,1.6c2.09-4.03,4.96-7.47,8.38-10.2Z"/>
      <path class="cls-45" d="M314.79,599.21c1.6,0,3.2,.09,4.81,.27l2.18-7.16,15.11,4.59-2.18,7.17c5.48,2.83,10.17,6.75,13.88,11.4l6.6-3.52,7.44,13.93-6.6,3.52c1.8,5.67,2.44,11.74,1.75,17.87l7.16,2.18-4.59,15.11-7.16-2.18c-2.84,5.48-6.75,10.17-11.4,13.88l3.52,6.61-13.93,7.44-3.52-6.6c-4.18,1.33-8.58,2.02-13.06,2.02v-11.32c13.7,0,26.37-8.87,30.56-22.66,5.13-16.88-4.39-34.72-21.27-39.85-3.09-.94-6.22-1.39-9.29-1.39v-11.31Zm-27,9.46l-3.52-6.6,13.93-7.44,3.53,6.6c4.18-1.33,8.58-2.02,13.06-2.02v11.31c-13.7,0-26.37,8.87-30.56,22.66-5.13,16.88,4.39,34.72,21.27,39.85h0c3.09,.94,6.22,1.39,9.29,1.39v11.32c-1.6,0-3.2-.09-4.82-.27l-2.18,7.17-15.11-4.59,2.18-7.17c-5.48-2.84-10.17-6.75-13.88-11.4l-6.61,3.52-7.44-13.93,6.6-3.53c-1.8-5.66-2.44-11.74-1.75-17.87l-7.16-2.18,4.59-15.11,7.16,2.18c2.84-5.48,6.75-10.17,11.4-13.88Z"/>
      <g>
        <g>
          <rect class="cls-9" x="89.7" y="562.95" width="210.89" height="138.6" rx="7.29" ry="7.29"/>
          <rect class="cls-33" x="100.64" y="577.42" width="189" height="101.46"/>
          <path class="cls-28" d="M195.14,573.1c1.47,0,2.65-1.19,2.65-2.65s-1.19-2.65-2.65-2.65-2.65,1.19-2.65,2.65,1.19,2.65,2.65,2.65Z"/>
          <rect class="cls-35" x="190.66" y="685.21" width="8.97" height="8.97"/>
          <polygon class="cls-28" points="89.7 701.56 300.59 701.56 337.21 717.14 53.07 717.14 89.7 701.56"/>
          <path class="cls-10" d="M53.07,717.14H337.21v4.09c0,2.9-2.37,5.27-5.27,5.27H58.34c-2.9,0-5.27-2.37-5.27-5.27v-4.09Z"/>
          <rect class="cls-33" x="166.44" y="720.02" width="57.4" height="3.66"/>
        </g>
        <g>
          <path class="cls-7" d="M94.76,702.8h19.71c-1.01,.61-2,1.21-2.98,1.81h-20.43c1.23-.6,2.46-1.21,3.7-1.81Z"/>
          <path class="cls-7" d="M130.91,702.8h19.71c-.54,.61-1.08,1.21-1.63,1.81h-20.45c.79-.6,1.58-1.21,2.36-1.81Z"/>
          <path class="cls-7" d="M167.05,702.8h19.74c-.07,.61-.17,1.21-.27,1.81h-20.48c.34-.6,.69-1.21,1.01-1.81Z"/>
          <path class="cls-7" d="M203.22,702.8h19.74c.35,.61,.71,1.21,1.06,1.81h-20.48c-.1-.6-.2-1.21-.32-1.81Z"/>
          <path class="cls-7" d="M239.39,702.8h19.71c.81,.61,1.63,1.21,2.42,1.81h-20.45c-.54-.6-1.11-1.21-1.68-1.81Z"/>
          <path class="cls-7" d="M275.57,702.8h19.74c1.26,.61,2.51,1.21,3.75,1.81h-20.48c-.99-.6-2-1.21-3.01-1.81Z"/>
          <path class="cls-7" d="M88.4,705.93h20.97c-.99,.6-2,1.21-2.98,1.81h-21.68c1.21-.6,2.46-1.21,3.7-1.81Z"/>
          <path class="cls-7" d="M126.87,705.93h20.97c-.54,.6-1.11,1.21-1.63,1.81h-21.71c.76-.6,1.58-1.21,2.37-1.81Z"/>
          <path class="cls-7" d="M165.33,705.93h20.99c-.1,.6-.2,1.21-.3,1.81h-21.73c.35-.6,.69-1.21,1.04-1.81Z"/>
          <path class="cls-7" d="M203.79,705.93h20.99c.34,.6,.69,1.21,1.06,1.81h-21.73c-.12-.6-.22-1.21-.32-1.81Z"/>
          <path class="cls-7" d="M242.28,705.93h20.97c.79,.6,1.6,1.21,2.39,1.81h-21.71c-.54-.6-1.11-1.21-1.65-1.81Z"/>
          <path class="cls-7" d="M280.74,705.93h21.02c1.23,.6,2.49,1.21,3.72,1.81h-21.73c-.99-.6-2-1.21-3.01-1.81Z"/>
          <path class="cls-7" d="M82.02,709.05h22.23c-1.01,.61-1.97,1.21-2.98,1.81h-22.94c1.23-.6,2.44-1.21,3.7-1.81Z"/>
          <path class="cls-7" d="M122.78,709.05h22.25c-.57,.61-1.08,1.21-1.63,1.81h-22.96c.79-.6,1.55-1.21,2.34-1.81Z"/>
          <path class="cls-7" d="M163.55,709.05h22.27c-.12,.61-.2,1.21-.3,1.81h-22.99c.34-.6,.67-1.21,1.01-1.81Z"/>
          <path class="cls-7" d="M204.33,709.05h22.27c.32,.61,.69,1.21,1.04,1.81h-22.99c-.1-.6-.22-1.21-.32-1.81Z"/>
          <path class="cls-7" d="M245.14,709.05h22.25c.76,.61,1.58,1.21,2.37,1.81h-22.96c-.54-.6-1.11-1.21-1.65-1.81Z"/>
          <path class="cls-7" d="M285.91,709.05h22.27c1.23,.61,2.49,1.21,3.72,1.81h-22.99c-.99-.6-2.02-1.21-3.01-1.81Z"/>
          <path class="cls-7" d="M75.66,712.18h238.95c1.26,.61,2.49,1.21,3.72,1.81H71.94c1.26-.6,2.49-1.21,3.72-1.81Z"/>
        </g>
      </g>
      <polygon class="cls-30" points="289.64 577.42 100.64 678.89 289.64 678.89 289.64 577.42"/>
      <g>
        <path class="cls-46" d="M195.87,527.45c1.6,0,3.2,.09,4.81,.27l2.18-7.17,15.11,4.59-2.18,7.17c5.48,2.83,10.17,6.75,13.88,11.4l6.6-3.52,7.44,13.93-6.6,3.52c1.8,5.67,2.44,11.74,1.75,17.87l7.16,2.18-4.59,15.11-7.16-2.18c-2.84,5.48-6.75,10.17-11.4,13.88l3.52,6.61-13.93,7.44-3.52-6.6c-4.18,1.33-8.58,2.02-13.06,2.02v-11.32c13.7,0,26.37-8.87,30.56-22.66,5.13-16.88-4.39-34.72-21.27-39.85-3.09-.94-6.22-1.39-9.29-1.39v-11.31Zm-27,9.46l-3.52-6.6,13.93-7.44,3.53,6.6c4.18-1.33,8.58-2.02,13.06-2.02v11.31c-13.7,0-26.37,8.87-30.56,22.66-5.13,16.88,4.39,34.72,21.27,39.85h0c3.09,.94,6.22,1.39,9.29,1.39v11.32c-1.6,0-3.2-.09-4.82-.27l-2.18,7.16-15.11-4.59,2.18-7.17c-5.48-2.84-10.17-6.75-13.88-11.4l-6.61,3.52-7.43-13.93,6.6-3.53c-1.8-5.66-2.44-11.74-1.75-17.87l-7.16-2.18,4.59-15.11,7.16,2.18c2.84-5.48,6.75-10.17,11.4-13.88Z"/>
        <path class="cls-4" d="M162.45,648.57l3.92,3.29-8.15,9.71-3.92-3.29c-2.77,2.14-5.85,3.75-9.19,4.79l.44,5.1-9.27,.81v-14.29c5.75,0,11.33-2.51,15.16-7.07,7.01-8.36,5.92-20.86-2.44-27.88h0c-2.06-1.73-4.4-3-6.95-3.78-1.9-.58-3.85-.86-5.77-.86v-14.29l3.35-.29,.45,5.1c3.44,.45,6.8,1.51,9.88,3.12l3.29-3.92,9.71,8.14-3.29,3.92c2.14,2.77,3.74,5.85,4.78,9.19l5.1-.45,1.1,12.62-5.1,.44c-.44,3.47-1.49,6.79-3.11,9.88Zm-26.16,20.4l-3.36,.29-.45-5.1c-3.44-.45-6.8-1.5-9.88-3.12l-3.29,3.92-9.71-8.14,3.29-3.92c-2.14-2.77-3.75-5.85-4.79-9.19l-5.1,.45-1.1-12.62,5.1-.45c.45-3.47,1.5-6.78,3.12-9.88l-3.92-3.29,8.14-9.71,3.92,3.29c2.77-2.14,5.85-3.74,9.19-4.78l-.45-5.1,9.27-.81v14.29c-5.75,0-11.33,2.51-15.16,7.07-7.01,8.36-5.92,20.86,2.44,27.88,2.06,1.73,4.4,3,6.95,3.78,1.9,.58,3.85,.86,5.77,.86v14.29Z"/>
      </g>
      <g>
        <path class="cls-8" d="M262.09,670.82c11.13,0,20.2-9.08,20.2-20.2s-9.08-20.2-20.2-20.2-20.2,9.08-20.2,20.2,9.08,20.2,20.2,20.2Z"/>
        <g>
          <path class="cls-12" d="M262.09,632.36c10.09,0,18.27,8.18,18.27,18.27s-8.18,18.27-18.27,18.27v4.19c12.4,0,22.45-10.05,22.45-22.45s-10.05-22.45-22.45-22.45v4.19Zm0,0h0v-4.19h0c-12.4,0-22.45,10.05-22.45,22.45s10.05,22.45,22.45,22.45h0v-4.19h0c-10.09,0-18.27-8.18-18.27-18.27s8.18-18.27,18.27-18.27Z"/>
          <rect class="cls-11" x="261.04" y="637.32" width="2.1" height="13.3" rx="1.05" ry="1.05"/>
          <path class="cls-12" d="M253.71,643.15h0c.38-.43,1.05-.47,1.48-.08l6.81,6.08c.43,.38,.47,1.05,.08,1.48h0c-.38,.43-1.05,.47-1.48,.08l-6.81-6.08c-.43-.38-.47-1.05-.08-1.48Z"/>
          <circle class="cls-11" cx="262.09" cy="635.08" r="1.16"/>
          <path class="cls-12" d="M279.4,651.07c0,.64-.52,1.16-1.16,1.16s-1.16-.52-1.16-1.16,.52-1.16,1.16-1.16,1.16,.52,1.16,1.16Z"/>
          <path class="cls-12" d="M262.24,668.38c-.64,0-1.16-.52-1.16-1.16s.52-1.16,1.16-1.16,1.16,.52,1.16,1.16-.52,1.16-1.16,1.16Z"/>
          <path class="cls-12" d="M244.94,651.23c0-.64,.52-1.16,1.16-1.16s1.16,.52,1.16,1.16-.52,1.16-1.16,1.16-1.16-.52-1.16-1.16Z"/>
          <path class="cls-12" d="M262.09,653.33c1.49,0,2.71-1.22,2.71-2.71s-1.22-2.71-2.71-2.71-2.71,1.22-2.71,2.71,1.22,2.71,2.71,2.71Z"/>
        </g>
      </g>
      <g>
        <path class="cls-7" d="M279.58,489.45c7.93,1.62,13.86,7.66,13.86,14.8h0c0,7.34-6.15,14.93-14.53,14.93h-36.85c-8.97,0-15.89-7.19-15.89-14.93h0c0-7.14,5.93-13.18,13.86-14.8,0-.14,0-.29,0-.43,0-9.18,8.85-16.62,19.78-16.62s19.78,7.44,19.78,16.62c0,.14,0,.29,0,.43Z"/>
        <path class="cls-21" d="M250.08,483.4c5.54,1.14,9.69,5.35,9.69,10.34h0c0,5.13-4.3,10.43-10.15,10.43h-25.75c-6.27,0-11.1-5.02-11.1-10.43h0c0-4.99,4.14-9.21,9.69-10.34,0-.1,0-.2,0-.3,0-6.41,6.19-11.61,13.82-11.61s13.82,5.2,13.82,11.61c0,.1,0,.2,0,.3Z"/>
      </g>
      <path class="cls-45" d="M60.72,604.52c.71,0,1.43,.04,2.14,.12l.97-3.19,6.73,2.05-.97,3.19c2.44,1.26,4.53,3.01,6.18,5.08l2.94-1.57,3.31,6.21-2.94,1.57c.8,2.53,1.09,5.23,.78,7.97l3.19,.97-2.05,6.73-3.19-.97c-1.27,2.44-3.01,4.53-5.08,6.18l1.57,2.94-6.21,3.31-1.57-2.94c-1.86,.59-3.82,.9-5.82,.9v-5.04c6.1,0,11.75-3.95,13.62-10.1,2.29-7.52-1.96-15.47-9.48-17.76-1.38-.42-2.77-.62-4.14-.62v-5.04Zm-12.03,4.21l-1.57-2.94,6.21-3.31,1.57,2.94c1.86-.59,3.82-.9,5.82-.9v5.04c-6.11,0-11.75,3.95-13.62,10.1-2.29,7.52,1.96,15.47,9.48,17.76h0c1.38,.42,2.77,.62,4.14,.62v5.04c-.71,0-1.43-.04-2.15-.12l-.97,3.19-6.73-2.05,.97-3.19c-2.44-1.26-4.53-3.01-6.18-5.08l-2.94,1.57-3.31-6.21,2.94-1.57c-.8-2.52-1.09-5.23-.78-7.96l-3.19-.97,2.05-6.73,3.19,.97c1.26-2.44,3.01-4.53,5.08-6.18Z"/>
      <g>
        <path class="cls-39" d="M212.14,639.91c.26-.03,.47-.1,.68-.25,1.13-.83,.49-2.57-.9-2.48h-.13s-.53,.05-.53,.05l-.53,.03-.52,.03-.51,.02h-.41c-.28,0-.56,.1-.79,.27-1.07,.79-.52,2.47,.81,2.47h.45s.55-.03,.55-.03l.56-.03,.56-.04,.57-.04h.13Z"/>
        <path class="cls-39" d="M228.4,636.1c1.45-.52,1.09-2.66-.47-2.66-.15,0-.29,.03-.43,.08l-.29,.1-.69,.24-.68,.23-.68,.22-.22,.07c-1.42,.44-1.21,2.56,.34,2.67,.17,0,.32-.01,.47-.06l.24-.08,.7-.23,.7-.24,.71-.24,.29-.1Z"/>
        <path class="cls-39" d="M243.6,629.52c1.45-.75,.63-2.94-.97-2.54-.09,.03-.17,.06-.26,.1l-.55,.28-.77,.38-.76,.37-.35,.17c-1.37,.66-.79,2.75,.75,2.59,.16-.02,.29-.06,.43-.13l.37-.18,.78-.38,.78-.39,.55-.28Z"/>
        <path class="cls-39" d="M257.96,621.35c1.25-.8,.53-2.72-.93-2.51-.2,.04-.35,.09-.52,.19l-.43,.27-.81,.5-.81,.5-.25,.15c-1.35,.83-.46,2.92,1.12,2.47,.11-.04,.2-.08,.3-.13l.27-.16,.82-.5,.82-.51,.43-.27Z"/>
        <path class="cls-39" d="M271.57,612.03c.48-.36,.68-.97,.49-1.53-.28-.88-1.37-1.22-2.11-.67l-.75,.55-.83,.6-.62,.45c-1.14,.85-.44,2.61,.97,2.46,.23-.03,.44-.11,.63-.25l.63-.46,.84-.61,.75-.55Z"/>
        <path class="cls-39" d="M284.46,601.74c1.2-1.05-.04-2.99-1.53-2.24-.09,.05-.16,.1-.24,.17l-.27,.23-.82,.7-.82,.69-.15,.13c-1.13,.93-.18,2.79,1.29,2.35,.18-.06,.32-.13,.46-.25l.16-.14,.83-.7,.83-.71,.27-.23Z"/>
        <path class="cls-39" d="M296.59,590.57c1.12-1.12-.23-2.95-1.66-2.15-.1,.06-.17,.12-.26,.2l-.12,.12-.8,.78-.8,.78-.23,.22c-.41,.39-.53,.99-.32,1.51,.37,.88,1.51,1.13,2.21,.46l.24-.23,.81-.79,.81-.79,.12-.12Z"/>
        <path class="cls-39" d="M307.92,578.59c.22-.25,.34-.56,.34-.89,0-1.27-1.54-1.86-2.39-.92l-.43,.49-.76,.85-.62,.69c-.97,1.07,.19,2.75,1.57,2.17,.18-.08,.32-.18,.46-.33l.63-.7,.77-.86,.43-.49Z"/>
        <path class="cls-39" d="M318.35,565.82c.91-1.21-.52-2.79-1.83-1.98-.13,.09-.25,.19-.34,.32l-.51,.68-.7,.92-.43,.56c-.93,1.24,.53,2.79,1.81,2,.14-.09,.24-.18,.35-.32l.44-.57,.71-.93,.51-.68Z"/>
        <path class="cls-39" d="M327.77,552.27c.38-.6,.25-1.38-.31-1.82-.63-.49-1.56-.33-1.99,.34l-.47,.74-.63,.98-.37,.56c-.22,.33-.28,.76-.17,1.14,.34,1.12,1.79,1.33,2.45,.37l.38-.57,.64-.99,.48-.74Z"/>
        <path class="cls-39" d="M336.02,537.96c.7-1.35-.99-2.67-2.14-1.63-.11,.11-.21,.23-.28,.37l-.38,.73-.55,1.03-.34,.64c-.67,1.29,.81,2.59,2,1.76,.17-.13,.31-.27,.41-.46l.35-.65,.55-1.05,.38-.73Z"/>
        <path class="cls-39" d="M342.91,522.94c.31-.8-.15-1.67-.99-1.85-.64-.13-1.31,.21-1.55,.82l-.27,.67-.44,1.08-.32,.76c-.57,1.34,1.12,2.55,2.21,1.51,.14-.14,.23-.27,.31-.45l.32-.77,.45-1.1,.27-.67Z"/>
        <path class="cls-39" d="M348.23,507.29c.43-1.54-1.7-2.47-2.53-1-.04,.08-.08,.17-.1,.26l-.16,.56-.32,1.13-.27,.91c-.42,1.36,1.33,2.41,2.34,1.29,.13-.15,.22-.31,.28-.5l.28-.93,.33-1.15,.16-.56Z"/>
        <path class="cls-39" d="M351.76,491.12c.23-1.4-1.63-2.2-2.49-.97-.11,.18-.18,.33-.21,.54l-.05,.35-.19,1.16-.2,1.16c-.25,1.52,1.79,2.24,2.55,.89,.07-.14,.12-.26,.14-.41l.2-1.18,.19-1.19,.05-.35Z"/>
        <polygon class="cls-39" points="340.44 485.98 353.23 468.26 361.34 488.55 340.44 485.98"/>
        <path class="cls-39" d="M196.35,631.62c-.66-1.27-2.63-.77-2.57,.7,.02,.22,.06,.38,.16,.58l.21,.38,.22,.37,.23,.36,.24,.35,.26,.34,.27,.33,.28,.32,.06,.07c.99,1.09,2.82,.04,2.28-1.43-.06-.15-.14-.28-.25-.4l-.06-.07-.21-.24-.2-.25-.2-.26-.19-.27-.18-.28-.17-.29-.16-.29Z"/>
      </g>
      <g>
        <path class="cls-39" d="M214.36,632.64c1.44-.4,1.29-2.51-.24-2.68-.17-.01-.32,0-.48,.04l-.59,.17-.64,.17-.63,.16-.63,.15-.1,.02c-1.51,.37-1.37,2.53,.18,2.69,.15,.01,.27,0,.42-.03l.13-.03,.66-.16,.66-.17,.67-.18,.59-.16Z"/>
        <path class="cls-39" d="M229.79,626.38c1.44-.75,.63-2.94-.98-2.54-.09,.03-.18,.06-.26,.1l-.43,.22-.72,.36-.72,.35-.55,.26c-1.35,.65-.83,2.71,.71,2.59,.17-.02,.32-.06,.47-.13l.57-.27,.74-.36,.74-.37,.43-.22Z"/>
        <path class="cls-39" d="M244.01,617.91c1.16-.79,.53-2.6-.87-2.5-.25,.03-.45,.09-.66,.23l-.23,.16-.76,.51-.76,.5-.51,.33c-1.19,.76-.55,2.66,.91,2.5,.22-.03,.39-.09,.58-.21l.52-.34,.77-.51,.77-.52,.23-.16Z"/>
        <path class="cls-39" d="M257.26,608.05c.39-.33,.57-.81,.48-1.31-.19-1.01-1.41-1.46-2.2-.81l-.25,.2-.77,.62-.77,.62-.33,.26c-1.21,.96-.14,2.9,1.33,2.35,.13-.05,.25-.12,.36-.2l.34-.27,.78-.62,.78-.63,.25-.2Z"/>
        <path class="cls-39" d="M269.62,597.12c.99-.95,.12-2.62-1.24-2.32-.25,.07-.45,.16-.64,.34l-.24,.23-.75,.72-.76,.71-.22,.2c-1.07,1.02-.03,2.76,1.38,2.29,.18-.07,.33-.15,.47-.29l.23-.21,.77-.72,.76-.72,.24-.23Z"/>
        <path class="cls-39" d="M281.12,585.3c1.03-1.13-.31-2.88-1.7-2.1-.12,.07-.22,.15-.32,.26l-.51,.56-.72,.79-.6,.65c-.99,1.09,.18,2.76,1.56,2.18,.18-.08,.31-.17,.45-.32l.61-.66,.73-.8,.51-.56Z"/>
        <path class="cls-39" d="M291.73,572.67c.73-.98-.02-2.33-1.23-2.2-.38,.05-.68,.21-.92,.51l-.51,.65-.67,.85-.5,.63c-.97,1.23,.56,2.87,1.86,1.97,.11-.07,.19-.16,.27-.26l.51-.64,.68-.87,.51-.65Z"/>
        <path class="cls-39" d="M301.34,559.26c.29-.43,.29-.96,.06-1.41-.51-.9-1.76-.96-2.34-.1l-.41,.63-.61,.91-.49,.72c-.83,1.22,.61,2.76,1.93,1.88,.13-.1,.24-.21,.33-.34l.5-.74,.61-.92,.41-.63Z"/>
        <path class="cls-39" d="M309.82,545.09c.72-1.33-.94-2.68-2.11-1.67-.12,.11-.22,.23-.29,.37l-.35,.64-.52,.95-.44,.79c-.69,1.2,.7,2.59,1.94,1.81,.19-.13,.33-.27,.45-.48l.45-.8,.53-.96,.35-.64Z"/>
        <path class="cls-39" d="M316.94,530.18c.57-1.33-1.11-2.55-2.22-1.5-.13,.13-.23,.27-.3,.44l-.36,.85-.42,.98-.29,.67c-.25,.58-.08,1.24,.41,1.63,.69,.54,1.74,.28,2.09-.53l.3-.68,.42-.99,.36-.85Z"/>
        <path class="cls-39" d="M322.38,514.54c.39-1.43-1.44-2.37-2.38-1.23-.12,.15-.2,.3-.25,.49l-.11,.39-.29,.99-.29,.99-.07,.22c-.45,1.45,1.48,2.46,2.42,1.2,.08-.12,.15-.25,.19-.39l.07-.24,.3-1.01,.29-1.02,.11-.39Z"/>
        <path class="cls-39" d="M325.71,498.3c.19-1.44-1.73-2.15-2.52-.89-.1,.17-.16,.33-.19,.54l-.04,.29-.14,1-.15,1-.06,.38c-.24,1.44,1.7,2.23,2.53,.91,.09-.16,.14-.3,.17-.48l.06-.41,.15-1.02,.14-1.02,.04-.29Z"/>
        <path class="cls-39" d="M326.42,481.7c-.05-1.38-1.93-1.82-2.58-.57-.11,.23-.16,.43-.15,.68l.02,.51,.03,.99,.02,.99v.19c0,.31,.11,.6,.3,.84,.83,1.01,2.44,.43,2.44-.86v-.22s-.03-1.02-.03-1.02l-.04-1.02-.02-.51Z"/>
        <path class="cls-39" d="M324.05,465.24c-.34-1.43-2.41-1.4-2.68,.11-.03,.18-.02,.35,.02,.53l.2,.8,.22,.97,.19,.86c.13,.61,.66,1.06,1.29,1.08,.89,.03,1.57-.78,1.39-1.65l-.2-.9-.23-1-.19-.8Z"/>
        <polygon class="cls-39" points="309.86 463.14 312.74 440.79 330.07 455.18 309.86 463.14"/>
        <path class="cls-39" d="M195.53,630.94c-.39-.11-.76-.06-1.1,.14-1.01,.63-.81,2.12,.32,2.47l.51,.15,.52,.13,.52,.12,.53,.11,.53,.1,.21,.03c.47,.08,.93-.08,1.25-.43,.72-.79,.27-2.09-.78-2.26l-.21-.03-.47-.09-.47-.1-.46-.11-.45-.12-.44-.13Z"/>
      </g>
    </g>
    <g>
      <path class="cls-15" d="M693.91,232.18v-.82l.54,.3c-.07,.13-.15,.22-.25,.33-.09,.08-.19,.15-.28,.2h0Zm0-3.82l1.81,.94-1.27,2.35,.06-.11,.41-.74,.4-.75,.4-.75h0c.62-1.21-.74-2.38-1.81-1.78v.83h0Zm5-12.12c-.57,1.46,1.39,2.54,2.32,1.23,.05-.07,.09-.16,.12-.24l.1-.25,.32-.79,.32-.79,.25-.64c.52-1.32-1.18-2.44-2.2-1.37-.12,.13-.2,.26-.26,.42l-.24,.62-.31,.78-.31,.78-.1,.25h0Zm5.12-14.82c-.39,1.42,1.51,2.33,2.36,1.1,.08-.12,.14-.25,.18-.39l.16-.57,.23-.83,.22-.84,.09-.33c.36-1.5-1.67-2.33-2.45-.94-.05,.1-.08,.18-.11,.28l-.08,.32-.22,.82-.22,.82-.16,.57h0Zm3.38-15.31c-.23,1.36,1.57,2.13,2.4,.94,.11-.17,.17-.32,.21-.52l.04-.27,.14-.87,.13-.87,.09-.62c.05-.37-.05-.73-.29-1.02-.72-.88-2.18-.48-2.33,.65l-.09,.61-.13,.85-.13,.85-.04,.27h0Zm1.61-15.6c-.05,1.5,2.03,1.93,2.57,.49,.04-.12,.07-.25,.07-.37v-.26s.05-.9,.05-.9l.03-.9,.02-.61c.01-.43-.2-.86-.55-1.11-.87-.61-2.05-.02-2.09,1.04l-.02,.59-.03,.88-.04,.88v.26h-.01Zm-.16-15.68c.09,1.42,2.11,1.7,2.57,.31,.05-.17,.07-.32,.06-.5l-.03-.47-.07-.89-.07-.89-.04-.41c-.14-1.45-2.17-1.65-2.59-.23-.04,.15-.06,.31-.04,.47l.03,.4,.07,.87,.06,.87,.03,.47h0Zm-1.93-15.56c.3,1.5,2.45,1.41,2.61-.13,0-.12,0-.23-.02-.35l-.07-.37-.16-.86-.17-.86-.11-.53c-.29-1.38-2.27-1.42-2.59,0-.03,.19-.04,.34,0,.53l.1,.52,.16,.84,.16,.84,.07,.37h0Zm-3.69-15.24c.43,1.4,2.48,1.16,2.58-.3,0-.16,0-.31-.05-.47h0s-.25-.83-.25-.83l-.26-.82-.26-.82-.03-.08c-.5-1.44-2.62-1.05-2.57,.48,0,.13,.03,.23,.07,.35l.02,.06,.26,.8,.25,.81,.25,.81h0Zm-5.42-14.7c.56,1.3,2.58,.91,2.53-.61-.01-.16-.04-.3-.11-.45l-.11-.26-.34-.78-.35-.78-.28-.62c-.17-.34-.43-.58-.79-.7-1.1-.34-2.07,.75-1.61,1.81l.28,.6,.34,.76,.34,.76,.11,.26Zm-3.92,118.21v.83l-.54-.28h0c.06-.12,.13-.22,.22-.31,.1-.1,.21-.18,.31-.24h0Zm0,3.82v.82c-1.09,.6-2.42-.6-1.78-1.8l1.78,.98h0Zm-41.55,47.24h0s1.87-1.34,1.87-1.34l-1.57-2.12h0s0,0,0,0c.11-.08,.24-.15,.38-.19,1.47-.42,2.35,1.45,1.19,2.32h0s-.68,.5-.68,.5l-.68,.49-.5,.35h0Zm0-3.25l.3-.22-.3,.22h0Zm10.49-8.41c-.87,.79-.38,2.22,.79,2.3,.37,.01,.68-.08,.96-.33l.09-.08,.63-.56,.62-.56,.62-.57,.02-.02c.25-.24,.41-.56,.42-.9,.04-1.19-1.34-1.83-2.22-1.03h0s-.61,.56-.61,.56l-.61,.55-.62,.55-.09,.08h0Zm11.13-11.05c-.95,1.04,.21,2.69,1.56,2.07,.16-.08,.28-.17,.41-.31l.06-.07,.56-.63,.56-.63,.55-.63,.04-.04c.92-1.05-.27-2.67-1.59-2.04-.16,.08-.29,.19-.41,.32l-.03,.03-.54,.62-.55,.62-.55,.62-.06,.07h0Zm9.81-12.24c-.9,1.32,.81,2.79,1.98,1.73,.07-.07,.12-.13,.18-.2l.05-.06,.49-.69,.48-.69,.48-.69,.04-.05c.24-.35,.29-.81,.14-1.2-.39-1-1.73-1.16-2.33-.28l-.03,.04-.47,.68-.47,.68-.48,.68-.04,.06h0Zm9.59-15.57l-1.24,2.29,.06-.11,.4-.73,.39-.73,.39-.73h0Zm-2.61-132.76c.27,.47,.83,.73,1.36,.64,.91-.16,1.39-1.16,.92-1.97l-.2-.35-.43-.73-.43-.73-.29-.49c-.76-1.24-2.69-.53-2.42,.94,.03,.15,.08,.29,.17,.43l.28,.47,.42,.71,.42,.71,.2,.35h0Zm-8.62-13.1c.37,.49,1.02,.66,1.58,.42,.78-.35,1.05-1.32,.53-2l-.26-.35-.51-.67-.51-.67-.33-.43c-.35-.45-.9-.61-1.44-.45-.88,.29-1.2,1.33-.64,2.07l.32,.42,.5,.66,.5,.66,.26,.35h0Zm-10.05-12.04c.33,.35,.82,.49,1.29,.37,.97-.25,1.32-1.46,.63-2.18l-.28-.3-.58-.61-.58-.61-.4-.41c-1.09-1.09-2.85,.22-2.08,1.59,.06,.09,.12,.17,.19,.25l.39,.4,.57,.59,.57,.6,.28,.3h0Zm-11.35-10.82c1.09,.9,2.65-.27,2.04-1.59-.09-.17-.18-.29-.33-.43l-.29-.25-.64-.54-.65-.54-.46-.38c-.44-.37-1.09-.39-1.56-.08-.74,.5-.79,1.56-.11,2.12l.45,.37,.63,.53,.63,.53,.29,.25Zm-88.94-35.31h-.37c-.38,0-.73,.17-.99,.45-.74,.87-.14,2.19,1,2.19h.33s0,0,0,0h.9s.89,.01,.89,.01h.85c1.4,.01,1.85-1.84,.61-2.49-.19-.09-.37-.14-.58-.14h-.85s-.9-.02-.9-.02h-.91Zm80.55,251.29h0s-.36,.26-.36,.26l-.67,.48-.67,.48-.11,.08,1.82-1.3h0Zm0,3.24h0s-.19,.14-.19,.14l-.11,.08,.3-.22h0ZM558.4,27.34c1.4-.14,1.65-2.11,.26-2.57-.18-.05-.34-.07-.53-.05l-.64,.06-.88,.09-.88,.1-.25,.03c-.64,.08-1.11,.58-1.16,1.23-.06,.81,.66,1.5,1.48,1.39l.23-.03,.86-.1,.86-.09,.64-.06h0Zm-15.5,2.4c1.33-.27,1.42-2.21,.03-2.57-.2-.04-.38-.05-.59,0l-.46,.1-.85,.19-.85,.19-.45,.1c-1.42,.34-1.33,2.44,.2,2.6,.14,0,.27,0,.41-.03l.43-.1,.83-.19,.83-.18,.46-.1h0Zm-15.12,4.16c1.37-.49,1.09-2.47-.35-2.57-.17,0-.33,.01-.5,.07h-.04s-.81,.29-.81,.29l-.81,.28-.81,.29-.06,.02c-1.29,.46-1.1,2.41,.34,2.56,.2,.01,.37,0,.57-.08l.04-.02,.79-.28,.79-.28,.8-.27h.04Zm-14.54,5.85c1.28-.62,.83-2.56-.64-2.51-.17,.01-.33,.05-.49,.13l-.24,.11-.77,.37-.76,.37-.63,.31c-.26,.12-.46,.33-.59,.59-.55,1.16,.62,2.33,1.77,1.78l.61-.3,.75-.36,.75-.36,.24-.11h0Zm-13.77,7.49c1.23-.79,.49-2.67-.95-2.42-.17,.04-.3,.09-.45,.18l-.31,.19-.71,.45-.71,.45-.52,.33c-.61,.39-.79,1.24-.38,1.84,.41,.6,1.2,.77,1.82,.37l.5-.33,.7-.44,.7-.44,.31-.19h0Zm-12.83,9.01c1.14-.9,.17-2.76-1.26-2.28-.14,.05-.26,.12-.38,.21l-.29,.23-.66,.53-.65,.53-.47,.39c-1.11,.92-.14,2.74,1.28,2.26,.15-.06,.28-.12,.4-.23l.46-.38,.64-.52,.64-.52,.29-.23h0Zm-11.73,10.41c1.07-1.07-.24-2.89-1.66-2.04-.08,.05-.14,.1-.21,.17l-.24,.24-.59,.6-.59,.6-.45,.46c-.42,.45-.5,1.13-.15,1.64,.47,.7,1.47,.8,2.05,.19l.43-.45,.58-.59,.58-.58,.25-.24h0Zm-10.47,11.67c.88-1.11-.37-2.65-1.66-1.98-.16,.09-.29,.19-.41,.34l-.2,.25-.52,.66-.52,.66-.41,.53c-.88,1.18,.51,2.7,1.76,1.91,.13-.08,.24-.18,.33-.31l.4-.51,.51-.65,.51-.65,.2-.25h0Zm-9.08,12.79c.7-1.14-.52-2.5-1.76-1.85-.2,.12-.35,.25-.47,.45l-.17,.28-.45,.72-.44,.72-.33,.55c-.77,1.33,.93,2.7,2.07,1.61,.08-.08,.13-.15,.19-.25l.33-.54,.43-.71,.44-.7,.17-.28h0Zm-7.56,13.73c.61-1.26-.95-2.51-2.08-1.55-.14,.13-.23,.25-.31,.41l-.18,.38-.36,.77-.36,.77-.22,.49c-.59,1.32,1.06,2.5,2.13,1.48,.12-.12,.21-.25,.28-.4l.22-.48,.35-.76,.35-.75,.18-.38h0Zm-5.94,14.51c.46-1.33-1.25-2.39-2.25-1.29-.12,.13-.19,.27-.25,.44l-.21,.62-.27,.81-.27,.82-.09,.28c-.46,1.48,1.58,2.44,2.41,1.05,.04-.08,.08-.16,.11-.25l.08-.26,.26-.8,.27-.8,.21-.62h0Zm-4.24,15.1c.29-1.41-1.55-2.22-2.39-1.01-.09,.14-.15,.28-.19,.45l-.05,.22-.18,.85-.18,.85-.14,.69c-.27,1.37,1.52,2.18,2.37,1.03,.11-.16,.19-.32,.22-.52l.13-.67,.17-.84,.18-.84,.05-.22h0Zm-2.48,15.48c.15-1.48-1.91-2.05-2.53-.65-.05,.12-.09,.25-.1,.38v.04s-.09,.88-.09,.88l-.08,.89-.07,.84c-.1,1.54,2.02,2,2.56,.54,.04-.12,.06-.2,.07-.33l.07-.82,.08-.87,.09-.87v-.05h0Zm-.7,15.67c0-.29-.1-.56-.27-.79-.77-1-2.37-.46-2.37,.82v.2s.02,.9,.02,.9l.02,.9,.02,.66c.05,1.46,2.12,1.78,2.58,.34,.04-.14,.06-.28,.06-.43l-.02-.64-.02-.88v-.89s-.02-.2-.02-.2h0Zm1.06,15.64c-.17-1.25-1.82-1.58-2.45-.49-.14,.27-.2,.52-.16,.82l.04,.28,.11,.87,.12,.87,.09,.61c.17,1.31,2.02,1.56,2.53,.3,.09-.23,.11-.44,.08-.68l-.09-.6-.12-.86-.11-.86-.03-.28h0Zm2.83,15.42c-.34-1.4-2.43-1.33-2.6,.21,0,.14,0,.28,.03,.41v.04s.22,.84,.22,.84l.21,.84,.22,.84v.03c.4,1.42,2.49,1.23,2.6-.27,0-.15,0-.28-.04-.42v-.02s-.22-.82-.22-.82l-.21-.82-.2-.83v-.04h0Zm4.58,14.99c-.56-1.43-2.66-.95-2.55,.58,.01,.13,.04,.23,.08,.35l.14,.39,.3,.8,.31,.8,.2,.5c.21,.54,.77,.89,1.36,.83,.87-.09,1.42-.98,1.1-1.8l-.19-.49-.3-.78-.3-.79-.14-.39h0Zm6.27,14.37c-.67-1.29-2.64-.71-2.49,.76,.02,.16,.06,.3,.14,.45l.27,.54,.39,.75,.39,.75,.17,.33c.12,.23,.31,.42,.53,.54,1.17,.61,2.4-.62,1.79-1.78l-.17-.31-.39-.74-.38-.74-.27-.54h0Zm7.87,13.56c-.8-1.18-2.65-.44-2.39,.99,.04,.17,.1,.33,.2,.48l.37,.56,.47,.7,.47,.7,.18,.26c.78,1.14,2.64,.45,2.38-1.02-.04-.18-.11-.33-.21-.48l-.17-.24-.46-.68-.46-.69-.37-.56h0Zm9.37,12.58c-.95-1.09-2.67-.13-2.27,1.24,.06,.19,.13,.32,.25,.47l.43,.51,.54,.64,.55,.64,.21,.24c.2,.23,.49,.39,.79,.43,1.22,.18,2-1.25,1.2-2.17l-.2-.23-.54-.62-.53-.63-.43-.51h0Zm10.73,11.43c-.2-.19-.43-.3-.71-.34-1.28-.18-2.04,1.37-1.1,2.27l.46,.44,.61,.57,.62,.57,.26,.24c.22,.2,.5,.32,.79,.34,1.25,.09,1.91-1.45,.98-2.29l-.25-.23-.6-.56-.6-.56-.46-.44h0Zm11.96,10.14c-1.16-.87-2.73,.54-1.87,1.82,.09,.12,.17,.21,.29,.3l.49,.37,.68,.5,.68,.5,.3,.22c.87,.66,2.17-.05,2.09-1.15-.01-.4-.23-.76-.55-.99l-.28-.21-.67-.49-.66-.49-.49-.37h0Zm13.03,8.72c-1.33-.77-2.72,1-1.55,2.12,.07,.06,.14,.11,.22,.16l.55,.33,.73,.42,.73,.42,.29,.16c.46,.27,1.07,.21,1.47-.13,.73-.6,.63-1.71-.19-2.18l-.28-.15-.72-.41-.72-.41-.55-.33h0Zm13.94,7.18c-1.38-.59-2.54,1.21-1.37,2.23,.09,.08,.2,.14,.31,.19l.7,.31,.78,.34,.78,.33,.18,.08c1.35,.53,2.43-1.11,1.45-2.14-.14-.14-.27-.22-.44-.3l-.16-.07-.77-.33-.77-.33-.7-.31h0Zm14.68,5.53c-1.37-.43-2.35,1.36-1.22,2.29,.13,.1,.27,.18,.44,.23l.18,.06,.82,.25,.83,.25,.72,.21c1.13,.31,2.07-.85,1.53-1.9-.18-.31-.44-.54-.79-.64l-.71-.21-.81-.24-.81-.25-.18-.06h0Zm15.2,3.81c-1.46-.24-2.15,1.66-.93,2.42,.15,.09,.28,.14,.45,.17l.66,.12,.86,.16,.86,.15,.24,.04c.45,.07,.92-.09,1.21-.44,.67-.78,.24-2-.78-2.17l-.22-.04-.85-.15-.84-.15-.66-.12h0Zm15.55,2.04c-1.42-.1-1.96,1.83-.7,2.49,.17,.08,.33,.13,.51,.14l.58,.04,.89,.06,.89,.05,.29,.02c1.54,.05,1.95-2.08,.45-2.58-.11-.03-.2-.05-.31-.05l-.28-.02-.88-.05-.87-.06-.58-.04h0Zm15.68,.27c-.71,.02-1.29,.64-1.26,1.35,.02,.75,.63,1.31,1.38,1.29l.79-.03,.9-.04,.89-.05h.08c1.4-.1,1.73-2.04,.36-2.57-.18-.06-.34-.09-.53-.07h-.06s-.88,.05-.88,.05l-.88,.04-.79,.03h0Zm15.61-1.49c-1.46,.24-1.49,2.34,0,2.61,.14,.02,.28,.02,.42,0l.76-.12,.87-.14,.87-.15,.13-.02c.57-.09,1.02-.58,1.08-1.15,.09-.89-.67-1.59-1.54-1.45l-.12,.02-.85,.14-.85,.14-.76,.12h0Zm15.34-3.26c-1.38,.38-1.24,2.43,.23,2.59,.17,.01,.31,0,.48-.04l.44-.12,.83-.23,.83-.24,.46-.14c1.5-.47,1.1-2.69-.49-2.58-.09,0-.17,.02-.26,.05l-.44,.13-.81,.23-.82,.23-.44,.12h0Zm14.86-5c-.4,.16-.7,.52-.79,.94-.22,1.04,.79,1.9,1.79,1.51l.72-.29,.79-.33,.79-.33,.17-.07c1.32-.57,.91-2.58-.59-2.53-.16,.01-.3,.04-.45,.11l-.15,.07-.77,.32-.77,.32-.72,.29h0Zm14.19-6.68c-.65,.35-.88,1.18-.52,1.81,.36,.63,1.14,.85,1.78,.51l.08-.04,.74-.41,.74-.41,.74-.41,.04-.02c1.27-.73,.58-2.71-.91-2.44-.14,.03-.27,.08-.4,.15h-.03s-.72,.42-.72,.42l-.73,.4-.73,.4-.08,.04h0Zm13.33-8.25c-.3,.21-.51,.56-.55,.92-.12,1.14,1.12,1.88,2.07,1.24l-1.52-2.16h0Zm-2.3-226.74c.3,.2,.7,.27,1.04,.18,1.12-.29,1.37-1.73,.42-2.38l-.32-.21-.7-.47-.71-.46-.5-.32c-.52-.33-1.21-.26-1.65,.18-.6,.6-.49,1.59,.22,2.04l.49,.31,.69,.45,.69,.46,.32,.21h0Zm-13.5-7.98c.28,.15,.57,.17,.88,.12,1.22-.27,1.43-1.9,.33-2.47l-.4-.21-.76-.38-.76-.38-.46-.23c-1.32-.64-2.55,1.03-1.53,2.11,.11,.11,.23,.2,.37,.27l.45,.22,.74,.37,.74,.38,.4,.21h0Zm-14.32-6.38c.52,.18,1.07,.05,1.44-.35,.62-.72,.36-1.77-.52-2.12l-.6-.22-.8-.3-.8-.29-.3-.11c-1.34-.48-2.42,1.28-1.28,2.26,.12,.1,.25,.17,.4,.23l.28,.1,.79,.29,.79,.29,.6,.22h0Zm-14.96-4.7c1.39,.34,2.25-1.46,1.12-2.33-.14-.11-.3-.19-.48-.23l-.15-.04-.84-.21-.84-.2-.76-.18c-.28-.07-.59-.03-.85,.09-1.14,.55-.96,2.19,.26,2.48l.74,.17,.83,.2,.83,.2,.15,.04h0Zm-15.39-2.95c1.4,.19,2.08-1.72,.82-2.46-.15-.08-.31-.14-.48-.16l-.76-.1-.88-.11-.88-.1h-.13c-1.16-.13-1.9,1.19-1.18,2.11,.21,.28,.55,.46,.9,.5h.11s.86,.11,.86,.11l.86,.11,.76,.1Z"/>
      <g>
        <polygon class="cls-25" points="550.13 301.77 593.48 301.77 613.8 338.57 529.82 338.57 550.13 301.77"/>
        <path class="cls-6" d="M469.67,179.03h204.28c5.77,0,10.45,4.68,10.45,10.45v111.17c0,5.77-4.68,10.45-10.45,10.45h-204.28c-5.77,0-10.45-4.68-10.45-10.45v-111.17c0-5.77,4.68-10.45,10.45-10.45Z"/>
        <rect class="cls-40" x="466.15" y="185.12" width="211.31" height="107.31"/>
        <path class="cls-16" d="M671.71,303.22c.75,0,1.36-.61,1.36-1.36s-.61-1.36-1.36-1.36-1.36,.61-1.36,1.36,.61,1.36,1.36,1.36Z"/>
        <path class="cls-16" d="M666.41,303.22c.75,0,1.36-.61,1.36-1.36s-.61-1.36-1.36-1.36-1.36,.61-1.36,1.36,.61,1.36,1.36,1.36Z"/>
        <path class="cls-16" d="M661.11,303.22c.75,0,1.36-.61,1.36-1.36s-.61-1.36-1.36-1.36-1.36,.61-1.36,1.36,.61,1.36,1.36,1.36Z"/>
        <rect class="cls-42" x="441.58" y="327.45" width="260.45" height="11.12" rx="5.56" ry="5.56"/>
        <path class="cls-7" d="M702.03,333.01c0,3.06-2.5,5.56-5.56,5.56h-249.33c-3.06,0-5.56-2.5-5.56-5.56h260.45Z"/>
      </g>
      <polygon class="cls-22" points="677.46 185.12 466.15 292.43 466.15 185.12 677.46 185.12"/>
      <g>
        <path class="cls-12" d="M507.53,69.51c11.95,0,21.69-9.74,21.69-21.69s-9.74-21.69-21.69-21.69-21.69,9.74-21.69,21.69,9.74,21.69,21.69,21.69Z"/>
        <circle class="cls-6" cx="507.53" cy="47.82" r="17.65"/>
        <path class="cls-14" d="M507.53,34.97h0c.56,0,1.01,.46,1.01,1.01v10.82c0,.56-.46,1.01-1.01,1.01h0c-.56,0-1.01-.46-1.01-1.01v-10.82c0-.56,.46-1.01,1.01-1.01Z"/>
        <path class="cls-14" d="M499.44,40.6h0c.37-.42,1.01-.45,1.43-.08l6.58,5.87c.41,.37,.45,1.01,.08,1.43h0c-.37,.42-1.01,.45-1.43,.08l-6.58-5.87c-.42-.37-.45-1.01-.08-1.43Z"/>
        <path class="cls-14" d="M507.53,33.93c.62,0,1.12-.5,1.12-1.12s-.5-1.12-1.12-1.12-1.12,.5-1.12,1.12,.5,1.12,1.12,1.12Z"/>
        <path class="cls-14" d="M524.25,48.26c0,.62-.5,1.12-1.12,1.12s-1.12-.5-1.12-1.12,.5-1.12,1.12-1.12,1.12,.5,1.12,1.12Z"/>
        <path class="cls-14" d="M507.68,64.98c-.62,0-1.12-.5-1.12-1.12s.5-1.12,1.12-1.12,1.12,.5,1.12,1.12-.5,1.12-1.12,1.12Z"/>
        <path class="cls-14" d="M490.96,48.41c0-.62,.5-1.12,1.12-1.12s1.12,.5,1.12,1.12-.5,1.12-1.12,1.12-1.12-.5-1.12-1.12Z"/>
        <path class="cls-14" d="M507.53,50.44c1.44,0,2.62-1.18,2.62-2.62s-1.18-2.62-2.62-2.62-2.62,1.18-2.62,2.62,1.18,2.62,2.62,2.62Z"/>
      </g>
      <g>
        <path class="cls-7" d="M445.94,107.54c8.7,0,15.76,7.06,15.76,15.76,0,5.67-3,10.64-7.49,13.42l-1.66,12.99h-13.2l-1.66-12.99c-4.5-2.77-7.49-7.75-7.49-13.42,0-8.7,7.06-15.76,15.76-15.76Z"/>
        <path class="cls-13" d="M443.36,143.05c.08,.34-.12,.67-.46,.76-.34,.08-.67-.12-.75-.46l-2.68-10.93v-5.12l.06,.12c-.01-.06-.04-.11-.06-.16v-.02c.23,.24,.48,.47,.74,.68,1.55,1.24,3.57,1.9,5.57,1.91,1.99,0,3.95-.62,5.39-1.93,.24-.22,.46-.46,.68-.72,.22-.27,.61-.31,.88-.1,.2,.16,.28,.43,.21,.66l-3.83,15.61c-.08,.34-.42,.54-.76,.46-.34-.08-.54-.42-.46-.76l3.33-13.6c-1.57,1.11-3.5,1.64-5.45,1.63-2.04,0-4.1-.61-5.78-1.76l3.37,13.74Zm-3.89-10.63l-1.15-4.71c-.08-.34,.12-.67,.46-.76,.24-.06,.48,.03,.63,.21l.06,.07v.02s-.04-.06-.06-.09l.06,.12v5.12Z"/>
        <path class="cls-14" d="M437,141.77h17.89l-.9,8.33c-.16,1.51-.22,2.22-2.22,2.22h-11.66c-2.01,0-2.06-.72-2.22-2.22l-.9-8.33Z"/>
        <g>
          <path class="cls-6" d="M455.54,94.31c.15-.41,.6-.62,1-.47,.41,.15,.62,.6,.47,1l-3.45,9.49c-.15,.41-.6,.62-1,.47-.41-.15-.62-.6-.47-1l3.45-9.49Z"/>
          <path class="cls-6" d="M464.76,99.32c.28-.33,.77-.38,1.1-.1,.33,.28,.38,.77,.1,1.1l-6.49,7.74c-.28,.33-.77,.38-1.1,.1-.33-.28-.38-.77-.1-1.1l6.49-7.74Z"/>
          <path class="cls-6" d="M471.71,107.17c.37-.22,.85-.09,1.07,.28,.22,.37,.09,.85-.29,1.07l-8.75,5.05c-.37,.22-.85,.09-1.07-.29-.22-.37-.09-.85,.29-1.07l8.75-5.05Z"/>
          <path class="cls-6" d="M475.56,116.93c.43-.07,.83,.21,.91,.64,.07,.43-.21,.83-.64,.91l-9.95,1.75c-.43,.07-.83-.21-.91-.64-.08-.43,.21-.83,.64-.91l9.95-1.75Z"/>
          <path class="cls-6" d="M445.16,92.76c0-.43,.35-.78,.79-.78s.78,.35,.78,.78v10.1c0,.43-.35,.78-.78,.78s-.79-.35-.79-.78v-10.1Z"/>
          <path class="cls-6" d="M434.88,94.84c-.15-.41,.06-.86,.47-1,.41-.15,.86,.06,1,.47l3.45,9.49c.15,.41-.06,.86-.47,1-.41,.15-.86-.06-1-.47l-3.46-9.49Z"/>
          <path class="cls-6" d="M425.93,100.32c-.28-.33-.23-.83,.1-1.1,.33-.28,.83-.23,1.1,.1l6.49,7.74c.28,.33,.23,.83-.1,1.1-.33,.28-.83,.23-1.1-.1l-6.49-7.74Z"/>
          <path class="cls-6" d="M419.39,108.53c-.37-.22-.5-.7-.29-1.07,.22-.37,.7-.5,1.07-.28l8.75,5.05c.37,.22,.5,.7,.29,1.07-.22,.37-.7,.5-1.07,.29l-8.75-5.05Z"/>
          <path class="cls-6" d="M416.06,118.48c-.43-.07-.71-.48-.64-.91,.07-.43,.48-.71,.91-.64l9.95,1.75c.43,.07,.71,.48,.64,.91-.07,.43-.48,.71-.91,.64l-9.95-1.75Z"/>
        </g>
      </g>
      <g>
        <path class="cls-7" d="M696.04,149.4c10.32,0,18.74-8.42,18.74-18.74s-8.42-18.74-18.74-18.74-18.74,8.42-18.74,18.74,8.42,18.74,18.74,18.74Z"/>
        <g>
          <path class="cls-16" d="M697.89,121.89l-2.22,10.51,9.25-5.45,26.5-36.88c.76-1.06,.52-2.54-.54-3.3l-3.2-2.3c-1.06-.76-2.54-.52-3.3,.54l-26.5,36.87Z"/>
          <path class="cls-30" d="M697.89,121.89l-2.22,10.51,5.96-8.3,27.65-38.48-1.6-1.15c-1.06-.76-2.54-.52-3.3,.54l-26.5,36.87Z"/>
          <path class="cls-32" d="M697.89,121.89l-2.22,10.51,9.25-5.45,24.47-34.05c-2.17-2.2-4.52-3.86-7.03-5.05l-24.47,34.05Z"/>
          <path class="cls-27" d="M697.89,121.89l-2.22,10.51,5.96-8.3,24.46-34.04c-1.2-.87-2.45-1.6-3.74-2.22l-24.47,34.05Z"/>
          <path class="cls-19" d="M697.89,121.89l-2.22,10.51,9.25-5.45,22.86-31.81c-2.17-2.24-4.51-3.89-7.03-5.05l-22.86,31.81Z"/>
          <path class="cls-14" d="M698.08,121.64l-2.2,10.43,5.92-8.23,22.69-31.57c-1.2-.86-2.44-1.59-3.73-2.18l-22.68,31.56Z"/>
          <path class="cls-32" d="M697.89,121.89l-2.22,10.51,9.25-5.45c-.97-1.01-2.07-1.97-3.29-2.85-1.22-.88-2.48-1.61-3.75-2.21Z"/>
          <path class="cls-27" d="M697.89,121.89l-2.22,10.51,5.96-8.3c-1.22-.88-2.48-1.61-3.75-2.21Z"/>
          <path class="cls-18" d="M696.4,128.92l-.73,3.47,3.06-1.8c-.32-.33-.68-.65-1.09-.94-.4-.29-.82-.53-1.24-.73Z"/>
        </g>
      </g>
      <g>
        <polygon class="cls-9" points="653.53 43.6 653.53 40.73 660.72 40.73 660.72 29.23 643.47 29.23 643.47 40.73 650.66 40.73 650.66 43.6 640.59 43.6 640.59 42.17 636.28 42.17 636.28 43.6 633.41 43.6 633.41 66.61 670.78 66.61 670.78 43.6 653.53 43.6"/>
        <polygon class="cls-11" points="667.91 47.92 667.91 47.92 663.59 47.92 663.59 46.48 667.91 46.48 667.91 47.92"/>
        <path class="cls-11" d="M652.09,62.29h0c-3.97,0-7.19-3.22-7.19-7.19s3.22-7.19,7.19-7.19,7.19,3.22,7.19,7.19-3.22,7.19-7.19,7.19Z"/>
        <polygon class="cls-11" points="644.91 39.29 644.91 39.29 644.91 30.67 659.28 30.67 659.28 39.29 644.91 39.29"/>
      </g>
      <g>
        <rect class="cls-6" x="502.48" y="95.14" width="138.66" height="197.3"/>
        <rect class="cls-36" x="502.48" y="95.14" width="138.66" height="9.58"/>
        <rect class="cls-13" x="539.54" y="110.55" width="64.53" height="14.59"/>
        <rect class="cls-13" x="502.48" y="142.23" width="138.66" height="40.23"/>
        <rect class="cls-36" x="529.11" y="130.85" width="85.39" height="6.12"/>
        <rect class="cls-36" x="510.88" y="190.53" width="34.82" height="32.51"/>
        <rect class="cls-36" x="554.4" y="190.53" width="34.82" height="32.51"/>
        <rect class="cls-36" x="597.92" y="190.53" width="34.82" height="32.51"/>
        <rect class="cls-36" x="502.48" y="274.9" width="138.66" height="17.54"/>
        <rect class="cls-36" x="510.88" y="227.5" width="34.82" height="6.12"/>
        <rect class="cls-36" x="510.88" y="238.01" width="34.82" height="6.12"/>
        <rect class="cls-36" x="510.88" y="248.52" width="34.82" height="6.12"/>
        <rect class="cls-36" x="510.88" y="259.02" width="22.04" height="6.12"/>
        <rect class="cls-36" x="554.4" y="227.5" width="34.82" height="6.12"/>
        <rect class="cls-36" x="554.4" y="238.01" width="34.82" height="6.12"/>
        <rect class="cls-36" x="554.4" y="248.52" width="34.82" height="6.12"/>
        <rect class="cls-36" x="554.4" y="259.02" width="22.04" height="6.12"/>
        <rect class="cls-36" x="597.92" y="227.5" width="34.82" height="6.12"/>
        <rect class="cls-36" x="597.92" y="238.01" width="34.82" height="6.12"/>
        <rect class="cls-36" x="597.92" y="248.52" width="34.82" height="6.12"/>
        <rect class="cls-36" x="597.92" y="259.02" width="22.04" height="6.12"/>
      </g>
      <path class="cls-16" d="M723.69,181.88h15.48v28.03h-15.48v-9.89l7.01-4.13-7.01-4.13v-9.89Zm-18.98,0h18.98v9.89l-7.01-4.13v16.51l7.01-4.13v9.89h-18.98v-28.03Z"/>
      <path class="cls-6" d="M632.46,155.86c-.2-.26-.15-.64,.11-.84,.26-.2,.64-.15,.84,.11l3.03,3.95s.03,.05,.05,.07h0s0,.01,0,.01h0s.02,.04,.02,.05v.03s.02,.01,.02,.01v.04s.02,.04,.02,.04c0,.02,0,.04,0,.06h0s0,.03,0,.03v.02s0,.01,0,.01h0v.04s0,.03,0,.03h0s0,.04,0,.06v.04s-.02,.04-.02,.04h0s-.01,.04-.01,.04c0,.02-.01,.03-.02,.05h0s0,.01,0,.01h0s-.03,.05-.05,.08l-3.03,3.95c-.2,.26-.58,.31-.84,.11-.26-.2-.31-.58-.11-.84l2.76-3.59-2.76-3.59Z"/>
      <path class="cls-6" d="M510.21,155.13c.2-.26,.58-.31,.84-.11,.26,.2,.31,.58,.11,.84l-2.76,3.59,2.76,3.59c.2,.26,.15,.64-.11,.84-.26,.2-.64,.15-.84-.11l-3.03-3.95s-.03-.05-.05-.07h0s0,0,0,0h0s-.02-.04-.02-.05v-.03s-.02-.01-.02-.01v-.04s-.02-.04-.02-.04c0-.02,0-.04,0-.06h0s0-.03,0-.03v-.02s0-.01,0-.01h0v-.04s0-.03,0-.03h0s0-.04,0-.06v-.04s.02-.04,.02-.04h0s.01-.04,.01-.04l.02-.05h0s0-.01,0-.01h0s.03-.05,.05-.08l3.03-3.95Z"/>
    </g>
    <g>
      <g>
        <g>
          <path class="cls-11" d="M661.64,437.14c1.62,0,3.25,.09,4.89,.28l2.21-7.28,15.35,4.67-2.21,7.28c5.57,2.88,10.33,6.86,14.1,11.58l6.71-3.58,7.56,14.15-6.71,3.58c1.83,5.76,2.48,11.93,1.78,18.16l7.28,2.21-4.67,15.35-7.28-2.21c-2.88,5.57-6.86,10.33-11.58,14.1l3.58,6.71-14.15,7.55-3.58-6.71c-4.24,1.35-8.71,2.06-13.27,2.05v-11.49c13.92,0,26.79-9.01,31.04-23.01,5.21-17.15-4.46-35.27-21.61-40.48-3.14-.96-6.31-1.41-9.44-1.41v-11.49Zm-27.42,9.61l-3.58-6.71,14.15-7.55,3.58,6.71c4.24-1.35,8.71-2.06,13.26-2.05v11.49c-13.91,0-26.79,9.01-31.04,23.02-5.21,17.14,4.46,35.27,21.6,40.48h0c3.14,.96,6.32,1.41,9.44,1.41v11.49c-1.62,0-3.25-.09-4.89-.28l-2.21,7.28-15.35-4.67,2.21-7.28c-5.57-2.88-10.33-6.86-14.1-11.58l-6.71,3.58-7.55-14.15,6.71-3.58c-1.83-5.75-2.48-11.92-1.78-18.16l-7.28-2.21,4.67-15.35,7.28,2.21c2.88-5.57,6.86-10.33,11.58-14.1Z"/>
          <path class="cls-4" d="M774.07,521.79l3.98,3.34-8.28,9.86-3.98-3.34c-2.81,2.17-5.94,3.81-9.33,4.86l.45,5.18-9.41,.82v-14.51c5.84,0,11.51-2.55,15.4-7.18,7.12-8.49,6.01-21.19-2.48-28.31h0c-2.1-1.76-4.47-3.05-7.06-3.84-1.93-.59-3.91-.87-5.86-.87v-14.51l3.41-.3,.45,5.18c3.5,.45,6.91,1.53,10.04,3.17l3.34-3.98,9.86,8.27-3.34,3.98c2.17,2.81,3.8,5.94,4.86,9.34l5.18-.45,1.12,12.82-5.18,.45c-.45,3.53-1.51,6.89-3.16,10.04Zm-26.57,20.72l-3.41,.3-.46-5.18c-3.5-.45-6.91-1.53-10.03-3.17l-3.35,3.98-9.86-8.27,3.34-3.98c-2.17-2.81-3.8-5.95-4.86-9.34l-5.18,.45-1.12-12.82,5.18-.45c.46-3.53,1.52-6.89,3.17-10.04l-3.98-3.34,8.27-9.86,3.98,3.34c2.81-2.17,5.95-3.8,9.34-4.86l-.45-5.18,9.41-.82v14.51c-5.84,0-11.51,2.55-15.39,7.18-7.12,8.49-6.01,21.19,2.47,28.32,2.09,1.76,4.47,3.05,7.06,3.84,1.93,.59,3.91,.87,5.86,.87v14.51Z"/>
        </g>
        <g>
          <path class="cls-37" d="M467.35,506.9c-.22,1.08-.42,2.17-.58,3.28-.17,1.1-.32,2.21-.43,3.33-.23,2.24-.34,4.51-.34,6.81s.11,4.57,.34,6.81c.11,1.12,.25,2.23,.43,3.33,.16,1.1,.36,2.2,.58,3.28,.22,1.08,.47,2.16,.74,3.22,.55,2.13,1.2,4.21,1.94,6.25,.37,1.02,.77,2.03,1.19,3.02,.42,.99,.86,1.98,1.33,2.95,.23,.48,.47,.97,.71,1.44,.49,.96,1,1.9,1.54,2.83,1.6,2.79,3.4,5.45,5.38,7.97,.99,1.26,2.02,2.48,3.1,3.66,.71,.79,1.45,1.56,2.2,2.31,.75,.75,1.53,1.49,2.31,2.2,3.55,3.22,7.44,6.07,11.63,8.47,.93,.54,1.87,1.05,2.83,1.54,1.91,.98,3.88,1.87,5.9,2.67,1.01,.4,2.03,.77,3.06,1.12,6.7,2.27,13.88,3.5,21.35,3.5,5.1,0,10.06-.57,14.82-1.66,2.23-.5,4.41-1.12,6.54-1.84,1.03-.35,2.05-.72,3.06-1.12,2.01-.79,3.98-1.68,5.9-2.67,.96-.49,1.9-1,2.83-1.54,4.18-2.41,8.08-5.25,11.63-8.48,.79-.72,1.56-1.45,2.31-2.2,.75-.75,1.49-1.52,2.2-2.31,1.08-1.18,2.1-2.4,3.09-3.66,1.57-1.99,3.02-4.07,4.34-6.24,.35-.57,.7-1.15,1.04-1.73,.54-.93,1.05-1.87,1.54-2.83,.25-.48,.49-.96,.72-1.45,.46-.97,.91-1.95,1.33-2.95,.42-1,.82-2,1.19-3.02,.75-2.04,1.4-4.13,1.94-6.25,.28-1.06,.52-2.14,.75-3.22,.22-1.08,.42-2.18,.59-3.28,.16-1.1,.31-2.21,.42-3.33,.22-2.24,.34-4.51,.34-6.81s-.12-4.57-.34-6.81c-.12-1.12-.26-2.23-.42-3.33-.17-1.1-.37-2.2-.59-3.28-.22-1.08-.47-2.16-.75-3.22-.54-2.13-1.19-4.22-1.94-6.26-.19-.51-.38-1.02-.58-1.52-.6-1.51-1.24-3-1.95-4.45-.23-.48-.48-.97-.72-1.45-.49-.96-1-1.9-1.54-2.83-1.6-2.79-3.41-5.45-5.38-7.97-.99-1.26-2.02-2.48-3.09-3.66-.72-.79-1.45-1.56-2.2-2.31-.75-.75-1.53-1.49-2.31-2.21-1.53-1.39-3.12-2.71-4.77-3.95-2.18-1.64-4.48-3.16-6.86-4.53-.93-.53-1.87-1.05-2.83-1.54-.44-.22-.87-.44-1.32-.65-.53-.25-1.06-.51-1.6-.75-.22-.1-.45-.2-.67-.3-.76-.33-1.53-.66-2.31-.96-.01,0-.02,0-.03-.02-.83-.32-1.67-.63-2.51-.92-.17-.06-.34-.12-.52-.18-1.97-.67-3.98-1.24-6.03-1.72-.64-.15-1.28-.29-1.93-.43-.47-.09-.94-.18-1.41-.27-3.5-.64-7.1-1-10.77-1.06-.4,0-.81-.01-1.22-.01-.69,0-1.37,.01-2.06,.04-6.73,.2-13.21,1.4-19.29,3.46-1.03,.35-2.05,.72-3.06,1.12-.31,.12-.62,.25-.93,.38-.69,.28-1.38,.58-2.06,.88-.98,.44-1.95,.91-2.91,1.4-.96,.49-1.9,1-2.83,1.54-3.74,2.15-7.25,4.65-10.49,7.46-.38,.33-.76,.67-1.14,1.01-.79,.72-1.56,1.45-2.32,2.21-.75,.75-1.49,1.52-2.2,2.31-1.07,1.18-2.11,2.41-3.1,3.66-1.98,2.52-3.77,5.18-5.38,7.97-.54,.93-1.04,1.87-1.54,2.83-.25,.48-.48,.96-.72,1.45-.7,1.46-1.35,2.94-1.95,4.45-.2,.5-.39,1.01-.58,1.52-.75,2.04-1.4,4.13-1.95,6.26-.27,1.06-.52,2.14-.74,3.22Z"/>
          <path class="cls-5" d="M569.31,574.33v-59.15c.3,.13,.58,.27,.82,.42,1.7,1.02,4.07,2.38,4.75,.85,.68-1.53,2.89-1.02,4.75-.68,1.87,.34,5.09,1.02,6.79,.85,1.7-.17,3.39-1.7,3.56-3.22,.17-1.53-2.21-1.87-5.09-1.87s-4.07-.51-3.56-2.21c.51-1.7,1.36-3.22,2.88-3.9,1.53-.68,2.89-1.02,4.41-1.02s3.56,1.19,5.43,1.02c1.87-.17,1.19-1.87-.68-2.88-1.87-1.02-2.21-2.55-1.36-3.39,.85-.85,.34-1.7-1.19-.85-1.53,.85-3.73,3.06-4.24,1.7-.51-1.36-4.24-.17-4.24,1.87s.51,2.38-.17,3.73c-.68,1.36-2.21,2.38-3.56,2.21-1.36-.17,.17,2.38-1.19,3.06-1.36,.68-2.04-1.02-2.88-2.72-.85-1.7-1.53-2.72-2.38-3.73-.85-1.02-1.36-1.53-2.55-2.54-.11-.09-.21-.17-.31-.23v-14.03c.38-.1,.8-.17,1.33-.17,1.87,0,3.22,1.53,4.58,.34,1.36-1.19-1.02-3.22,1.02-3.22s3.73,.17,2.21-1.36c-1.53-1.53,.51-.68,2.21-1.53,1.7-.85,1.53-2.21-.51-1.87-2.04,.34-3.73,1.53-4.58-.51-.85-2.04,1.7-4.41,3.06-5.94,.3-.34,.36-.63,.26-.87,.26,.25,.52,.51,.78,.77,.75,.75,1.49,1.52,2.2,2.31,1.07,1.18,2.1,2.41,3.09,3.66,1.98,2.52,3.78,5.18,5.38,7.97,.53,.93,1.04,1.87,1.54,2.83,.24,.48,.49,.96,.72,1.45,.71,1.46,1.35,2.94,1.95,4.45,.2,.5,.39,1.01,.58,1.52,.75,2.04,1.4,4.13,1.94,6.26,.28,1.06,.52,2.14,.75,3.22,.22,1.08,.42,2.17,.59,3.28,.17,1.1,.31,2.22,.42,3.33,.22,2.24,.34,4.51,.34,6.81s-.12,4.57-.34,6.81c-.12,1.12-.26,2.23-.42,3.33-.17,1.1-.37,2.2-.59,3.28-.09,.45-.19,.9-.29,1.35l-.06-.14c-1.53-3.56-4.92-7.47-6.11-10.69-1.19-3.22-2.38-5.26-3.56-5.09-1.19,.17,1.53,6.28,2.72,8.49,1.19,2.21,2.55,5.77,4.58,7.81,.64,.64,1.3,1.17,1.97,1.57-.54,2.1-1.19,4.17-1.92,6.19-.37,1.02-.77,2.03-1.19,3.02-.42,1-.87,1.98-1.33,2.95-.24,.49-.48,.97-.72,1.45-.49,.96-1,1.9-1.54,2.83-.34,.58-.69,1.16-1.04,1.73-1.33,2.17-2.78,4.25-4.34,6.24-.99,1.26-2.02,2.48-3.09,3.66-.71,.79-1.45,1.56-2.2,2.31-.75,.75-1.52,1.49-2.31,2.2-2.42,2.2-5,4.22-7.72,6.05-.16-.45-.25-.89-.32-1.32h0Zm0-67.67c.27,.8,.31,1.82,.31,3,0,2.37,1.87-.85,2.21-1.87,.34-1.02,1.02-3.39-.34-3.39-1.05,0-1.49-.3-2.18-.98v3.25h0Zm0-20.93c.26-.2,.54-.35,.82-.35,1.19,0,1.7-1.53,3.05-2.88,1.36-1.36-1.19-3.06-.51-4.92,.68-1.87,2.71-2.71,3.22-4.58,.31-1.14,1.76-1.33,2.54-.96-.36-.34-.72-.68-1.09-1.01-1.53-1.39-3.12-2.71-4.77-3.95-.38-.29-.77-.57-1.15-.85-.71,.56-1.43,1.29-2.12,2.05v17.45Zm0-17.45v17.45c-.83,.63-1.51,1.79-1.89,.5-.51-1.7-1.53-3.56-2.71-2.71-1.19,.85-1.02,3.73-2.55,1.36-1.53-2.38-2.88-5.77-1.19-7.64,1.7-1.87,4.07-3.39,5.43-5.26,.65-.89,1.71-2.35,2.91-3.7h0Zm0,19.31c-.96,.25-1.67,.68-3.25,.68-2.21,0-1.36-1.53-2.72-1.53s-1.02,2.54-2.21,3.73c-1.04,1.04-2.72,2.33-4.49,2.98v13.61c.81-.27,1.05-1.83,.58-3.52-.51-1.87,2.72-1.19,5.43-1.19s3.06,1.87,4.92,2.55c.94,.34,1.45,.94,1.72,1.75v-3.25c-.21-.2-.43-.44-.71-.71-1.08-1.08-.33-1.74,.71-1.08v-14.03h0Zm0,27.59v59.15c-.19-1.2-.2-2.36-1.04-3.57-1.53-2.21-3.05-6.11-1.53-8.15,1.53-2.04,2.21-3.56,.85-4.07-1.36-.51,.68-2.88-1.19-4.07-1.87-1.19-3.06-4.41-2.38-5.94,.68-1.53,.85-4.07-1.36-4.07-1.63,0-4-.92-6.02-1.14v-32.38c1-.38,2.02-.77,3.64-.77,3.22,0,5.6-1.19,5.26,1.36-.29,2.17,2.02,2.86,3.76,3.65h0Zm-12.66-23.08v-1.42c.45-.14,.77,.11,.67,.58-.08,.4-.35,.85-.67,.84Zm0-1.42v1.42c-.12,0-.25-.07-.37-.23-.47-.58-.43-.94,.18-1.12,.07-.04,.13-.06,.19-.08h0Zm0,2.79v13.61c-.08,.03-.17,.04-.26,.04-.28,0-.58,.01-.85,.06v-13.39c.11-.02,.22-.05,.34-.08,.26-.06,.52-.15,.77-.24h0Zm0,17.47v32.38c-.39-.04-.76-.05-1.12-.03v-31.95c.39-.12,.75-.26,1.12-.4h0Zm-1.12-24.53v-1.42c.45-.14,.77,.11,.67,.59-.08,.39-.35,.85-.67,.84Zm0-1.42v1.42c-.12,0-.25-.07-.37-.22-.47-.58-.43-.94,.18-1.12,.07-.03,.13-.06,.19-.08h0Zm0,8.8v13.39c-.72,.11-1.31,.44-1.18,1.3,.17,1.19-.34,1.02-1.19,1.7-.4,.32-.92,.68-1.5,.88v-8.15c1.41-.46,2.27-1.95,1-3.09-1.53-1.36-1.02-3.22-.17-4.75,.8-1.44,1.3-.92,3.05-1.28h0Zm0,17.55v31.95c-.3,.02-.58,.07-.85,.15-1.13,.35-2.12,.65-3.03,.93v-32.55c.42-.08,.91-.12,1.5-.12,.96,0,1.7-.15,2.37-.36h0Zm-3.88-17.52c.6-.26,1.26-.48,1.98-.48,2.49,0-.19-4.22,.19-5.56,.37-1.29,.21-4.51-2.17-4.44v10.48Zm0-10.48v10.48c-1.49,.64-2.54,1.5-2.82-.28-.38-2.49-.58-2.3,1.73-3.26,2.3-.96-.96-7.1,.77-6.91,.11-.02,.22-.02,.32-.03h0Zm0,19.56v8.15c-.64,.22-1.35,.24-2.06-.2-.68-.42-1.69-.3-2.54-.28v-7.87c1.55,.02,1.93,.34,3.73,.34,.3,0,.6-.05,.87-.14h0Zm0,8.91v32.55c-.87,.27-1.65,.52-2.4,.77-.59,.2-1.36-.14-2.2-.75v-30.81c.31-.16,.65-.28,1.01-.35,1.37-.27,1.85-1.1,3.59-1.41h0Zm-4.6-18.83c.39-.12,.77-.44,1.02-.99,.77-1.73,.77-4.8-.77-4.6-.09-.01-.17-.02-.25-.03v5.62h0Zm0-29.1v-2c.13-.01,.28-.01,.44,0,1.34,0,2.3,2.3,.58,2.3-.38,0-.73-.12-1.02-.3Zm0-2v2c-.95-.6-1.29-1.88,0-2h0Zm0,25.48v5.62c-.84,.26-1.74-.38-1.48-1.56,.37-1.67-.87-4.24,1.48-4.06h0Zm0,15.33v7.87c-.85,.02-1.53-.06-1.53-.91,0-1.7-1.19-2.38-.34-3.9,.85-1.53,0-3.05,1.7-3.05h.17Zm0,10.87v30.81c-1.35-.97-2.89-2.65-4.25-4-.99-.99-2.35-2.22-3.4-3.41v-11.79c.76-1.43,1.31-5.01,2.89-5.17,1.7-.17,2.89-2.04,2.89-3.56,0-1.2,.73-2.3,1.87-2.87h0Zm-7.65,2.09c.32,.01,.59-.44,.67-.84,.09-.48-.23-.73-.67-.59v1.42h0Zm0-40.11v-4.06c1.74,.02,2.5,1.57,1.38,2.86-.36,.41-.83,.84-1.38,1.2Zm0-4.06v4.06c-.32,.21-.67,.4-1.04,.56v-4.46c.38-.11,.73-.16,1.04-.15h0Zm0,42.74v1.42c-.12,0-.25-.07-.37-.22-.47-.58-.43-.94,.18-1.12,.07-.04,.13-.06,.19-.08h0Zm0,10.94v11.79c-.41-.46-.77-.92-1.04-1.36v-2.49c1.32-1.25,.72-1.67,0-2.54v-3.62c.27-.58,.6-1.12,.88-1.52,.05-.08,.11-.16,.16-.26h0Zm-1.04-5.36v-1.44c.4-.08,.67,.17,.58,.61-.07,.36-.3,.76-.58,.83Zm0-48.17v4.46c-1.34,.55-2.94,.6-4.48-.61-.04-.03-.08-.07-.12-.1v-4.56c.28-.09,.58-.08,.89,.06,1.73,.77,2.3,.58,3.64,.77l.07-.02h0Zm0,46.74v1.44c-.14,.04-.3-.02-.46-.21-.47-.58-.43-.94,.18-1.12,.1-.05,.19-.09,.28-.11h0Zm0,8.58v3.62c-.1-.12-.2-.25-.3-.39-.56-.79-.23-2.1,.3-3.23h0Zm0,6.17v2.49c-.59-.95-.78-1.79-.13-2.36,.05-.04,.09-.08,.13-.12h0Zm-4.6-77.14v-2.24h.04c.41,0,.82,.02,1.23,.03,0,.44-.11,.94-.63,1.46-.26,.26-.47,.51-.64,.75h0Zm2.42,59.09c.54-.29,.97-.04,.86,.5-.11,.54-.58,1.19-1.04,.61-.47-.58-.43-.94,.18-1.12Zm-36.56-22.17c.11,0,.22,0,.34,0,1.92,0,.51-1.35-.34-2.54v2.55h0Zm34.14-39.16v2.24c-.88,1.2-.85,1.99-2.74,1.99-2.25,0,2.74,3.54,.16,3.54s-3.38,3.22-.8,2.9c2.58-.32,2.42,.8-.32,2.09-2.74,1.29-7.08,1.29-8.37,3.38-1.29,2.09-6.12,1.93-6.12,3.86s-.8,9.01-4.51,7.73c-3.7-1.29-4.51-4.99-5.96-7.24-1.45-2.25,.8-4.67-.64-5.47-1.45-.81,3.22-4.51,1.61-3.38-1.61,1.13-4.18-.48-1.93-.97,2.25-.48,1.45-2.74-.16-2.25-1.21,.36-2.52,0-2.19-.9l.47-.24c.96-.49,1.93-.96,2.91-1.4,.68-.31,1.37-.6,2.06-.88,.31-.13,.62-.26,.93-.38,1-.4,2.03-.77,3.06-1.12,6.09-2.06,12.57-3.26,19.29-3.46,.69-.02,1.37-.04,2.06-.04,.4,0,.79,0,1.18,.01h0Zm0,17.1c-1.28,.4-2.06,2.83,0,4.56v-4.56h0Zm-34.14,107.34v-36.81c1.77,1.24,3.35,2.39,4.84,2.39,2.09,0,1.77,2.09,1.77,4.18s2.74,2.09,5.63,3.06c2.9,.96,4.18,.8,7.08,2.58,2.9,1.77,3.54,2.74,2.09,4.83-1.45,2.09-4.51,5.31-4.67,8.37-.16,3.06-2.09,5.96-4.18,6.28-2.09,.32-4.02,1.93-4.02,3.38s-1.93,.8-2.09,3.54c-.03,.44-.11,.89-.24,1.34-1.21-.53-2.4-1.1-3.57-1.69-.89-.46-1.78-.94-2.65-1.43h0Zm0-79.85v-4.7c.1,0,.21,.02,.35,.03,2.53-.12,2.89,1.81,3.62,3.38,.72,1.57,.24,3.13-2.17,2.05-.7-.31-1.31-.54-1.79-.75Zm-5.49-3.34c.46,.42,.74,.57,1.16-.16,.62-1.08,1.83-1.86,4.33-1.93v-2.55c-.36-.51-.61-.98-.47-1.32,.48-1.13-1.93-1.61-3.22-2.9-.94-.94-1.02-3.23-1.8-4.48v13.33h0Zm5.49-1.36v4.7c-1.19-.53-1.66-1-.98-2.62,.88-2.09-.05-2.17,.98-2.08h0Zm0,47.74v36.81l-.18-.11c-1.83-1.05-3.6-2.18-5.31-3.39v-35.91c.99,.12,2.07,.43,3.25,1.12,.78,.46,1.53,.97,2.24,1.47h0Zm-5.49-39.06v-2.08c1.3-.08,1.53,2.11,.29,2.11-.1,0-.2-.01-.29-.03h0Zm0-30.13v-2.01c.56,.89,.65,1.82,0,2.01Zm-2.09,28.2c.07-.08,.13-.16,.2-.24,.89-1.13,.56-2.31-.2-3.2v3.44h0Zm0-6.35c.48-.06,.91-.02,1.16,.16,.39,.28,.69,.58,.93,.81v-13.33c-.29-.47-.68-.79-1.25-.83-.39-.03-.65,0-.84,.08v13.13h0Zm2.09-23.86v2.01c-.19,.06-.45,.05-.77-.05-.48-.14-.93-.21-1.32-.22v-3.4c.06,.03,.13,.06,.2,.08,.82,.29,1.49,.92,1.9,1.58h0Zm0,30.06v2.08c-1.13-.24-1.65-1.8-.31-2.02,.11-.03,.21-.05,.31-.06h0Zm0,38.54v35.91c-.71-.5-1.41-1.02-2.09-1.54v-34.42c.63-.03,1.33-.04,2.09,.05h0Zm-2.09-7v-.42c.16,.16,.18,.32,0,.42h0Zm0-28.68c.07,.01,.14,.02,.22,.02,.91,0,.75-1.62-.22-1.56v1.54h0Zm0-25.4v-2.98c.9,1.17,.67,2.41,0,2.98Zm-3.08,24.85c.94-.45,2.03-.94,3.08-2.17v-3.44c-.75-.87-1.9-1.47-2.7-1.47-1.24,0,1.07-1.25,2.7-1.45v-13.13c-.82,.32-.1,1.46-1.41,1.86-.71,.21-1.27,.17-1.67-.06v19.86h0Zm3.08-34.04v3.4c-1.45-.03-2.1,.79-.45,2.31,.17,.16,.32,.32,.45,.49v2.98c-.37,.32-.89,.44-1.41,.23-.39-.16-.97-.38-1.67-.65v-7.27c.79-.69,1.6-1.36,2.43-2.01,.18,.21,.39,.38,.65,.51h0Zm0,33.05v1.54c-.84-.18-1.22-1.33-.23-1.5,.08-.03,.16-.04,.23-.04h0Zm0,29.79v.42c-.14,.08-.41,.12-.83,.1-1.92-.08-3.17-1.25-.75-1.08,.65,0,1.31,.28,1.58,.56h0Zm0,7.37v34.42c-1.05-.81-2.08-1.65-3.08-2.52v-31.74c.65-.04,1.29-.11,1.83-.11,.38,0,.8-.03,1.25-.05Zm-5.68-33.65c.3-.53,.6-1.1,1.04-1.55,.42-.42,.95-.68,1.55-.97v-19.86c-.5-.3-.75-.9-.75-1.71,0-.61-.77-1.47-1.85-2.25v26.33h0Zm2.59-35.06v7.27c-.76-.28-1.66-.61-2.59-.91v-3.99c.48-.46,.96-.91,1.45-1.36,.37-.34,.75-.68,1.14-1.01h0Zm0,68.86v31.74c-.38-.33-.76-.67-1.14-1.02-.49-.45-.97-.9-1.45-1.36v-29.86c.6,.52,1.59,.55,2.59,.5h0Zm-2.59-7.27v-2.21c.16-.01,.33-.02,.52-.02,1.42-.08,1.25,2.25-.25,2.25-.09,0-.18,0-.27-.02Zm-5.48-18.31c.44-.38,.74-.79,.74-1.24,0-1.45,.97-5.47,2.74-5.47,1.07,0,1.55-.7,2.01-1.51v-26.33c-1.25-.9-2.92-1.67-4.31-1.79-.4,.46-.79,.93-1.17,1.4v34.93h0Zm5.48-40.91v3.99c-1.01-.33-2.07-.64-3.04-.86,.7-.78,1.43-1.54,2.18-2.28,.29-.29,.57-.57,.86-.85h0Zm0,57.01v2.21c-1.33-.22-2.55-2,0-2.21h0Zm0,8.98v29.86c-.17-.17-.35-.33-.52-.5-.71-.85-1.52-1.95-2.43-2.52l-.12-.13c-.83-.91-1.64-1.85-2.42-2.81v-23.34c.69,.04,1.35,0,1.86-.32,1.29-.8,2.58-2.41,3.22-.8,.09,.24,.23,.43,.4,.58h0Zm-5.48-9.66v-1.29c1.31,.25,2.1,1.37,.67,1.37-.23,0-.46-.03-.67-.07h0Zm0-3.93v-1.79c1.46,.76,2.4,2.72,1.25,2.04-.47-.28-.88-.32-1.25-.26Zm-4.09-2.78c.55,.28,.8-.17,.8-1.43,0-2.25-.64-3.54,.16-4.83,.55-.88,2.17-1.62,3.13-2.46v-34.93c-.23,.28-.45,.56-.68,.85-.49,.63-.98,1.27-1.45,1.91,.07,.57,.18,1.13,.29,1.64,.48,2.25,1.61,3.86,.32,3.86s-1.29,1.93-1.45,4.99c-.08,1.54-.61,1.32-1.12,.54v29.86h0Zm4.09,.99v1.79c-.73,.11-1.31,.59-1.92,.26-.92-.5-.67-2.08,.83-2.33,.38,0,.74,.11,1.08,.29h0Zm0,4.43v1.29c-1.31-.29-2.1-1.34-.67-1.34,.23-.01,.46,0,.67,.05h0Zm0,11.5v23.34l-.08-.1c0-.19,.01-.37,.01-.55,0-1.26-2.69-3.38-4.02-5.18v-6.81c.05-.03,.1-.06,.16-.08,1.77-.8,.97-3.22,2.74-3.7,1.77-.48,.64-2.41,0-3.7-.34-.68-1.63-.64-2.89-.64v-2.52c.38,.09,.77,.08,1.12-.06,.78-.29,1.91-.05,2.97,0h0Zm-4.09-11.83v-1.66c1.46,.32,2.24,1.93,.59,1.78-.2-.02-.4-.06-.59-.12Zm-9.43-20.2c-.22,1.08-.42,2.17-.58,3.28-.17,1.1-.32,2.21-.43,3.33-.18,1.81-.29,3.64-.33,5.49,.78,.04,1.55,.09,2.24-.18,1.61-.64,4.67-1.45,6.6,1.13,.86,1.14,1.5,1.84,1.94,2.07v-29.86c-.5-.77-.97-2.08-.97-2.79,0-.61-.54-1.07-1.39-1.49-.39,.7-.77,1.42-1.14,2.13-.25,.48-.48,.96-.72,1.45-.7,1.46-1.35,2.94-1.95,4.45-.2,.5-.39,1.01-.58,1.52-.75,2.04-1.4,4.13-1.95,6.26-.27,1.06-.52,2.14-.74,3.22h0Zm9.43,18.54v1.66c-1.48-.45-2.27-1.94-.49-1.72,.17,0,.34,.02,.49,.05h0Zm0,13.55c-1.01-.23-2.04-1.14-2.74-2.31-.96-1.61,.64-3.38-1.77-3.38s-.72-5.4-.72-7-3.26,1.22-4.97,2.88c.06,.43,.12,.85,.19,1.28,.16,1.1,.36,2.2,.58,3.28,.08,.4,.17,.8,.25,1.19,.88,.52,1.78,.94,2.9,.94,2.74,0,2.9,3.7,3.7,4.99,.38,.6,1.47,.64,2.58,.64v-2.52h0Zm0,10.65v6.81c-.2-.27-.36-.53-.49-.77-.94-1.87-1.12-5.11,.49-6.04Z"/>
        </g>
        <g>
          <polygon class="cls-18" points="608.96 611.16 651.22 611.16 671.03 647.04 589.15 647.04 608.96 611.16"/>
          <path class="cls-11" d="M530.51,491.5h199.16c5.62,0,10.19,4.57,10.19,10.19v108.38c0,5.62-4.57,10.19-10.19,10.19h-199.16c-5.62,0-10.19-4.57-10.19-10.19v-108.38c0-5.62,4.57-10.19,10.19-10.19Z"/>
          <rect class="cls-41" x="527.08" y="497.44" width="206.01" height="104.62"/>
          <path class="cls-17" d="M727.49,612.58c.73,0,1.32-.59,1.32-1.32s-.59-1.32-1.32-1.32-1.32,.59-1.32,1.32,.59,1.32,1.32,1.32Z"/>
          <path class="cls-17" d="M722.32,612.58c.73,0,1.32-.59,1.32-1.32s-.59-1.32-1.32-1.32-1.32,.59-1.32,1.32,.59,1.32,1.32,1.32Z"/>
          <path class="cls-17" d="M717.15,612.58c.73,0,1.32-.59,1.32-1.32s-.59-1.32-1.32-1.32-1.32,.59-1.32,1.32,.59,1.32,1.32,1.32Z"/>
          <path class="cls-23" d="M508.55,636.2h243.08c2.98,0,5.42,2.44,5.42,5.42h0c0,2.98-2.44,5.42-5.42,5.42h-243.08c-2.98,0-5.42-2.44-5.42-5.42h0c0-2.98,2.44-5.42,5.42-5.42Z"/>
          <path class="cls-7" d="M757.05,641.62c0,2.98-2.44,5.42-5.42,5.42h-243.08c-2.98,0-5.42-2.44-5.42-5.42h253.92Z"/>
        </g>
        <polygon class="cls-18" points="733.1 497.44 527.08 602.06 733.1 602.06 733.1 497.44"/>
        <rect class="cls-33" x="545.96" y="511.83" width="63.5" height="3.53"/>
        <rect class="cls-11" x="545.96" y="526.01" width="33.33" height="3.53"/>
        <rect class="cls-11" x="667.14" y="526.01" width="47.08" height="3.53"/>
        <rect class="cls-37" x="545.96" y="538.21" width="24.49" height="3.53"/>
        <rect class="cls-37" x="579.29" y="538.21" width="111.18" height="3.53"/>
        <rect class="cls-33" x="545.96" y="550.42" width="60.23" height="3.53"/>
        <rect class="cls-37" x="615.04" y="550.42" width="67.24" height="3.53"/>
        <rect class="cls-42" x="545.96" y="562.62" width="24.49" height="3.53"/>
        <rect class="cls-37" x="579.29" y="562.62" width="62.31" height="3.53"/>
        <rect class="cls-37" x="545.96" y="574.83" width="51.5" height="3.53"/>
        <rect class="cls-37" x="606.31" y="574.83" width="63.99" height="3.53"/>
        <rect class="cls-37" x="588.14" y="526.01" width="69.23" height="3.53"/>
        <rect class="cls-37" x="700.25" y="538.21" width="13.97" height="3.53"/>
        <rect class="cls-33" x="692.05" y="550.42" width="22.17" height="3.53"/>
        <rect class="cls-42" x="651.38" y="562.62" width="62.84" height="3.53"/>
        <rect class="cls-37" x="680.07" y="574.83" width="34.15" height="3.53"/>
        <g>
          <path class="cls-44" d="M754.86,520.99c.15-.49-.03-1.04-.44-1.34-.68-.5-1.65-.18-1.89,.62l-.04,.14-.21,.68-.22,.67-.23,.67-.04,.12c-.46,1.28,1.22,2.25,2.1,1.18,.08-.11,.15-.22,.19-.35l.05-.15,.24-.69,.23-.7,.22-.7,.04-.14Z"/>
          <path class="cls-44" d="M757.62,506.37c.12-1.18-1.4-1.81-2.16-.89-.16,.21-.25,.4-.27,.67l-.05,.54-.07,.76-.08,.75-.04,.34c-.04,.29,.04,.6,.2,.84,.65,.93,2.07,.58,2.22-.54l.04-.37,.08-.78,.08-.78,.04-.54Z"/>
          <path class="cls-44" d="M757.42,491.5c-.13-1.27-1.95-1.53-2.38-.22-.05,.16-.06,.32-.04,.48v.06s.09,.8,.09,.8l.07,.8,.06,.74c.08,1.25,1.83,1.59,2.36,.35,.07-.18,.09-.34,.08-.54l-.06-.77-.08-.82-.08-.82v-.06Z"/>
          <path class="cls-44" d="M748.96,463.16c-.64-1.23-2.49-.63-2.3,.73,.03,.14,.05,.24,.12,.37l.23,.44,.39,.78,.38,.78,.07,.15c.63,1.31,2.6,.65,2.3-.79-.02-.08-.05-.16-.08-.23l-.08-.18-.39-.8-.4-.8-.23-.45Z"/>
          <path class="cls-44" d="M740.98,450.63c-.76-1.02-2.44-.31-2.16,1.03,.04,.17,.11,.31,.21,.45l.47,.61,.54,.72,.44,.6c.87,1.16,2.66,.15,2.11-1.2-.04-.08-.08-.16-.13-.23l-.46-.62-.56-.74-.47-.61Z"/>
          <path class="cls-44" d="M730.8,439.79c-1.04-.9-2.55,.3-1.86,1.53,.07,.11,.14,.2,.24,.29l.25,.22,.71,.64,.7,.65,.12,.11c.99,.95,2.57-.22,1.92-1.46-.06-.12-.13-.21-.23-.3l-.14-.13-.72-.67-.73-.66-.25-.22Z"/>
          <path class="cls-44" d="M718.85,430.99c-1.16-.71-2.45,.7-1.6,1.8,.09,.11,.19,.2,.31,.27l.8,.49,.86,.55,.38,.25c.16,.11,.37,.18,.57,.2,1.27,.09,1.83-1.52,.78-2.24l-.41-.26-.89-.56-.8-.49Z"/>
          <path class="cls-44" d="M705.61,424.3c-1.25-.49-2.25,1.03-1.35,1.98,.12,.12,.25,.21,.41,.28l.43,.17,1.02,.43,.77,.34c1.35,.58,2.4-1.26,1.18-2.13-.06-.04-.12-.07-.19-.1l-.8-.35-1.05-.44-.42-.17Z"/>
          <path class="cls-44" d="M691.55,419.66c-1.14-.31-2.02,1.06-1.24,1.98,.18,.19,.36,.31,.61,.38l.98,.25,1.17,.32,.19,.05c1.05,.29,1.92-.79,1.42-1.75-.15-.28-.43-.51-.74-.6l-.21-.06-1.19-.32-.98-.25Z"/>
          <path class="cls-44" d="M677.02,416.86c-1.37-.18-1.96,1.73-.65,2.33,.11,.05,.21,.08,.33,.09l.25,.03,1.31,.19,.82,.12c.34,.06,.68-.04,.95-.25,.83-.68,.48-1.99-.57-2.16l-.85-.13-1.34-.19-.25-.03Z"/>
          <path class="cls-44" d="M662.31,415.64c-1.15-.04-1.72,1.36-.85,2.15,.22,.18,.46,.29,.75,.29l.88,.03,1.44,.06h.09c1.28,.09,1.84-1.67,.6-2.32-.15-.07-.29-.11-.46-.12h-.11s-1.47-.07-1.47-.07l-.88-.03Z"/>
          <path class="cls-44" d="M647.55,415.76c-1.23,.08-1.6,1.67-.54,2.29,.21,.11,.42,.16,.65,.15h.27s1.58-.08,1.58-.08l.57-.02c1.4-.05,1.65-2.06,.23-2.41-.1-.02-.2-.03-.31-.03l-.59,.02-1.59,.07h-.27Z"/>
          <path class="cls-44" d="M632.87,417.01c-.29,.04-.52,.15-.73,.36-.8,.84-.14,2.18,1.02,2.07h0l1.7-.2,.71-.08c1.29-.13,1.51-1.96,.25-2.38-.17-.05-.33-.07-.5-.05l-.73,.08-1.71,.2h0Z"/>
          <path class="cls-44" d="M618.31,419.22c-.43,.07-.8,.39-.94,.8-.3,.89,.45,1.75,1.37,1.6l.35-.06,1.81-.32,.23-.04c.59-.1,1.02-.61,1.02-1.2,0-.75-.68-1.33-1.42-1.21l-.25,.04-1.82,.32-.35,.07Z"/>
          <path class="cls-44" d="M603.91,422.24c-1.39,.33-1.19,2.36,.25,2.41,.1,0,.2,0,.3-.03l1.6-.37,.78-.18c1.42-.34,1.19-2.41-.3-2.41-.08,0-.15,.01-.23,.03l-.79,.18-1.6,.37Z"/>
          <path class="cls-44" d="M589.68,425.95c-.55,.15-.93,.68-.89,1.25,.05,.78,.79,1.31,1.55,1.1l1.99-.56,.36-.1c1.27-.35,1.17-2.2-.16-2.39-.17-.02-.31-.01-.48,.03l-.37,.1-1.99,.56Z"/>
          <path class="cls-44" d="M575.64,430.37c-1.36,.49-.92,2.52,.56,2.36,.08-.01,.16-.03,.24-.06l.13-.05,1.91-.65,.25-.08c.49-.15,.84-.64,.84-1.15,0-.85-.8-1.42-1.6-1.17l-.27,.09-1.93,.66-.13,.05Z"/>
          <path class="cls-44" d="M561.88,435.61c-1.21,.52-.88,2.3,.44,2.35,.18,0,.32-.03,.49-.09l.87-.36,1.38-.56c1.17-.46,.95-2.26-.41-2.35-.18,0-.34,.02-.51,.09l-1.4,.57-.87,.36Z"/>
          <path class="cls-44" d="M548.47,441.73c-1.13,.55-.78,2.32,.57,2.32,.19,0,.34-.04,.51-.13l.45-.22,1.65-.81,.08-.04c1.13-.54,.81-2.23-.45-2.32-.21,0-.4,.02-.6,.12l-.09,.04-1.67,.82-.45,.22Z"/>
          <path class="cls-44" d="M535.52,448.76c-1.12,.64-.58,2.41,.78,2.26,.17-.02,.31-.07,.46-.16l.69-.41,1.41-.82c.32-.18,.53-.49,.59-.85,.18-1.02-.92-1.79-1.81-1.27l-1.43,.83-.69,.41Z"/>
          <path class="cls-44" d="M470.95,555.98c.31,1.28,2.2,1.23,2.4-.14,.02-.16,.01-.29-.03-.44h0s-.22-.94-.22-.94l-.2-.94-.09-.44c-.2-.99-1.4-1.34-2.09-.61-.27,.3-.37,.66-.31,1.06l.1,.48,.21,.98,.23,.97h0Z"/>
          <path class="cls-44" d="M476.54,569.85c.66,1.14,2.46,.55,2.26-.81-.03-.16-.07-.29-.15-.42l-.11-.19-.46-.81-.45-.82-.13-.25c-.67-1.29-2.63-.57-2.27,.87,.02,.09,.05,.15,.09,.23l.15,.29,.47,.86,.49,.85,.11,.19Z"/>
          <path class="cls-44" d="M485.97,581.46c.95,.87,2.42-.12,1.97-1.34-.08-.19-.16-.31-.31-.46l-.19-.17-.71-.67-.69-.68-.12-.12c-.92-.96-2.54,.05-1.99,1.35,.06,.13,.13,.24,.23,.34l.15,.16,.72,.71,.74,.7,.19,.18Z"/>
          <path class="cls-44" d="M498.24,589.97c1.17,.61,2.37-.81,1.49-1.88-.1-.12-.21-.21-.35-.28l-.32-.16-.94-.5-.85-.48c-1.1-.64-2.37,.66-1.58,1.79,.11,.14,.22,.24,.37,.33l.89,.5,.98,.52,.32,.16Z"/>
          <path class="cls-44" d="M512.12,595.34c.83,.23,1.63-.45,1.54-1.31-.05-.5-.41-.91-.89-1.05h-.02s-1.15-.33-1.15-.33l-1.13-.34c-1.26-.39-2.18,1.26-1.12,2.12,.13,.1,.24,.16,.4,.21l1.17,.35,1.19,.34h.02Z"/>
          <path class="cls-44" d="M526.71,598.04c1.4,.14,1.9-1.79,.59-2.35-.1-.04-.22-.07-.33-.08l-.45-.05-1.33-.16-.61-.08c-1.33-.18-1.94,1.61-.75,2.29,.13,.07,.26,.11,.41,.13l.64,.08,1.37,.16,.45,.05Z"/>
          <path class="cls-44" d="M541.49,598.63c1.44-.05,1.66-2.07,.24-2.42-.09-.02-.18-.03-.28-.03h-.66s-1.5,.03-1.5,.03h-.25c-1.31,0-1.71,1.78-.51,2.34,.16,.07,.31,.11,.49,.11h1.81s.66-.03,.66-.03Z"/>
          <path class="cls-44" d="M556.22,597.55c1.45-.19,1.44-2.28-.05-2.43-.08,0-.15,0-.23,0l-.89,.11-1.52,.17c-1.29,.13-1.54,1.99-.17,2.4,.15,.03,.27,.05,.42,.03l1.55-.17,.89-.11Z"/>
          <path class="cls-44" d="M570.77,595.17c.43-.08,.78-.39,.92-.81,.29-.88-.47-1.77-1.39-1.59l-1.46,.29-.92,.18c-1.42,.28-1.28,2.37,.22,2.42,.08,0,.15,0,.23-.02l.95-.18,1.46-.29Z"/>
          <path class="cls-44" d="M585.1,591.73c1.32-.36,1.14-2.3-.25-2.4-.14,0-.26,0-.39,.04l-.78,.21-1.57,.42c-.43,.12-.76,.44-.87,.88-.23,.9,.6,1.73,1.49,1.49l1.59-.42,.78-.21Z"/>
          <path class="cls-44" d="M599.18,587.43c1.38-.47,.94-2.53-.54-2.37-.08,.01-.15,.03-.23,.05l-.88,.3-1.43,.47c-1.18,.37-1.12,2.13,.18,2.37,.2,.03,.37,.02,.57-.04l1.45-.47,.88-.3Z"/>
          <path class="cls-44" d="M613,582.41c1.28-.5,.9-2.41-.5-2.36-.13,0-.25,.03-.37,.08l-2.1,.81-.17,.07c-1.36,.54-.84,2.55,.62,2.35,.09-.01,.16-.03,.24-.06l.19-.07,2.1-.81Z"/>
          <path class="cls-44" d="M618.59,566.71l22.82,1.91-13.83,18.25c-6.8-15.25-2.03-4.55-8.99-20.16Z"/>
        </g>
        <path class="cls-33" d="M679.48,675.52c1.19,0,2.38,.07,3.58,.2l1.62-5.34,11.25,3.42-1.62,5.34c4.08,2.11,7.58,5.03,10.33,8.49l4.92-2.62,5.54,10.38-4.92,2.62c1.34,4.22,1.82,8.74,1.3,13.31l5.33,1.62-3.42,11.25-5.33-1.62c-2.11,4.08-5.03,7.57-8.49,10.33l2.62,4.92-10.38,5.54-2.62-4.92c-3.11,.99-6.39,1.51-9.73,1.51v-8.43c10.2,0,19.64-6.61,22.76-16.87,3.82-12.57-3.27-25.86-15.84-29.68-2.3-.7-4.63-1.03-6.92-1.03v-8.42Zm-20.1,7.04l-2.62-4.92,10.38-5.54,2.63,4.92c3.11-.99,6.39-1.51,9.72-1.5v8.42c-10.2,0-19.64,6.61-22.76,16.87-3.82,12.57,3.27,25.85,15.84,29.68h0c2.3,.7,4.63,1.03,6.92,1.03v8.43c-1.19,0-2.39-.07-3.59-.2l-1.62,5.34-11.25-3.42,1.62-5.34c-4.08-2.11-7.57-5.03-10.33-8.49l-4.92,2.62-5.54-10.38,4.92-2.63c-1.34-4.22-1.82-8.74-1.3-13.31l-5.33-1.62,3.42-11.25,5.33,1.62c2.11-4.08,5.03-7.57,8.49-10.33Z"/>
        <path class="cls-4" d="M566.46,666.47c.62,0,1.25,.04,1.87,.11l.85-2.79,5.88,1.79-.85,2.79c2.13,1.1,3.96,2.63,5.4,4.44l2.57-1.37,2.9,5.42-2.57,1.37c.7,2.21,.95,4.57,.68,6.96l2.79,.85-1.79,5.88-2.79-.85c-1.1,2.13-2.63,3.96-4.44,5.4l1.37,2.57-5.42,2.9-1.37-2.57c-1.63,.52-3.34,.79-5.08,.79v-4.41c5.33,0,10.27-3.45,11.9-8.82,2-6.57-1.71-13.52-8.28-15.52-1.2-.37-2.42-.54-3.62-.54v-4.41Zm-10.51,3.68l-1.37-2.57,5.42-2.9,1.37,2.57c1.63-.52,3.34-.79,5.08-.79v4.41c-5.33,0-10.27,3.45-11.9,8.82-2,6.57,1.71,13.52,8.28,15.52h0c1.2,.37,2.42,.54,3.62,.54v4.41c-.62,0-1.25-.04-1.87-.11l-.85,2.79-5.88-1.79,.85-2.79c-2.13-1.1-3.96-2.63-5.4-4.44l-2.57,1.37-2.89-5.43,2.57-1.37c-.7-2.21-.95-4.57-.68-6.96l-2.79-.85,1.79-5.88,2.79,.85c1.11-2.13,2.63-3.96,4.44-5.4Z"/>
      </g>
      <g>
        <rect class="cls-6" x="589.77" y="695.66" width="52.8" height="12.14" transform="translate(-274.68 981.88) rotate(-66.17)"/>
        <rect class="cls-38" x="592.14" y="698.03" width="48.06" height="7.4" transform="translate(-274.67 981.89) rotate(-66.17)"/>
        <path class="cls-7" d="M640.78,664.98c2.82,4.07,3.51,9.46,1.37,14.32-3.28,7.42-11.96,10.79-19.38,7.51-7.42-3.28-10.79-11.96-7.51-19.38,2.15-4.86,6.6-7.98,11.5-8.63l-3.36,7.6-1.79,4.05,2.61,3.57,2.61,3.57,4.4-.48,4.4-.48,1.79-4.05,3.36-7.6Z"/>
        <path class="cls-7" d="M605.58,744.67c4.9-.66,9.36-3.78,11.5-8.63,3.28-7.43-.08-16.1-7.51-19.38-7.43-3.28-16.1,.08-19.38,7.51-2.14,4.86-1.45,10.25,1.37,14.32l3.36-7.6,1.79-4.05,4.4-.48,4.4-.48,2.61,3.57,2.61,3.57-1.79,4.05-3.36,7.6Z"/>
        <path class="cls-24" d="M609.92,740.72c2.18-1.29,3.94-3.24,5-5.63,2.75-6.23-.07-13.51-6.3-16.26s-13.51,.07-16.26,6.3c-1.06,2.4-1.31,5.01-.79,7.49l3.53-7.99,11.52-1.25,6.84,9.35-3.53,7.99Z"/>
        <path class="cls-24" d="M622.47,662.64c-2.18,1.29-3.94,3.23-5,5.63-2.75,6.23,.07,13.51,6.3,16.26,6.23,2.75,13.51-.07,16.26-6.3,1.06-2.4,1.31-5.01,.79-7.49l-3.53,7.99-11.51,1.25-6.84-9.35,3.53-7.99Z"/>
      </g>
    </g>
  </g>
</svg>