<?xml version="1.0" encoding="UTF-8"?>
<svg xmlns="http://www.w3.org/2000/svg" xmlns:xlink="http://www.w3.org/1999/xlink" viewBox="0 0 500 500">
  <defs>
    <style>
      .cls-1 {
        filter: url(#drop-shadow-7);
      }

      .cls-2 {
        fill: url(#Degradado_sin_nombre_152-2);
        filter: url(#drop-shadow-4);
      }

      .cls-3, .cls-4, .cls-5 {
        fill: #fff;
      }

      .cls-6 {
        fill: url(#Degradado_sin_nombre_152-5);
        filter: url(#drop-shadow-10);
      }

      .cls-7 {
        fill: url(#Degradado_sin_nombre_157);
      }

      .cls-8 {
        fill: url(#Degradado_sin_nombre_155);
      }

      .cls-9 {
        fill: url(#Degradado_sin_nombre_153);
        filter: url(#drop-shadow-1);
      }

      .cls-10 {
        fill: #ffc700;
      }

      .cls-11 {
        isolation: isolate;
      }

      .cls-12 {
        fill: #1e9aff;
      }

      .cls-13 {
        fill: #ebebf2;
      }

      .cls-14 {
        fill: #4b4ba0;
      }

      .cls-15 {
        fill: #3d3d89;
      }

      .cls-16 {
        fill: url(#Degradado_sin_nombre_152-3);
        filter: url(#drop-shadow-6);
      }

      .cls-17 {
        fill: url(#Degradado_sin_nombre_169);
      }

      .cls-4 {
        filter: url(#drop-shadow-5);
      }

      .cls-18 {
        fill: url(#Degradado_sin_nombre_154-2);
      }

      .cls-19 {
        fill: #a7c8ff;
      }

      .cls-19, .cls-20 {
        mix-blend-mode: multiply;
      }

      .cls-21 {
        filter: url(#drop-shadow-2);
      }

      .cls-22 {
        fill: url(#Degradado_sin_nombre_152);
        filter: url(#drop-shadow-3);
      }

      .cls-20 {
        fill: url(#Degradado_sin_nombre_156);
      }

      .cls-5 {
        opacity: .15;
      }

      .cls-23 {
        filter: url(#drop-shadow-9);
      }

      .cls-24 {
        fill: url(#Degradado_sin_nombre_152-4);
        filter: url(#drop-shadow-8);
      }

      .cls-25 {
        fill: url(#Degradado_sin_nombre_154);
      }
    </style>
    <linearGradient id="Degradado_sin_nombre_157" data-name="Degradado sin nombre 157" x1="220.55" y1="343.67" x2="279.45" y2="402.57" gradientUnits="userSpaceOnUse">
      <stop offset=".23" stop-color="#a7c8ff"/>
      <stop offset=".45" stop-color="#aacaff"/>
      <stop offset=".67" stop-color="#b6d2ff"/>
      <stop offset=".89" stop-color="#cae0ff"/>
      <stop offset="1" stop-color="#d8e9ff"/>
    </linearGradient>
    <linearGradient id="Degradado_sin_nombre_155" data-name="Degradado sin nombre 155" x1="141.81" y1="174.76" x2="358.19" y2="391.13" gradientUnits="userSpaceOnUse">
      <stop offset="0" stop-color="#d8e9ff"/>
      <stop offset="1" stop-color="#a7c8ff"/>
    </linearGradient>
    <linearGradient id="Degradado_sin_nombre_154" data-name="Degradado sin nombre 154" x1="151.32" y1="148.3" x2="349.18" y2="346.16" gradientUnits="userSpaceOnUse">
      <stop offset="0" stop-color="#562bff"/>
      <stop offset="1" stop-color="#7da5ff"/>
    </linearGradient>
    <linearGradient id="Degradado_sin_nombre_156" data-name="Degradado sin nombre 156" x1="244.13" y1="339.83" x2="255.87" y2="351.57" gradientUnits="userSpaceOnUse">
      <stop offset="0" stop-color="#a7c8ff"/>
      <stop offset="1" stop-color="#d8e9ff"/>
    </linearGradient>
    <linearGradient id="Degradado_sin_nombre_169" data-name="Degradado sin nombre 169" x1="215.31" y1="351.14" x2="284.69" y2="420.52" gradientUnits="userSpaceOnUse">
      <stop offset="0" stop-color="#a7c8ff"/>
      <stop offset="1" stop-color="#73abff"/>
    </linearGradient>
    <linearGradient id="Degradado_sin_nombre_154-2" data-name="Degradado sin nombre 154" x1="328.66" y1="288.99" x2="427.53" y2="387.85" xlink:href="#Degradado_sin_nombre_154"/>
    <linearGradient id="Degradado_sin_nombre_153" data-name="Degradado sin nombre 153" x1="351.88" y1="312.48" x2="404.31" y2="364.91" gradientUnits="userSpaceOnUse">
      <stop offset="0" stop-color="#35ffff" stop-opacity=".5"/>
      <stop offset="1" stop-color="#35e6bb"/>
    </linearGradient>
    <filter id="drop-shadow-1" filterUnits="userSpaceOnUse">
      <feOffset dx="0" dy="8.89"/>
      <feGaussianBlur result="blur" stdDeviation="5.33"/>
      <feFlood flood-color="#1172d5" flood-opacity=".4"/>
      <feComposite in2="blur" operator="in"/>
      <feComposite in="SourceGraphic"/>
    </filter>
    <filter id="drop-shadow-2" filterUnits="userSpaceOnUse">
      <feOffset dx="0" dy="3.75"/>
      <feGaussianBlur result="blur-2" stdDeviation="3.75"/>
      <feFlood flood-color="#1e85ff" flood-opacity=".4"/>
      <feComposite in2="blur-2" operator="in"/>
      <feComposite in="SourceGraphic"/>
    </filter>
    <linearGradient id="Degradado_sin_nombre_152" data-name="Degradado sin nombre 152" x1="171.22" y1="138.43" x2="310.06" y2="277.27" gradientUnits="userSpaceOnUse">
      <stop offset="0" stop-color="#35c9e2" stop-opacity=".5"/>
      <stop offset="1" stop-color="#35e6bb"/>
    </linearGradient>
    <filter id="drop-shadow-3" filterUnits="userSpaceOnUse">
      <feOffset dx="0" dy="8.89"/>
      <feGaussianBlur result="blur-3" stdDeviation="5.33"/>
      <feFlood flood-color="#1e85ff" flood-opacity=".4"/>
      <feComposite in2="blur-3" operator="in"/>
      <feComposite in="SourceGraphic"/>
    </filter>
    <linearGradient id="Degradado_sin_nombre_152-2" data-name="Degradado sin nombre 152" x1="67.51" y1="198.43" x2="130.79" y2="261.71" xlink:href="#Degradado_sin_nombre_152"/>
    <filter id="drop-shadow-4" filterUnits="userSpaceOnUse">
      <feOffset dx="0" dy="8.89"/>
      <feGaussianBlur result="blur-4" stdDeviation="5.33"/>
      <feFlood flood-color="#1e85ff" flood-opacity=".4"/>
      <feComposite in2="blur-4" operator="in"/>
      <feComposite in="SourceGraphic"/>
    </filter>
    <filter id="drop-shadow-5" filterUnits="userSpaceOnUse">
      <feOffset dx="0" dy="3.75"/>
      <feGaussianBlur result="blur-5" stdDeviation="3.75"/>
      <feFlood flood-color="#1e85ff" flood-opacity=".4"/>
      <feComposite in2="blur-5" operator="in"/>
      <feComposite in="SourceGraphic"/>
    </filter>
    <linearGradient id="Degradado_sin_nombre_152-3" data-name="Degradado sin nombre 152" x1="135.5" y1="275.85" x2="203.22" y2="343.57" xlink:href="#Degradado_sin_nombre_152"/>
    <filter id="drop-shadow-6" filterUnits="userSpaceOnUse">
      <feOffset dx="0" dy="8.89"/>
      <feGaussianBlur result="blur-6" stdDeviation="5.33"/>
      <feFlood flood-color="#1e85ff" flood-opacity=".4"/>
      <feComposite in2="blur-6" operator="in"/>
      <feComposite in="SourceGraphic"/>
    </filter>
    <filter id="drop-shadow-7" filterUnits="userSpaceOnUse">
      <feOffset dx="0" dy="3.75"/>
      <feGaussianBlur result="blur-7" stdDeviation="3.75"/>
      <feFlood flood-color="#1e85ff" flood-opacity=".4"/>
      <feComposite in2="blur-7" operator="in"/>
      <feComposite in="SourceGraphic"/>
    </filter>
    <linearGradient id="Degradado_sin_nombre_152-4" data-name="Degradado sin nombre 152" x1="350.61" y1="118.65" x2="440.56" y2="208.6" xlink:href="#Degradado_sin_nombre_152"/>
    <filter id="drop-shadow-8" filterUnits="userSpaceOnUse">
      <feOffset dx="0" dy="8.89"/>
      <feGaussianBlur result="blur-8" stdDeviation="5.33"/>
      <feFlood flood-color="#1e85ff" flood-opacity=".4"/>
      <feComposite in2="blur-8" operator="in"/>
      <feComposite in="SourceGraphic"/>
    </filter>
    <filter id="drop-shadow-9" filterUnits="userSpaceOnUse">
      <feOffset dx="0" dy="3.75"/>
      <feGaussianBlur result="blur-9" stdDeviation="3.75"/>
      <feFlood flood-color="#1e85ff" flood-opacity=".4"/>
      <feComposite in2="blur-9" operator="in"/>
      <feComposite in="SourceGraphic"/>
    </filter>
    <linearGradient id="Degradado_sin_nombre_152-5" data-name="Degradado sin nombre 152" x1="67.51" y1="114.35" x2="130.79" y2="177.63" xlink:href="#Degradado_sin_nombre_152"/>
    <filter id="drop-shadow-10" filterUnits="userSpaceOnUse">
      <feOffset dx="0" dy="8.89"/>
      <feGaussianBlur result="blur-10" stdDeviation="5.33"/>
      <feFlood flood-color="#1e85ff" flood-opacity=".4"/>
      <feComposite in2="blur-10" operator="in"/>
      <feComposite in="SourceGraphic"/>
    </filter>
  </defs>
  <g class="cls-11">
    <g id="BACKGROUND">
      <rect class="cls-3" width="500" height="500"/>
    </g>
    <g id="OBJECTS">
      <g>
        <path class="cls-13" d="M389.45,134.67c0-3.21-.32-6.34-.94-9.36l15.66-9.04-14.66-25.4-15.61,9.01c-4.72-4.23-10.32-7.51-16.48-9.55v-17.99h-29.33v17.99c-2.74,.91-5.37,2.05-7.86,3.42-.3,.16-.59,.34-.88,.51-.29,.17-.59,.33-.88,.51-2.43,1.47-4.74,3.17-6.89,5.09l-15.58-9-14.66,25.4,15.58,9c-.59,2.82-.91,5.67-.96,8.51,0,.34,0,.69,0,1.03,0,.33,0,.66,0,1,.06,2.84,.38,5.69,.96,8.52l-15.58,9,14.66,25.4,15.58-9c4.84,4.32,10.48,7.52,16.5,9.5v18.02h29.33v-18.08c2.93-.98,5.8-2.26,8.58-3.87,2.84-1.64,5.45-3.54,7.8-5.65l15.71,9.07,14.66-25.4-15.71-9.07c.64-3.09,.99-6.3,.99-9.58Zm-27.49,20.67c-.13,.12-.25,.23-.38,.35-.51,.46-1.03,.89-1.56,1.31-.25,.19-.5,.38-.76,.57-.44,.32-.88,.62-1.34,.91-.36,.23-.73,.45-1.1,.67-.37,.22-.75,.42-1.13,.62-.48,.25-.97,.48-1.46,.7-.29,.13-.58,.25-.87,.37-.63,.25-1.26,.49-1.91,.7-.16,.05-.33,.11-.49,.16-2.59,.78-5.34,1.22-8.19,1.22-15.6,0-28.25-12.65-28.25-28.25,0-3.82,.77-7.46,2.14-10.78,.07-.16,.13-.31,.2-.47,.25-.58,.54-1.15,.83-1.72,.19-.36,.38-.71,.58-1.06,.2-.35,.41-.69,.63-1.03,.34-.53,.69-1.06,1.07-1.57,.1-.14,.2-.27,.3-.41,2.19-2.85,4.96-5.34,8.27-7.25,13.51-7.8,30.78-3.17,38.58,10.34,1.42,2.47,2.43,5.06,3.04,7.7,.04,.17,.07,.33,.11,.5,.14,.67,.26,1.34,.35,2.01,.04,.31,.08,.63,.11,.94,.06,.54,.1,1.08,.12,1.62,.02,.43,.03,.86,.03,1.28,0,.43,0,.86-.03,1.29-.03,.54-.06,1.07-.12,1.61-.03,.32-.07,.63-.11,.95-.09,.67-.21,1.34-.35,2-.04,.17-.07,.34-.11,.51-.62,2.64-1.62,5.23-3.04,7.7-1.42,2.47-3.17,4.63-5.15,6.48Z"/>
        <path class="cls-13" d="M459.12,223.98c0-1.81-.18-3.57-.53-5.28l8.83-5.1-8.27-14.32-8.8,5.08c-2.66-2.39-5.82-4.23-9.29-5.38v-10.14h-16.53v10.14c-1.54,.51-3.03,1.16-4.43,1.93-.17,.09-.33,.19-.5,.28-.16,.1-.33,.19-.49,.29-1.37,.83-2.67,1.79-3.89,2.87l-8.78-5.07-8.27,14.32,8.78,5.07c-.33,1.59-.51,3.2-.54,4.8,0,.19,0,.39,0,.58,0,.19,0,.37,0,.56,.03,1.6,.21,3.21,.54,4.8l-8.78,5.07,8.27,14.32,8.78-5.07c2.73,2.43,5.91,4.24,9.3,5.35v10.16h16.53v-10.19c1.65-.55,3.27-1.28,4.83-2.18,1.6-.93,3.07-2,4.4-3.18l8.85,5.11,8.27-14.32-8.85-5.11c.36-1.74,.56-3.55,.56-5.4Zm-15.5,11.65c-.07,.07-.14,.13-.22,.2-.28,.26-.58,.5-.88,.74-.14,.11-.28,.22-.43,.32-.25,.18-.5,.35-.75,.51-.2,.13-.41,.26-.62,.38-.21,.12-.42,.24-.64,.35-.27,.14-.54,.27-.82,.4-.16,.07-.33,.14-.49,.21-.35,.14-.71,.28-1.08,.39-.09,.03-.18,.06-.28,.09-1.46,.44-3.01,.69-4.62,.69-8.79,0-15.92-7.13-15.92-15.92,0-2.15,.43-4.2,1.21-6.08,.04-.09,.07-.18,.11-.26,.14-.33,.3-.65,.47-.97,.11-.2,.21-.4,.33-.6,.11-.2,.23-.39,.35-.58,.19-.3,.39-.6,.6-.89,.06-.08,.11-.15,.17-.23,1.24-1.61,2.8-3.01,4.66-4.08,7.62-4.4,17.35-1.79,21.75,5.83,.8,1.39,1.37,2.85,1.72,4.34,.02,.09,.04,.19,.06,.28,.08,.38,.14,.75,.2,1.13,.02,.18,.04,.35,.06,.53,.03,.3,.05,.61,.07,.91,.01,.24,.02,.48,.02,.72,0,.24,0,.49-.02,.73-.01,.3-.04,.61-.07,.91-.02,.18-.04,.36-.06,.53-.05,.38-.12,.75-.2,1.13-.02,.1-.04,.19-.06,.29-.35,1.49-.91,2.95-1.71,4.34-.8,1.39-1.79,2.61-2.9,3.66Z"/>
        <path class="cls-13" d="M137.56,322.09c-.91-2.34-2.03-4.54-3.34-6.58l8.89-11.05-17.92-14.42-8.86,11.01c-4.65-1.76-9.67-2.57-14.75-2.31l-5.1-13.16-21.45,8.31,5.1,13.16c-1.75,1.44-3.34,3.02-4.78,4.73-.17,.2-.33,.41-.5,.62-.17,.21-.34,.41-.5,.62-1.36,1.76-2.57,3.66-3.6,5.68l-13.94-2.17-3.53,22.73,13.94,2.17c.37,2.23,.94,4.41,1.71,6.5,.09,.25,.19,.5,.29,.76,.09,.24,.18,.49,.28,.73,.85,2.06,1.89,4.05,3.12,5.96l-8.85,10.99,17.92,14.42,8.85-10.99c4.76,1.78,9.79,2.53,14.76,2.27l5.1,13.18,21.45-8.31-5.12-13.22c1.86-1.55,3.6-3.3,5.18-5.26,1.61-2.01,2.98-4.13,4.11-6.34l14.05,2.18,3.53-22.73-14.05-2.18c-.4-2.44-1.06-4.88-1.99-7.29Zm-14.25,22.9c-.06,.12-.12,.24-.18,.36-.24,.48-.5,.94-.77,1.4-.13,.21-.26,.42-.4,.63-.23,.36-.47,.7-.72,1.05-.2,.27-.4,.54-.62,.8-.21,.26-.43,.52-.65,.77-.28,.32-.57,.63-.87,.93-.17,.18-.35,.35-.53,.52-.39,.36-.79,.72-1.2,1.05-.1,.09-.21,.17-.32,.25-1.67,1.31-3.56,2.4-5.65,3.21-11.41,4.42-24.24-1.25-28.66-12.66-1.08-2.79-1.55-5.67-1.49-8.49,0-.13,0-.26,.01-.4,.02-.5,.06-.99,.12-1.49,.04-.31,.07-.63,.12-.94,.05-.31,.11-.62,.17-.93,.1-.49,.21-.97,.34-1.45,.03-.13,.07-.26,.11-.38,.79-2.71,2.11-5.31,3.99-7.64,7.67-9.53,21.61-11.04,31.14-3.37,1.74,1.4,3.21,3.02,4.41,4.77,.08,.11,.15,.22,.22,.34,.29,.45,.57,.91,.83,1.37,.12,.22,.24,.43,.35,.66,.19,.38,.38,.76,.55,1.15,.13,.31,.26,.62,.38,.93,.12,.32,.24,.63,.35,.95,.13,.4,.26,.8,.37,1.21,.07,.24,.13,.48,.19,.72,.12,.52,.23,1.04,.31,1.56,.02,.13,.04,.27,.06,.4,.3,2.1,.3,4.28-.04,6.49-.34,2.21-1.01,4.29-1.93,6.2Z"/>
        <g>
          <path class="cls-13" d="M249.35,123.94H49.38c-1.41,0-2.56-1.15-2.56-2.56h0c0-1.41,1.15-2.56,2.56-2.56H249.35c1.41,0,2.56,1.15,2.56,2.56h0c0,1.41-1.15,2.56-2.56,2.56Z"/>
          <path class="cls-13" d="M249.35,142.28H49.38c-1.41,0-2.56-1.15-2.56-2.56h0c0-1.41,1.15-2.56,2.56-2.56H249.35c1.41,0,2.56,1.15,2.56,2.56h0c0,1.41-1.15,2.56-2.56,2.56Z"/>
          <path class="cls-13" d="M249.35,160.62H49.38c-1.41,0-2.56-1.15-2.56-2.56h0c0-1.41,1.15-2.56,2.56-2.56H249.35c1.41,0,2.56,1.15,2.56,2.56h0c0,1.41-1.15,2.56-2.56,2.56Z"/>
          <rect class="cls-13" x="46.82" y="173.83" width="205.09" height="5.12" rx="2.56" ry="2.56"/>
          <path class="cls-13" d="M249.35,197.29H49.38c-1.41,0-2.56-1.15-2.56-2.56h0c0-1.41,1.15-2.56,2.56-2.56H249.35c1.41,0,2.56,1.15,2.56,2.56h0c0,1.41-1.15,2.56-2.56,2.56Z"/>
          <path class="cls-13" d="M249.35,215.63H49.38c-1.41,0-2.56-1.15-2.56-2.56h0c0-1.41,1.15-2.56,2.56-2.56H249.35c1.41,0,2.56,1.15,2.56,2.56h0c0,1.41-1.15,2.56-2.56,2.56Z"/>
          <path class="cls-13" d="M249.35,233.96H49.38c-1.41,0-2.56-1.15-2.56-2.56h0c0-1.41,1.15-2.56,2.56-2.56H249.35c1.41,0,2.56,1.15,2.56,2.56h0c0,1.41-1.15,2.56-2.56,2.56Z"/>
          <path class="cls-13" d="M249.35,252.3H49.38c-1.41,0-2.56-1.15-2.56-2.56h0c0-1.41,1.15-2.56,2.56-2.56H249.35c1.41,0,2.56,1.15,2.56,2.56h0c0,1.41-1.15,2.56-2.56,2.56Z"/>
          <path class="cls-13" d="M249.35,270.64H49.38c-1.41,0-2.56-1.15-2.56-2.56h0c0-1.41,1.15-2.56,2.56-2.56H249.35c1.41,0,2.56,1.15,2.56,2.56h0c0,1.41-1.15,2.56-2.56,2.56Z"/>
        </g>
      </g>
      <g>
        <ellipse class="cls-13" cx="250" cy="386.76" rx="153.55" ry="14.5"/>
        <g>
          <polygon class="cls-7" points="294.5 387.53 205.5 387.53 220.81 343.41 279.19 343.41 294.5 387.53"/>
          <g>
            <path class="cls-8" d="M107.41,209.16H392.59v141.22c0,8.45-6.86,15.3-15.3,15.3H122.71c-8.45,0-15.3-6.86-15.3-15.3V209.16h0Z"/>
            <path class="cls-15" d="M122.71,165.29h254.57c8.45,0,15.3,6.86,15.3,15.3v148.88H107.41V180.59c0-8.45,6.86-15.3,15.3-15.3Z"/>
            <rect class="cls-25" x="118.88" y="180.75" width="262.74" height="132.97"/>
          </g>
          <circle class="cls-20" cx="250" cy="345.7" r="8.3"/>
          <path class="cls-17" d="M317.68,387.53H182.32c0-4.54,3.68-8.23,8.23-8.23h118.91c4.54,0,8.23,3.68,8.23,8.23h0Z"/>
        </g>
      </g>
      <g>
        <ellipse class="cls-13" cx="378.1" cy="410.82" rx="62.22" ry="8.9"/>
        <g>
          <g>
            <rect class="cls-14" x="338.08" y="270.01" width="80.04" height="137.37" rx="8.89" ry="8.89"/>
            <rect class="cls-18" x="338.08" y="279.58" width="80.04" height="117.68"/>
            <rect class="cls-9" x="349.28" y="309.88" width="57.63" height="57.63" rx="8.89" ry="8.89"/>
            <g class="cls-21">
              <path class="cls-3" d="M378.1,360.76c-12.16,0-22.06-9.9-22.06-22.06s9.9-22.06,22.06-22.06,22.06,9.9,22.06,22.06-9.9,22.06-22.06,22.06Zm0-40.05c-9.92,0-17.98,8.07-17.98,17.99s8.07,17.98,17.98,17.98,17.98-8.07,17.98-17.98-8.07-17.99-17.98-17.99Z"/>
              <polygon class="cls-3" points="376.5 347.08 368.79 340.29 372.02 336.62 376.05 340.17 383.72 331.39 387.4 334.61 376.5 347.08"/>
            </g>
          </g>
          <path class="cls-14" d="M388.13,284.24h-20.06c-3.09,0-5.6-2.51-5.6-5.6h31.26c0,3.09-2.51,5.6-5.6,5.6Z"/>
          <path class="cls-5" d="M385.33,279.58h-14.48c-.52,0-.93-.42-.93-.93h0c0-.52,.42-.93,.93-.93h14.48c.51,0,.93,.42,.93,.93h0c0,.52-.42,.93-.93,.93Z"/>
        </g>
      </g>
      <g>
        <g>
          <rect class="cls-22" x="153.07" y="151.39" width="175.15" height="112.93" rx="8.89" ry="8.89"/>
          <rect class="cls-15" x="161.95" y="160.27" width="157.37" height="95.15"/>
          <g>
            <rect class="cls-10" x="178.73" y="172.99" width="16.37" height="2.21"/>
            <rect class="cls-10" x="200.28" y="172.99" width="33.5" height="2.21"/>
            <rect class="cls-3" x="185.68" y="181.95" width="16.37" height="2.21"/>
            <rect class="cls-12" x="207.23" y="181.95" width="95.72" height="2.21"/>
            <rect class="cls-3" x="185.68" y="190.26" width="16.37" height="2.21"/>
            <rect class="cls-12" x="207.23" y="190.26" width="95.72" height="2.21"/>
            <rect class="cls-3" x="185.68" y="198.58" width="16.37" height="2.21"/>
            <rect class="cls-12" x="207.23" y="198.58" width="95.72" height="2.21"/>
            <rect class="cls-3" x="185.68" y="206.9" width="16.37" height="2.21"/>
            <rect class="cls-10" x="178.73" y="215.7" width="16.37" height="2.21"/>
            <rect class="cls-10" x="200.28" y="215.7" width="33.5" height="2.21"/>
            <rect class="cls-3" x="207.23" y="224.66" width="61.72" height="2.21"/>
            <rect class="cls-3" x="207.23" y="232.97" width="61.72" height="2.21"/>
            <rect class="cls-12" x="196.62" y="232.97" width="5.43" height="2.21"/>
            <rect class="cls-12" x="185.68" y="241.29" width="16.37" height="2.21"/>
            <rect class="cls-3" x="207.23" y="241.29" width="61.72" height="2.21"/>
            <rect class="cls-3" x="273.4" y="224.66" width="30.25" height="2.21"/>
            <rect class="cls-3" x="273.4" y="232.97" width="30.25" height="2.21"/>
            <rect class="cls-3" x="273.4" y="241.29" width="30.25" height="2.21"/>
            <rect class="cls-12" x="207.23" y="206.9" width="95.72" height="2.21"/>
          </g>
        </g>
        <g>
          <rect class="cls-2" x="64.91" y="195.83" width="68.49" height="68.49" rx="8.89" ry="8.89"/>
          <path class="cls-4" d="M114.93,230.03c0-1.08-.11-2.14-.32-3.16l5.29-3.06-4.96-8.58-5.28,3.05c-1.6-1.43-3.49-2.54-5.57-3.23v-6.08h-9.91v6.08c-.93,.31-1.81,.69-2.65,1.16-.1,.05-.2,.11-.3,.17-.1,.06-.2,.11-.3,.17-.82,.5-1.6,1.07-2.33,1.72l-5.27-3.04-4.96,8.58,5.27,3.04c-.2,.95-.31,1.92-.33,2.88,0,.12,0,.23,0,.35,0,.11,0,.22,0,.34,.02,.96,.13,1.92,.33,2.88l-5.27,3.04,4.96,8.58,5.27-3.04c1.64,1.46,3.54,2.54,5.58,3.21v6.09h9.91v-6.11c.99-.33,1.96-.77,2.9-1.31,.96-.56,1.84-1.2,2.64-1.91l5.31,3.06,4.96-8.58-5.31-3.06c.22-1.05,.33-2.13,.33-3.24Zm-9.29,6.99s-.09,.08-.13,.12c-.17,.15-.35,.3-.53,.44-.08,.07-.17,.13-.26,.19-.15,.11-.3,.21-.45,.31-.12,.08-.25,.15-.37,.23-.13,.07-.25,.14-.38,.21-.16,.08-.33,.16-.49,.24-.1,.04-.2,.09-.29,.13-.21,.09-.43,.17-.65,.24-.06,.02-.11,.04-.17,.05-.88,.27-1.8,.41-2.77,.41-5.27,0-9.55-4.27-9.55-9.55,0-1.29,.26-2.52,.72-3.64,.02-.05,.04-.1,.07-.16,.09-.2,.18-.39,.28-.58,.06-.12,.13-.24,.2-.36,.07-.12,.14-.23,.21-.35,.12-.18,.23-.36,.36-.53,.03-.05,.07-.09,.1-.14,.74-.96,1.68-1.8,2.79-2.45,4.57-2.64,10.4-1.07,13.04,3.49,.48,.83,.82,1.71,1.03,2.6,.01,.06,.02,.11,.04,.17,.05,.23,.09,.45,.12,.68,.01,.11,.03,.21,.04,.32,.02,.18,.03,.36,.04,.55,0,.14,0,.29,0,.43,0,.15,0,.29,0,.44,0,.18-.02,.36-.04,.54-.01,.11-.02,.21-.04,.32-.03,.23-.07,.45-.12,.68-.01,.06-.02,.11-.04,.17-.21,.89-.55,1.77-1.03,2.6-.48,.83-1.07,1.57-1.74,2.19Z"/>
        </g>
        <g>
          <rect class="cls-16" x="126.23" y="279.91" width="86.26" height="59.6" rx="8.89" ry="8.89"/>
          <g class="cls-1">
            <polygon class="cls-3" points="156.88 295.66 140.65 309.71 156.88 323.77 156.88 316.15 149.45 309.71 156.88 303.27 156.88 295.66"/>
            <polygon class="cls-3" points="181.84 323.77 198.07 309.71 181.84 295.66 181.84 303.27 189.27 309.71 181.84 316.15 181.84 323.77"/>
            <polygon class="cls-3" points="167.79 328.35 160.91 328.35 170.93 291.07 177.8 291.07 167.79 328.35"/>
          </g>
        </g>
        <g>
          <rect class="cls-24" x="348.01" y="116.05" width="95.15" height="95.15" rx="8.89" ry="8.89"/>
          <g class="cls-23">
            <path class="cls-3" d="M419.16,146.07c-1.96,0-3.82,.44-5.48,1.22-2.28-8.14-9.74-14.11-18.61-14.11s-16.09,5.78-18.5,13.72c-1.42-.54-2.95-.83-4.55-.83-7.12,0-12.89,5.77-12.89,12.89h72.92c0-7.12-5.77-12.89-12.89-12.89Z"/>
            <polygon class="cls-3" points="382.17 180.65 395.58 194.06 408.99 180.65 399.96 180.65 399.96 164.83 391.21 164.83 391.21 180.65 382.17 180.65"/>
          </g>
        </g>
        <g>
          <rect class="cls-6" x="64.91" y="111.74" width="68.49" height="68.49" rx="8.89" ry="8.89"/>
          <rect class="cls-15" x="73" y="119.83" width="52.31" height="52.31"/>
          <g>
            <rect class="cls-3" x="81.84" y="130.02" width="4.81" height="2.21"/>
            <rect class="cls-12" x="89.18" y="130.02" width="24.61" height="2.21"/>
            <rect class="cls-3" x="81.84" y="137.44" width="7.48" height="2.21"/>
            <rect class="cls-12" x="91.84" y="137.44" width="24.61" height="2.21"/>
            <rect class="cls-3" x="81.84" y="151.41" width="4.81" height="2.21"/>
            <rect class="cls-12" x="89.18" y="151.41" width="24.61" height="2.21"/>
            <rect class="cls-3" x="81.84" y="158.84" width="7.48" height="2.21"/>
            <rect class="cls-12" x="91.84" y="158.84" width="24.61" height="2.21"/>
            <rect class="cls-3" x="77.4" y="144.87" width="7.48" height="2.21"/>
            <rect class="cls-12" x="87.4" y="144.87" width="33.5" height="2.21"/>
          </g>
        </g>
      </g>
      <g>
        <rect class="cls-19" x="251.86" y="278.04" width="20.06" height="20.06"/>
        <rect class="cls-19" x="281.01" y="278.04" width="20.06" height="20.06"/>
        <rect class="cls-19" x="310.15" y="278.04" width="20.06" height="20.06"/>
        <g>
          <rect class="cls-19" x="339.91" y="223.55" width="30.25" height="2.21"/>
          <rect class="cls-19" x="339.91" y="231.87" width="30.25" height="2.21"/>
          <rect class="cls-19" x="339.91" y="240.18" width="30.25" height="2.21"/>
        </g>
      </g>
    </g>
  </g>
</svg>