<?xml version="1.0" encoding="UTF-8"?>
<svg id="OBJECTS" xmlns="http://www.w3.org/2000/svg" xmlns:xlink="http://www.w3.org/1999/xlink" viewBox="0 0 313.55 89.39">
  <defs>
    <style>
      .cls-1 {
        fill: url(#Degradado_sin_nombre_35);
      }

      .cls-2, .cls-3 {
        font-family: Lato-Black, Lato;
        font-size: 38.36px;
        font-weight: 800;
      }

      .cls-2, .cls-4 {
        fill: #222;
      }

      .cls-3, .cls-5 {
        fill: #1976d2;
      }

      .cls-6 {
        letter-spacing: -.1em;
      }

      .cls-5, .cls-4 {
        font-family: Lato-Bold, Lato;
        font-size: 85.79px;
        font-weight: 700;
      }

      .cls-7 {
        letter-spacing: -.03em;
      }
    </style>
    <linearGradient id="Degradado_sin_nombre_35" data-name="Degradado sin nombre 35" x1="24.88" y1="51.9" x2="168.31" y2="51.9" gradientUnits="userSpaceOnUse">
      <stop offset="0" stop-color="#1976d2"/>
      <stop offset=".99" stop-color="#1976d2"/>
    </linearGradient>
  </defs>
  <text class="cls-4" transform="translate(0 73.91)"><tspan x="0" y="0">{</tspan></text>
  <text class="cls-5" transform="translate(287.82 73.91)"><tspan x="0" y="0">}</tspan></text>
  <text class="cls-2" transform="translate(176.07 65.87)"><tspan x="0" y="0">RI</tspan><tspan class="cls-6" x="37.78" y="0">V</tspan><tspan x="62.22" y="0">AS</tspan></text>
  <g>
    <text class="cls-3" transform="translate(24.88 65.87)"><tspan x="0" y="0">VIC</tspan><tspan class="cls-7" x="65.75" y="0">T</tspan><tspan x="87.58" y="0">OR</tspan></text>
    <g>
      <path class="cls-1" d="M24.88,37.92h5.22c.56,0,1.02,.13,1.38,.38,.36,.26,.61,.59,.77,1.02l5.41,14.96c.24,.65,.49,1.36,.74,2.13,.25,.77,.48,1.57,.7,2.42,.18-.84,.39-1.65,.62-2.42,.24-.77,.47-1.48,.7-2.13l5.37-14.96c.13-.36,.38-.68,.75-.97,.37-.29,.82-.43,1.36-.43h5.26l-11.2,27.95h-5.87l-11.2-27.95Z"/>
      <path class="cls-1" d="M62.55,65.87h-6.52v-27.95h6.52v27.95Z"/>
      <path class="cls-1" d="M86.51,58.64c.15,0,.31,.03,.46,.09s.3,.16,.44,.3l2.57,2.71c-1.13,1.47-2.54,2.58-4.23,3.33-1.69,.75-3.7,1.12-6.01,1.12-2.12,0-4.02-.36-5.71-1.08-1.68-.72-3.11-1.72-4.28-2.99s-2.07-2.78-2.69-4.53c-.63-1.75-.94-3.64-.94-5.69s.36-4,1.07-5.74c.72-1.75,1.72-3.25,3-4.52,1.29-1.27,2.82-2.25,4.61-2.95,1.79-.7,3.77-1.06,5.93-1.06,1.05,0,2.04,.09,2.96,.28,.93,.19,1.79,.44,2.6,.77s1.55,.72,2.23,1.17c.68,.45,1.28,.96,1.8,1.51l-2.19,2.93c-.14,.18-.31,.34-.5,.49-.19,.15-.46,.22-.81,.22-.23,0-.45-.05-.65-.15-.2-.1-.42-.23-.65-.37-.23-.15-.48-.31-.76-.48s-.6-.33-.98-.48c-.38-.15-.82-.27-1.32-.37-.5-.1-1.1-.15-1.77-.15-1.18,0-2.25,.21-3.22,.62-.97,.42-1.81,1.01-2.5,1.78-.7,.77-1.24,1.71-1.63,2.81-.39,1.1-.59,2.33-.59,3.7s.19,2.7,.59,3.82c.39,1.11,.92,2.05,1.59,2.81s1.45,1.34,2.35,1.74c.9,.4,1.85,.59,2.88,.59,.59,0,1.12-.03,1.61-.09,.49-.06,.94-.16,1.35-.3,.42-.14,.81-.32,1.19-.55,.38-.22,.76-.5,1.14-.83,.15-.13,.32-.23,.5-.32,.18-.08,.36-.12,.56-.12Z"/>
      <path class="cls-1" d="M113.23,37.92v5.14h-7.86v22.81h-6.48v-22.81h-7.86v-5.14h22.21Z"/>
      <path class="cls-1" d="M142.34,51.89c0,2.02-.35,3.9-1.04,5.64-.7,1.74-1.68,3.25-2.94,4.54-1.27,1.29-2.79,2.29-4.57,3.02-1.78,.73-3.76,1.09-5.94,1.09s-4.16-.36-5.95-1.09c-1.79-.73-3.32-1.74-4.59-3.02-1.27-1.29-2.26-2.8-2.95-4.54-.7-1.74-1.05-3.62-1.05-5.64s.35-3.9,1.05-5.64c.7-1.74,1.68-3.25,2.95-4.53,1.27-1.28,2.8-2.28,4.59-3.01,1.79-.73,3.77-1.09,5.95-1.09s4.15,.37,5.94,1.1,3.31,1.74,4.57,3.02c1.27,1.28,2.25,2.79,2.94,4.53,.7,1.74,1.04,3.61,1.04,5.62Zm-6.64,0c0-1.38-.18-2.62-.54-3.73s-.87-2.04-1.54-2.81c-.67-.77-1.49-1.35-2.46-1.76s-2.08-.61-3.32-.61-2.37,.21-3.35,.61-1.8,1-2.47,1.76c-.67,.77-1.19,1.7-1.54,2.81-.36,1.11-.54,2.35-.54,3.73s.18,2.64,.54,3.75c.36,1.11,.87,2.04,1.54,2.81s1.5,1.35,2.47,1.75c.98,.4,2.09,.6,3.35,.6s2.35-.2,3.32-.6c.97-.4,1.79-.99,2.46-1.75s1.19-1.7,1.54-2.81c.36-1.11,.54-2.36,.54-3.75Z"/>
      <path class="cls-1" d="M151.93,55.53v10.34h-6.48v-27.95h9.09c2.02,0,3.74,.21,5.17,.62s2.59,.99,3.49,1.74c.9,.74,1.56,1.62,1.97,2.63,.41,1.01,.61,2.11,.61,3.3,0,.91-.12,1.76-.36,2.57s-.6,1.55-1.08,2.23c-.48,.68-1.07,1.29-1.76,1.83-.7,.54-1.5,.98-2.41,1.32,.43,.22,.84,.49,1.22,.81,.38,.32,.71,.71,.99,1.17l5.95,9.72h-5.87c-1.09,0-1.87-.41-2.34-1.23l-4.64-8.11c-.21-.36-.45-.61-.72-.77-.28-.15-.66-.23-1.16-.23h-1.65Zm0-4.47h2.61c.88,0,1.63-.11,2.25-.33,.62-.22,1.13-.53,1.52-.93s.68-.86,.86-1.39c.18-.53,.27-1.1,.27-1.72,0-1.23-.4-2.19-1.2-2.88s-2.04-1.04-3.71-1.04h-2.61v8.29Z"/>
    </g>
  </g>
</svg>