<?xml version="1.0" encoding="UTF-8"?>
<svg id="OBJECTS" xmlns="http://www.w3.org/2000/svg" viewBox="0 0 400.11 327.05">
  <defs>
    <style>
      .cls-1, .cls-2, .cls-3, .cls-4, .cls-5, .cls-6, .cls-7, .cls-8 {
        fill: none;
      }

      .cls-1, .cls-2, .cls-3, .cls-4, .cls-8, .cls-9 {
        stroke-width: 1.13px;
      }

      .cls-1, .cls-3, .cls-10, .cls-6, .cls-7, .cls-8, .cls-9 {
        stroke-miterlimit: 10;
      }

      .cls-1, .cls-4 {
        stroke: #289df2;
      }

      .cls-2 {
        stroke-dasharray: 0 0 0 5.64;
      }

      .cls-2, .cls-3 {
        stroke: #ff4d6b;
      }

      .cls-2, .cls-4, .cls-5 {
        stroke-linecap: round;
        stroke-linejoin: round;
      }

      .cls-11, .cls-12 {
        letter-spacing: .06em;
      }

      .cls-13 {
        fill: #fff;
      }

      .cls-14 {
        fill: #282e5c;
      }

      .cls-15 {
        letter-spacing: .05em;
      }

      .cls-12 {
        font-family: BebasNeueBook, BebasNeueBook;
      }

      .cls-12, .cls-16, .cls-17 {
        fill: #f7f7f7;
      }

      .cls-12, .cls-17 {
        font-size: 8.12px;
      }

      .cls-18, .cls-10, .cls-9 {
        fill: #289df2;
      }

      .cls-19 {
        fill: #0f3775;
      }

      .cls-10 {
        stroke-width: .56px;
      }

      .cls-10, .cls-8, .cls-9 {
        stroke: #fff;
      }

      .cls-20 {
        fill: #e5f1ff;
      }

      .cls-21 {
        fill: #287dd1;
      }

      .cls-22 {
        fill: #f9fbfc;
      }

      .cls-23 {
        fill: #284d89;
      }

      .cls-5 {
        stroke: #284d89;
        stroke-width: 2.26px;
      }

      .cls-6 {
        stroke: #f7f7f7;
        stroke-width: .25px;
      }

      .cls-24 {
        fill: #2889db;
      }

      .cls-25 {
        fill: #0f3157;
      }

      .cls-26 {
        fill: #a9ccea;
      }

      .cls-27 {
        fill: #28385e;
      }

      .cls-7 {
        stroke: #ff5c66;
        stroke-width: 1.02px;
      }

      .cls-28 {
        fill: #ff4d6b;
      }

      .cls-29 {
        fill: #1ae5ff;
      }

      .cls-17 {
        font-family: BebasNeueRegular, BebasNeueRegular;
      }
    </style>
  </defs>
  <circle class="cls-20" cx="314.29" cy="85.82" r="85.82"/>
  <circle class="cls-20" cx="93.17" cy="266.74" r="50.16" transform="translate(-161.32 144.01) rotate(-45)"/>
  <g>
    <path class="cls-26" d="M92.5,28.61c-25.33,0-45.86,20.53-45.86,45.86s20.53,45.86,45.86,45.86,45.86-20.53,45.86-45.86-20.53-45.86-45.86-45.86Zm0,75.17c-16.19,0-29.32-13.13-29.32-29.32s13.13-29.32,29.32-29.32,29.32,13.13,29.32,29.32-13.13,29.32-29.32,29.32Z"/>
    <path class="cls-25" d="M265.75,321.79c0,2.91-2.36,5.26-5.26,5.26H127.43c-2.91,0-5.26-2.36-5.26-5.26s2.36-5.26,5.26-5.26h47.23l6.52-12.03h25.56l6.52,12.03h47.23c2.91,0,5.26,2.36,5.26,5.26Z"/>
    <rect class="cls-28" x="181.96" y="293.6" width="21.8" height="6.39"/>
    <rect class="cls-28" x="181.96" y="283.08" width="21.8" height="6.39"/>
    <path class="cls-2" d="M366.44,261.45c-3.79,1.46-7.91,2.25-12.21,2.25-18.83,0-34.09-15.26-34.09-34.09s15.26-34.09,34.09-34.09,34.09,15.26,34.09,34.09c0,5.05-1.1,9.83-3.06,14.14"/>
    <path class="cls-18" d="M270.18,69.56h-5.44c-1.13-4.84-3.03-9.37-5.58-13.47l3.85-3.85c1.66-1.66,1.66-4.35,0-6.01l-8.55-8.55c-1.66-1.66-4.35-1.66-6.01,0l-3.85,3.85c-4.1-2.55-8.64-4.45-13.47-5.58v-5.44c0-2.35-1.9-4.25-4.25-4.25h-12.09c-2.35,0-4.25,1.9-4.25,4.25v5.44c-4.84,1.13-9.37,3.03-13.47,5.58l-3.85-3.85c-1.66-1.66-4.35-1.66-6.01,0l-8.55,8.55c-1.66,1.66-1.66,4.35,0,6.01l3.85,3.85c-2.55,4.1-4.45,8.64-5.58,13.47h-5.44c-2.35,0-4.25,1.9-4.25,4.25v12.09c0,2.35,1.9,4.25,4.25,4.25h5.44c1.13,4.84,3.03,9.37,5.58,13.47l-3.85,3.85c-1.66,1.66-1.66,4.35,0,6.01l8.55,8.55c1.66,1.66,4.35,1.66,6.01,0l3.85-3.85c4.1,2.55,8.64,4.45,13.47,5.58v5.44c0,2.35,1.9,4.25,4.25,4.25h12.09c2.35,0,4.25-1.9,4.25-4.25v-5.44c4.84-1.13,9.37-3.03,13.47-5.58l3.85,3.85c1.66,1.66,4.35,1.66,6.01,0l8.55-8.55c1.66-1.66,1.66-4.35,0-6.01l-3.85-3.85c2.55-4.1,4.45-8.64,5.58-13.47h5.44c2.35,0,4.25-1.9,4.25-4.25v-12.09c0-2.35-1.9-4.25-4.25-4.25Zm-49.34,31.86c-11.91,0-21.57-9.66-21.57-21.57s9.66-21.57,21.57-21.57,21.57,9.66,21.57,21.57-9.66,21.57-21.57,21.57Z"/>
    <path class="cls-19" d="M104.23,17.76h179.46c6.33,0,11.47,5.14,11.47,11.47V328.78c0,6.33-5.14,11.47-11.47,11.47H104.23c-6.33,0-11.47-5.14-11.47-11.47V29.23c0-6.33,5.14-11.47,11.47-11.47Z" transform="translate(372.96 -14.95) rotate(90)"/>
    <rect class="cls-23" x="56.23" y="102.85" width="33.26" height="7.33"/>
    <rect class="cls-23" x="96.26" y="102.85" width="33.26" height="7.33"/>
    <rect class="cls-23" x="197.75" y="102.85" width="33.26" height="7.33"/>
    <rect class="cls-23" x="299.23" y="102.85" width="33.26" height="7.33"/>
    <rect class="cls-28" x="134.04" y="102.85" width="59.48" height="7.33"/>
    <rect class="cls-24" x="234.96" y="102.85" width="59.48" height="7.33"/>
    <rect class="cls-24" x="56.42" y="97.02" width="5.83" height="3.57"/>
    <g>
      <rect class="cls-13" x="56.42" y="116.19" width="60.8" height="3.57"/>
      <rect class="cls-13" x="56.42" y="122.48" width="18.04" height="3.57"/>
    </g>
    <path class="cls-23" d="M64.41,137.24h56.38c4.2,0,7.61,3.41,7.61,7.61v102.05c0,4.2-3.41,7.61-7.61,7.61h-56.38c-4.2,0-7.61-3.41-7.61-7.61v-102.05c0-4.2,3.41-7.61,7.61-7.61Z"/>
    <g>
      <rect class="cls-13" x="65.82" y="154.43" width="23.96" height="3.66"/>
      <rect class="cls-13" x="65.82" y="162.61" width="23.96" height="3.66"/>
      <rect class="cls-13" x="65.82" y="170.78" width="23.96" height="3.66"/>
    </g>
    <rect class="cls-13" x="65.82" y="204.89" width="14.66" height="3.66"/>
    <rect class="cls-13" x="65.82" y="213.07" width="14.66" height="3.66"/>
    <rect class="cls-13" x="91" y="213.07" width="14.66" height="3.66"/>
    <rect class="cls-13" x="65.82" y="195.59" width="9.21" height="3.66"/>
    <rect class="cls-13" x="105.28" y="195.59" width="4.89" height="3.66"/>
    <rect class="cls-28" x="78.22" y="195.59" width="25.18" height="3.66"/>
    <rect class="cls-24" x="65.82" y="181.78" width="3.52" height="3.66"/>
    <rect class="cls-28" x="65.82" y="188.26" width="3.52" height="3.66"/>
    <polygon class="cls-13" points="85.36 217.49 84.05 217.49 87.19 212.79 88.51 212.79 85.36 217.49"/>
    <rect class="cls-14" x="65.82" y="223.78" width="54.41" height="3.1"/>
    <rect class="cls-14" x="65.82" y="230.83" width="54.41" height="3.1"/>
    <rect class="cls-18" x="225.56" y="131.6" width="163.13" height="54.13" rx="6.77" ry="6.77"/>
    <path class="cls-8" d="M274.05,166.56s8.27-20.3,31.95-15.41c23.68,4.89,35.71,31.57,66.15,9.77"/>
    <rect class="cls-9" x="347.34" y="167.68" width="3.38" height="3.38"/>
    <line class="cls-10" x1="278.18" y1="150.21" x2="321.03" y2="150.21"/>
    <line class="cls-10" x1="327.61" y1="170.31" x2="370.46" y2="170.31"/>
    <rect class="cls-9" x="296.23" y="148.51" width="3.38" height="3.38"/>
    <g>
      <rect class="cls-23" x="216.92" y="141.37" width="42.1" height="58.26" rx="4.89" ry="4.89"/>
      <g>
        <g>
          <rect class="cls-13" x="223.49" y="149.64" width="23.96" height="3.3"/>
          <rect class="cls-13" x="223.49" y="157.01" width="23.96" height="3.3"/>
          <rect class="cls-13" x="223.49" y="164.38" width="9.02" height="3.3"/>
        </g>
        <g>
          <rect class="cls-18" x="223.49" y="172" width="15.6" height="3.3"/>
          <rect class="cls-18" x="223.49" y="179.37" width="10.52" height="3.3"/>
          <rect class="cls-13" x="223.49" y="186.74" width="10.52" height="3.3"/>
        </g>
      </g>
    </g>
    <line class="cls-5" x1="362.38" y1="124.27" x2="379.29" y2="124.27"/>
    <g>
      <path class="cls-7" d="M324.37,219.71l-5.84,4.57-8.38,1.52s-7.87-.51-8.63-.51-6.09-4.31-6.09-4.31l-9.9-3.55-6.85,2.54-8.12-1.78-12.18-.76-11.68,4.57-9.64,1.52-8.63,2.79-9.64,.76-10.41-8.12-9.64-1.78-9.9,5.58-7.87,2.54-8.93-.25-11.26,6.85h-6.71l-11.34,3.98"/>
      <g>
        <line class="cls-6" x1="142.9" y1="236.04" x2="324.63" y2="236.04"/>
        <rect class="cls-16" x="141.12" y="233.75" width="1.86" height="4.57"/>
        <rect class="cls-16" x="323.53" y="233.75" width="1.86" height="4.57"/>
      </g>
      <line class="cls-6" x1="324.46" y1="236.04" x2="324.46" y2="220.72"/>
      <path class="cls-16" d="M325.47,219.96c0,.79-.64,1.44-1.44,1.44s-1.44-.64-1.44-1.44,.64-1.44,1.44-1.44,1.44,.64,1.44,1.44Z"/>
      <text class="cls-17" transform="translate(143.15 246.76)"><tspan class="cls-11" x="0" y="0">beta </tspan><tspan class="cls-15" x="19.45" y="0">t</tspan><tspan class="cls-11" x="22.58" y="0">est</tspan></text>
      <rect class="cls-27" x="184.86" y="242.64" width="113.03" height="2.03"/>
      <rect class="cls-28" x="184.86" y="242.64" width="69.38" height="2.03"/>
      <rect class="cls-27" x="184.86" y="246.53" width="55.58" height="2.03"/>
      <g>
        <polygon class="cls-28" points="149.63 252.58 156.48 252.58 157.37 250.67 143.53 250.67 143.53 253.85 148.36 253.85 149.63 252.58"/>
        <rect class="cls-16" x="163.07" y="250.65" width=".76" height=".76"/>
        <rect class="cls-16" x="167.79" y="250.65" width=".76" height=".76"/>
        <rect class="cls-16" x="172.52" y="250.65" width=".76" height=".76"/>
      </g>
      <text class="cls-12" transform="translate(315.57 214.89)"><tspan x="0" y="0">500</tspan></text>
      <g>
        <polygon class="cls-27" points="306.02 248.73 304.32 248.73 301.62 242.64 303.31 242.64 306.02 248.73"/>
        <polygon class="cls-27" points="310.42 248.73 308.72 248.73 306.02 242.64 307.71 242.64 310.42 248.73"/>
        <polygon class="cls-27" points="314.81 248.73 313.12 248.73 310.42 242.64 312.11 242.64 314.81 248.73"/>
        <polygon class="cls-27" points="319.21 248.73 317.52 248.73 314.81 242.64 316.51 242.64 319.21 248.73"/>
        <polygon class="cls-27" points="323.53 248.73 321.84 248.73 319.13 242.64 320.82 242.64 323.53 248.73"/>
      </g>
    </g>
    <g>
      <rect class="cls-26" x="288.67" y="39" width="27.51" height="4.93"/>
      <rect class="cls-26" x="288.67" y="47.82" width="41.48" height="4.93"/>
      <rect class="cls-26" x="288.67" y="56.64" width="51.16" height="4.93"/>
      <rect class="cls-26" x="288.67" y="65.46" width="19.56" height="4.93"/>
    </g>
    <g>
      <rect class="cls-24" y="98.39" width="27.51" height="4.93"/>
      <rect class="cls-26" y="107.21" width="41.48" height="4.93"/>
      <rect class="cls-26" y="116.03" width="51.16" height="4.93"/>
      <rect class="cls-26" y="124.84" width="19.56" height="4.93"/>
    </g>
    <rect class="cls-1" x="68.63" y="271.42" width="117.27" height="15.22"/>
    <rect class="cls-1" x="125.2" y="151.52" width="5.64" height="34.58"/>
    <g>
      <circle class="cls-28" cx="354.22" cy="229.61" r="19.43" transform="translate(-32.04 59.33) rotate(-9.16)"/>
      <g>
        <path class="cls-22" d="M352.82,227.79l-7.72,2.83,7.72,2.8v2.9l-11.03-4.2v-3.01l11.03-4.19v2.87Z"/>
        <path class="cls-22" d="M355.34,224.92l11.03,4.19v3.01l-11.03,4.2v-2.9l7.72-2.8-7.72-2.83v-2.87Z"/>
      </g>
    </g>
    <path class="cls-3" d="M386.62,245.49c0,1.4-1.14,2.54-2.54,2.54s-2.54-1.14-2.54-2.54,1.14-2.54,2.54-2.54,2.54,1.14,2.54,2.54Z"/>
    <rect class="cls-1" x="62.43" y="61.69" width="91.9" height="9.58"/>
    <rect class="cls-18" x="66.38" y="64.79" width="56.94" height="2.82"/>
    <g>
      <rect class="cls-23" x="140.61" y="136.49" width="67.28" height="3.38"/>
      <rect class="cls-24" x="140.61" y="136.49" width="30.49" height="3.38"/>
    </g>
    <g>
      <rect class="cls-23" x="140.61" y="145.22" width="67.28" height="3.38"/>
      <rect class="cls-28" x="140.61" y="145.22" width="46.84" height="3.38"/>
    </g>
    <g>
      <rect class="cls-23" x="140.61" y="153.96" width="67.28" height="3.38"/>
      <rect class="cls-29" x="140.61" y="153.96" width="13.72" height="3.38"/>
    </g>
    <g>
      <rect class="cls-23" x="140.9" y="130.57" width="1.32" height="1.32"/>
      <rect class="cls-23" x="145.41" y="130.57" width="1.32" height="1.32"/>
      <rect class="cls-23" x="149.92" y="130.57" width="1.32" height="1.32"/>
    </g>
    <g>
      <rect class="cls-13" x="266.09" y="176.64" width="2.19" height="2.19"/>
      <rect class="cls-13" x="273.61" y="176.64" width="2.19" height="2.19"/>
      <rect class="cls-13" x="281.13" y="176.64" width="2.19" height="2.19"/>
    </g>
    <g>
      <rect class="cls-13" x="297.74" y="89.51" width="4.11" height="4.11"/>
      <rect class="cls-13" x="311.84" y="89.51" width="4.11" height="4.11"/>
      <rect class="cls-13" x="325.93" y="89.51" width="4.11" height="4.11"/>
    </g>
    <g>
      <rect class="cls-13" x="239.48" y="259.41" width="4.11" height="4.11"/>
      <rect class="cls-13" x="253.58" y="259.41" width="4.11" height="4.11"/>
      <rect class="cls-13" x="267.67" y="259.41" width="4.11" height="4.11"/>
    </g>
    <g>
      <rect class="cls-13" x="67.01" y="145.57" width="2.19" height="2.19"/>
      <rect class="cls-13" x="74.52" y="145.57" width="2.19" height="2.19"/>
      <rect class="cls-13" x="82.04" y="145.57" width="2.19" height="2.19"/>
    </g>
    <g>
      <rect class="cls-13" x="337.95" y="142.88" width="36.46" height="3.57"/>
      <rect class="cls-21" x="337.95" y="149.17" width="10.82" height="3.57"/>
    </g>
    <polygon class="cls-29" points="43.83 150.21 35.93 150.21 35.93 142.31 28.6 142.31 28.6 150.21 20.71 150.21 20.71 157.53 28.6 157.53 28.6 165.43 35.93 165.43 35.93 157.53 43.83 157.53 43.83 150.21"/>
    <polygon class="cls-24" points="22.7 172.19 17.89 172.19 17.89 167.38 13.42 167.38 13.42 172.19 8.61 172.19 8.61 176.66 13.42 176.66 13.42 181.48 17.89 181.48 17.89 176.66 22.7 176.66 22.7 172.19"/>
    <g>
      <path class="cls-23" d="M154.44,167.99c-6.82,0-12.34,5.53-12.34,12.34s5.53,12.34,12.34,12.34,12.34-5.53,12.34-12.34-5.53-12.34-12.34-12.34Zm0,18.78c-3.55,0-6.43-2.88-6.43-6.43s2.88-6.43,6.43-6.43,6.43,2.88,6.43,6.43-2.88,6.43-6.43,6.43Z"/>
      <path class="cls-18" d="M146.04,179.12c1.15,0,2.15-.68,2.67-1.7,1.06-2.08,3.23-3.51,5.73-3.51s4.67,1.43,5.73,3.51c.52,1.02,1.53,1.7,2.67,1.7h0c2.16,0,3.64-2.26,2.69-4.2-2.01-4.1-6.22-6.92-11.09-6.92s-9.08,2.82-11.09,6.92c-.95,1.94,.53,4.2,2.69,4.2h0Z"/>
    </g>
    <g>
      <path class="cls-23" d="M175.17,180.34c0,6.82,5.53,12.34,12.34,12.34s12.34-5.53,12.34-12.34-5.53-12.34-12.34-12.34-12.34,5.53-12.34,12.34Zm18.78,0c0,3.55-2.88,6.43-6.43,6.43s-6.43-2.88-6.43-6.43,2.88-6.43,6.43-6.43,6.43,2.88,6.43,6.43Z"/>
      <path class="cls-28" d="M186.3,188.74c0-1.15-.68-2.15-1.7-2.67-2.08-1.06-3.51-3.23-3.51-5.73s1.43-4.67,3.51-5.73c1.02-.52,1.7-1.53,1.7-2.67h0c0-2.16-2.26-3.64-4.2-2.69-4.1,2.01-6.92,6.22-6.92,11.09s2.82,9.08,6.92,11.09c1.94,.95,4.2-.53,4.2-2.69h0Z"/>
    </g>
    <rect class="cls-1" x="96.64" y="131.6" width="22.55" height="54.13"/>
    <g>
      <rect class="cls-29" x="99.83" y="142.03" width="6.58" height="1.94"/>
      <rect class="cls-29" x="99.83" y="146.37" width="6.58" height="1.94"/>
      <rect class="cls-29" x="99.83" y="150.7" width="6.58" height="1.94"/>
      <rect class="cls-29" x="99.83" y="173.26" width="6.58" height="1.94"/>
    </g>
    <g>
      <rect class="cls-29" x="99.83" y="157.06" width="9.58" height="1.94"/>
      <rect class="cls-13" x="99.83" y="161.4" width="9.58" height="1.94"/>
      <rect class="cls-13" x="99.83" y="165.74" width="9.58" height="1.94"/>
    </g>
    <rect class="cls-18" x="15.82" y="199.26" width="28.57" height="28.57"/>
    <rect class="cls-1" x=".79" y="206.02" width="28.57" height="28.57"/>
    <rect class="cls-1" x="355.61" y="281.95" width="12.03" height="12.03"/>
    <g>
      <polyline class="cls-8" points="211.28 262.97 221.43 262.97 227.07 268.61 285.7 268.61 294.72 259.58 326.3 259.58"/>
      <circle class="cls-8" cx="208.32" cy="263.11" r="2.96"/>
      <circle class="cls-8" cx="329.35" cy="259.44" r="2.96"/>
    </g>
    <path class="cls-18" d="M369.15,103.78c0,2.08-1.68,3.76-3.76,3.76s-3.76-1.68-3.76-3.76,1.68-3.76,3.76-3.76,3.76,1.68,3.76,3.76Z"/>
    <path class="cls-28" d="M21.84,250.38c0,2.08-1.68,3.76-3.76,3.76s-3.76-1.68-3.76-3.76,1.68-3.76,3.76-3.76,3.76,1.68,3.76,3.76Z"/>
    <path class="cls-28" d="M39.13,264.28c0,3.63-2.94,6.58-6.58,6.58s-6.58-2.94-6.58-6.58,2.95-6.58,6.58-6.58,6.58,2.95,6.58,6.58Z"/>
    <g>
      <rect class="cls-1" x="236.84" y="286.46" width="26.31" height="6.01"/>
      <rect class="cls-1" x="236.84" y="297.74" width="57.7" height="6.01"/>
    </g>
    <g>
      <line class="cls-4" x1="75.65" y1="292.22" x2="69.28" y2="298.6"/>
      <line class="cls-4" x1="81.79" y1="292.22" x2="75.41" y2="298.6"/>
      <line class="cls-4" x1="87.92" y1="292.22" x2="81.54" y2="298.6"/>
      <line class="cls-4" x1="94.05" y1="292.22" x2="87.67" y2="298.6"/>
      <line class="cls-4" x1="100.18" y1="292.22" x2="93.8" y2="298.6"/>
    </g>
  </g>
</svg>