<?xml version="1.0" encoding="UTF-8"?>
<svg id="OBJECTS" xmlns="http://www.w3.org/2000/svg" viewBox="0 0 123.6 107.58">
  <defs>
    <style>
      .cls-1 {
        fill: #fff;
        font-family: Montserrat-Black, Montserrat;
        font-size: 54.48px;
        font-weight: 800;
      }

      .cls-2 {
        fill: #1976d2;
      }
    </style>
  </defs>
  <g>
    <path class="cls-2" d="M8.37,20.98v22.1c0,3.54-1.82,5.15-4.83,5.15H0v10.94H3.54c3.01,0,4.83,1.61,4.83,5.15v22.1c0,11.37,6.12,17.49,18.24,17.49h5.36v-10.73h-2.25c-5.36,0-7.94-3-7.94-8.15v-20.39c0-6.65-2.04-9.55-6.33-10.94,4.29-1.39,6.33-4.29,6.33-10.94V22.37c0-5.15,2.57-8.15,7.94-8.15h2.25V3.49h-5.36c-12.12,0-18.24,6.12-18.24,17.49Z"/>
    <path class="cls-2" d="M107.94,0H37.06V107.58H107.94c8.65,0,15.67-7.01,15.67-15.67V15.67c0-8.65-7.01-15.67-15.67-15.67Zm5.48,59.17h-3.65c-2.9,0-4.72,1.61-4.72,5.15v22.1c0,11.37-6.22,17.49-18.35,17.49h-5.36v-10.73h2.25c5.47,0,8.05-3,8.05-8.15v-20.38c0-6.65,1.93-9.55,6.22-10.94-4.29-1.39-6.22-4.29-6.22-10.94V22.37c0-5.15-2.57-8.15-8.05-8.15h-2.25V3.49h5.36c12.12,0,18.35,6.12,18.35,17.49v22.1c0,3.54,1.82,5.15,4.72,5.15h3.65v10.94Z"/>
  </g>
  <text class="cls-1" transform="translate(42.07 74.45)"><tspan x="0" y="0">V</tspan></text>
</svg>