<?xml version="1.0" encoding="UTF-8"?>
<svg id="OBJECTS" xmlns="http://www.w3.org/2000/svg" xmlns:xlink="http://www.w3.org/1999/xlink" viewBox="0 0 351.83 95.14">
  <defs>
    <style>
      .cls-1 {
        fill: url(#Degradado_sin_nombre_35);
      }

      .cls-2, .cls-3 {
        font-family: Montserrat-SemiBold, Montserrat;
        font-size: 85.79px;
        font-weight: 600;
      }

      .cls-2, .cls-4 {
        fill: #1976d2;
      }

      .cls-5 {
        letter-spacing: -.01em;
      }

      .cls-6, .cls-3 {
        fill: #222;
      }

      .cls-6, .cls-4 {
        font-family: Montserrat-Black, Montserrat;
        font-size: 38.36px;
        font-weight: 800;
      }

      .cls-7 {
        letter-spacing: 0em;
      }

      .cls-8 {
        letter-spacing: 0em;
      }

      .cls-9 {
        letter-spacing: 0em;
      }

      .cls-10 {
        letter-spacing: -.04em;
      }
    </style>
    <linearGradient id="Degradado_sin_nombre_35" data-name="Degradado sin nombre 35" x1="30.2" y1="51.46" x2="187.44" y2="51.46" gradientUnits="userSpaceOnUse">
      <stop offset="0" stop-color="#1976d2"/>
      <stop offset=".99" stop-color="#1976d2"/>
    </linearGradient>
  </defs>
  <text class="cls-3" transform="translate(0 72.92)"><tspan x="0" y="0">{</tspan></text>
  <text class="cls-2" transform="translate(320.09 72.92)"><tspan x="0" y="0">}</tspan></text>
  <text class="cls-6" transform="translate(188.81 64.88)"><tspan x="0" y="0">RI</tspan><tspan class="cls-10" x="42" y="0">V</tspan><tspan x="70.62" y="0">AS</tspan></text>
  <g>
    <text class="cls-4" transform="translate(30.93 64.88)"><tspan class="cls-5" x="0" y="0">V</tspan><tspan x="29.58" y="0">I</tspan><tspan class="cls-9" x="43" y="0">C</tspan><tspan class="cls-8" x="71.35" y="0">T</tspan><tspan class="cls-7" x="96.05" y="0">OR</tspan></text>
    <g>
      <path class="cls-1" d="M41.55,64.88l-11.35-26.85h9.74l9.25,22.67h-5.79l9.51-22.67h8.9l-11.35,26.85h-8.9Z"/>
      <path class="cls-1" d="M62.69,64.88v-26.85h9.05v26.85h-9.05Z"/>
      <path class="cls-1" d="M90,65.5c-2.15,0-4.14-.34-5.97-1.02-1.83-.68-3.41-1.64-4.76-2.9-1.34-1.25-2.39-2.74-3.13-4.45-.74-1.71-1.11-3.61-1.11-5.68s.37-3.96,1.11-5.68c.74-1.71,1.78-3.2,3.13-4.45,1.34-1.25,2.93-2.22,4.76-2.9,1.83-.68,3.82-1.02,5.97-1.02,2.63,0,4.97,.46,7,1.38,2.03,.92,3.71,2.25,5.04,3.99l-5.72,5.1c-.79-1-1.67-1.77-2.63-2.32s-2.04-.83-3.24-.83c-.95,0-1.8,.15-2.57,.46-.77,.31-1.43,.75-1.98,1.34-.55,.59-.98,1.3-1.29,2.13-.31,.83-.46,1.76-.46,2.78s.15,1.95,.46,2.78c.31,.83,.73,1.54,1.29,2.13,.55,.59,1.21,1.04,1.98,1.34,.77,.31,1.62,.46,2.57,.46,1.2,0,2.28-.27,3.24-.83,.96-.55,1.83-1.32,2.63-2.32l5.72,5.1c-1.33,1.71-3.01,3.04-5.04,3.97-2.03,.93-4.37,1.4-7,1.4Z"/>
      <path class="cls-1" d="M110.29,64.88v-19.83h-7.86v-7.02h24.78v7.02h-7.86v19.83h-9.05Z"/>
      <path class="cls-1" d="M143.28,65.5c-2.2,0-4.23-.35-6.08-1.04-1.85-.69-3.46-1.67-4.81-2.93s-2.41-2.76-3.16-4.47c-.75-1.71-1.13-3.58-1.13-5.6s.38-3.92,1.13-5.62c.75-1.7,1.81-3.18,3.16-4.45s2.96-2.24,4.81-2.93c1.85-.69,3.87-1.04,6.04-1.04s4.22,.34,6.06,1.04c1.84,.69,3.44,1.67,4.79,2.93,1.35,1.27,2.41,2.75,3.16,4.45,.75,1.7,1.13,3.57,1.13,5.62s-.38,3.89-1.13,5.6c-.75,1.71-1.81,3.2-3.16,4.47-1.36,1.27-2.95,2.24-4.79,2.93-1.84,.69-3.85,1.04-6.02,1.04Zm-.04-7.33c.84,0,1.63-.15,2.36-.46,.73-.31,1.37-.75,1.92-1.32,.55-.58,.98-1.28,1.29-2.11,.31-.83,.46-1.77,.46-2.82s-.15-1.99-.46-2.82c-.31-.83-.74-1.53-1.29-2.11-.55-.58-1.19-1.02-1.92-1.32-.73-.31-1.52-.46-2.36-.46s-1.63,.15-2.36,.46c-.73,.31-1.37,.75-1.92,1.32-.55,.58-.98,1.28-1.29,2.11-.31,.83-.46,1.77-.46,2.82s.15,1.99,.46,2.82c.31,.83,.73,1.53,1.29,2.11,.55,.58,1.19,1.02,1.92,1.32,.73,.31,1.52,.46,2.36,.46Z"/>
      <path class="cls-1" d="M161.7,64.88v-26.85h12.93c2.51,0,4.67,.41,6.5,1.23,1.83,.82,3.24,1.99,4.24,3.51,1,1.52,1.5,3.32,1.5,5.39s-.5,3.86-1.5,5.35c-1,1.5-2.41,2.64-4.24,3.43-1.83,.79-4,1.19-6.5,1.19h-7.9l4.03-3.72v10.47h-9.05Zm9.05-9.47l-4.03-4.11h7.33c1.25,0,2.18-.28,2.78-.84,.6-.56,.9-1.33,.9-2.3s-.3-1.74-.9-2.3c-.6-.56-1.53-.84-2.78-.84h-7.33l4.03-4.1v14.5Zm7.02,9.47l-6.6-9.78h9.59l6.67,9.78h-9.67Z"/>
    </g>
  </g>
</svg>